<svg width="24" height="24" fill="none" xmlns="http://www.w3.org/2000/svg"><path opacity=".8" fill-rule="evenodd" clip-rule="evenodd" d="M15.964 4H8.036A4.04 4.04 0 004 8.036v7.928A4.04 4.04 0 008.036 20h7.928A4.04 4.04 0 0020 15.964V8.036A4.04 4.04 0 0015.964 4zm2.295 11.964a2.298 2.298 0 01-2.295 2.295H8.036a2.298 2.298 0 01-2.295-2.295V8.036a2.297 2.297 0 012.295-2.294h7.928a2.298 2.298 0 012.295 2.294v7.928zm-2.006-7.232a.976.976 0 01-.975-.975.976.976 0 011.95 0 .976.976 0 01-.975.975zM7.88 12A4.125 4.125 0 0112 7.88 4.126 4.126 0 0116.122 12 4.126 4.126 0 0112 16.12 4.126 4.126 0 017.88 12zm1.741 0A2.383 2.383 0 0012 14.38 2.383 2.383 0 0014.38 12 2.382 2.382 0 0012 9.62 2.382 2.382 0 009.62 12z" fill="#0098D6"/></svg>