<svg width="40" height="40" fill="none" xmlns="http://www.w3.org/2000/svg"><rect width="40" height="40" rx="20" fill="#80D1F4"/><path fill-rule="evenodd" clip-rule="evenodd" d="M23.964 12h-7.928A4.04 4.04 0 0012 16.036v7.928A4.04 4.04 0 0016.036 28h7.928A4.04 4.04 0 0028 23.964v-7.928A4.04 4.04 0 0023.964 12zm2.295 11.964a2.298 2.298 0 01-2.295 2.295h-7.928a2.298 2.298 0 01-2.295-2.295v-7.928a2.297 2.297 0 012.295-2.295h7.928a2.298 2.298 0 012.295 2.295v7.928zm-2.006-7.232a.976.976 0 01-.975-.975.976.976 0 011.95 0 .976.976 0 01-.975.975zM15.88 20A4.125 4.125 0 0120 15.88 4.126 4.126 0 0124.122 20 4.126 4.126 0 0120 24.12 4.126 4.126 0 0115.88 20zm1.741 0A2.383 2.383 0 0020 22.38 2.383 2.383 0 0022.38 20 2.382 2.382 0 0020 17.62 2.382 2.382 0 0017.62 20z" fill="#fff"/></svg>