<svg width="41" height="40" fill="none" xmlns="http://www.w3.org/2000/svg"><rect x=".5" width="40" height="40" rx="20" fill="#33ADDE"/><path fill-rule="evenodd" clip-rule="evenodd" d="M24.463 12h-7.927a4.04 4.04 0 00-4.037 4.036v7.928A4.04 4.04 0 0016.537 28h7.927a4.04 4.04 0 004.037-4.036v-7.928A4.04 4.04 0 0024.463 12zm2.296 11.964a2.298 2.298 0 01-2.296 2.295h-7.927a2.298 2.298 0 01-2.295-2.295v-7.928a2.297 2.297 0 012.295-2.295h7.927a2.298 2.298 0 012.296 2.295v7.928zm-2.006-7.232a.976.976 0 01-.976-.975.976.976 0 011.95 0 .976.976 0 01-.974.975zM16.379 20a4.125 4.125 0 014.12-4.12A4.126 4.126 0 0124.62 20a4.126 4.126 0 01-4.12 4.12A4.126 4.126 0 0116.378 20zm1.74 0a2.383 2.383 0 002.38 2.38A2.383 2.383 0 0022.88 20a2.382 2.382 0 00-2.38-2.38A2.382 2.382 0 0018.12 20z" fill="#fff"/></svg>