<svg width="604" height="364" fill="none" xmlns="http://www.w3.org/2000/svg"><mask id="a" maskUnits="userSpaceOnUse" x="0" y="0" width="604" height="364"><path fill="#C4C4C4" d="M.177.719h603.645v362.49H.177z"/></mask><g mask="url(#a)" stroke="#F3F9FE"><path d="M53.457 288.22l1.088.29-.435.463-.49.252.219.839-.627.521-1.452-.169-1.571-.631-1.08.325-.936.852-1.32-.321-2.223 1.034-1.583.358-1.506-.38-.6-.722.295-.274.835-1.408.072-.619-1.107-1.325-.486-.044-.819-.629-.67.353-.653-.476 1.128-1.108 1.67-.576 1.282.034.39-.155-.354-.67.026-.866.567-.058.46.454 1.348.188.383.715.432.488.527-.145.196.477-.526.424-.043.387.432-.166.38.081-.274.635.594-.369.376.377-.011.988.365.613.889.486.466-.139-1.104-1.621-1.068-2.07-.173-1.147.39-.155.441 1.006.09 1.168 1.544 2.627.434.29.855-.571.483.063.67.677.503-.785 1.28.134zM209.578 95.494l-.701.129.223.443.831.474.659-.395.269-.517-.86-.342-.421.208zm6.259-7.43l-.518-.268-.678.114-.739.021-.01.236.956.54.292.399.796-.664-.099-.377zm3.746-30.236l.158-1.116-.499-.641-.523-.151-.491.352-.059.74-.23.803.047.526.406.145.808-.165.383-.493zm-13.036 37.835l.159.747.602.247.843-.792-.242-.448-.711-.111-.651.357zm-9.62-6.72l-.928-.02-.275.358.376.378.038.662.596.463.623-.224-.064-.727.166-.5-.532-.39zm4.485-13.177l.411-.349-1.006-.49-.199-.558-.461-.257-.433.265.001.555.879.623.808.21zM213.5 97.853l.436-.185-.746-.594-1.11.18.271.315 1.149.284zm7.003-11.116l-.422-.723-.958-.343-.474.177-.041.566-.24.009-.55-.494-.283.119.25.786.41.404.808.211.519.546.396-.094.004-.296-.222-.543.673.005.13-.33zm-5.931 5.042l.1-.375-.467-.139-1.143.53-.101.474.705.507.255-.263-.092-.317.143-.207.6-.21zm23.501-27.25l-.979.13.174.393.775.086.942-.137.017-.452-.466-.515-.463.496zM224 17.707l-.489.53-.236.643-1.176.028-.863.51-.691 1.201-.05.703.715.647.551.117.21.6-1.173.662-.373.733.048 1.358-.268.518-1.059.409-.241.385.757.735.235.387.491-.074-.079-.65.297-.374.615.468.6.722.806-.245.53.211.434.945.212 1.71.441.727 1 .332.771.758.715.37 1.096-.303 1.223-.156.428.507.915.829 1.979.579.888-.07.612.388.798.07.412.584.69.86.779.066.907-.441 1.192-.758 1.265-.068 1.268-1.118.145-.682-.783-1.356-.567-.318-.753-1.31-1.061-.423-.797-.823.096-1.01.47.12.474.476.786.128.158-.462-.63-1.422-.968-1.514.238-1.118.033-1.182-.587-.6.126-.965-.387-.419-.398-.183-2.08-2.721-1.558-.51-1.467-.093-.269.518.031.6.816 1.482-.022.57-.464.595-.191.712-.403.965-.75 1.01-.486.233.019-.65.563-.593.407-.706-.341-.45.738-1.23-.187-.892-1.002-2.194-.928-1.05-1.585-.475-.375.178-.551.914-1.536.605-1.156.21zm-7.749 74.39l.496-.192.152-.245-.062-.548-.865-.224-.328.327.003.734.604.148zm8.382-41.142l-.517-.367-.39.154.41.781.418-.01.079-.558zm-24.048 59.89l.736-.101.15-.523-.41-1.336.052-1.178-.791-1.04-.228-.979-.927.813-.49 1.283-.73.915-.015.631.935.358.234.485.815.272.669.4zm-30.754-6.771l-.051.802-.359 1.132.588.779.31.126-.089-.515.158-.462.482.063.177.85.496-.093.286.24.64-.023.448-.618.923-.517.896-.107.206-.412-.232-.961-.999-.807-.015-.677-.527-1.063-.415-.385-.682.132-.889.544-.696-.088-.984.524-.095.634.423.902zm33.906-99.292l1.05.005.848-.533.234-.545.455-.458-.95-.48-1.22-.14-.623.601-.955.67.37.494.791.386zm10.461 19.106l1.545.289.51.306-.398.193-1.245.072-.991-.19-.02.372.663.617.857.26.968-.448 1.126-.632.638-.202.602-1.06.736-1.132-.069-.61-1.567-1.303-1.428-.561-1.324-.024-.817.203-.69-.484-.483-.063-.869.45-1.029-.199-.295.175.206.619.995.45.273.77.784.603.358.928.964.601zm-84.212 50.855l.316-.369 1.285-.54.273-.536-.258-.094-1.048.451-.567.058-.573.453.214.58.358-.003zm44.409-62.739l1.552.35 1.112-.1.611-.544-.202-.915-1.093-.55-1.406-.2-1.233.67-.167.599.227.425c-.015-.023.599.266.599.266zm11.839 90.581l.441.351.857-.393-.074-.491.229-.427.512-.168-.179-.276-.62-.072-1.315.592-.657.851-.095.634.901-.601zm-.508 4.727l-.149-.606-.696-.366-.695.189-.549 1.37.179.652.686.225.343.628.599.167.003-.852-.34-.548.14-.564.479-.295zm8.893 8.369l.988-.543.584-.133.767-.809.728-.162.919-.776.061-.661-.35-.312-.811-.291-1.283.064-.696.566-.074.817-.712.641-.546.241-.294.73.285.615.434.013zm9.025-34.922l-.472-.675.113-.53-.064-.727-.664.235-.38-.08-.338.284.489.778-.247.601-.343-.251-.257-.47-.258 1.59.51.306.517-.287.27.315-.09.893.298.558.253-.818-.069-.985.65-.259.101-.474-.019-.004zm-85.175 17.2l.39-.155.309-.43.638-.2 1.244-.628.9-.126.834.276.322.445-.123.39-.369-.039-.423-.526-.475-.1-.385.413-1.261.426-.6.586-.324.684.078.75-.258.282s-.126.409-.141.386l1.225.3 1.325-.353 1.083-.245.738.355.298.558.886.406.702-.227-.264-.531.186-.595.337.19.225.9.607.506 1.195.254.306-.411.658-.019.635-.935.133-.903.743-.793.275-.735-.46-.633-.238-1.12-.738-.355-.569-.121-.219-.463.526-.145.628.311.568-.057.315.76-.109.512.365.335.511-.446-.06-1.301-.624-1.361-.574-1.311.343-.403.429.785-.015.63.701.526.677.362.31-.43.021-.57-.254-.39.166-.5.652-.734.07-.798-.461-.91-.644-1.266.628.034.535.748.602-.03.512-.823-.157-.291-.542-.155.278-1.031.545-.043.612.665.994.647.423-.405-.523-.527.002-.476.656.18.422.347.724-.421.235-.822-.202-.36.221-.29 1.19-.282.338-.563-.587-.6-.194-.675.571-.632.246.805.601-.308 1.494-1.248.569-.81.571-.355.332-1 1.357-.504.914-1.035.792-1.397.677.084 1.779-.81 2.095-1.557 1.577-.794.495.005 1.325-.729 1.413-.116.911-.46 1.483-1.191.753-.276.435.191.683-.132.174-.538-.162-.45.563-.693.031-.707.242-1.138-.221-.265-.531-.211.127-1.063.635-.935-.17-.413-.811-.291-.321-.544-.754-.28-.326-.703.107-.69-.23-.505-1.078.405-.245.404-.472-.298-.581-.44-.723.044-1.166.446-.381.672-.578.293-.631-.015-.583.411-.22.568-.771.55-.165.4.316.94-.079.557-.702-.149-.449.34-.129.607-.459.2-.607.525-1.644.642-.601.308-.29-.22-.699-.168-.727.34-.904.898-.711.266-.275-.297-.136-.663-.323-.068-.231.525-.079.935-.326.228-.094-.773-.249-.787-1.3-.137-1.664.083-.387.235-.632-.016-.339.384.249 1.162.269.414-.171.34-.431.067-.666.612-.298-.182.139-.466.372-.258.125-.588-.532-.113-.88.784-.7.308-.087.595.475.379-.486.233-.464.595-.915-.174-.601.308-.218.469-.816.104-.575.373-.417 1.12.172.315.473.2-.732.458-1.238-.243-.532.263-.4 1.045-.019.65.394.103.632.016.174.393-.221.39-.052.8-.647.339-.476-.28-.939-.437-.992.285-.349.52-.106.592-.509.625-.892.465-.52-.448-.32-.642-.088-.614-.359.103-.453 1.013-.023.946.612.764.567-.057.242.17-.079.558-.584.787.03.423.456.374.522-.404.364.057.271.315.831.197.608-.248.202.261-.405.509-.678.014-.983-.228-.48.393-.434-.29-.417.466.081.929.568.497.527.23.598-.11.214.303-.259.282-.995.205-.979-.248-.547.24-.172.44.338.369.745.04.819.252-.06.285-.553.08-.863-.044-.055.444.229.227.997.35 1.001.986.611.388-.052.246-.037.547-.417-.743-.759-.537-.732-.195-.594-.563-.718-.172-.575.374-.249.521-.387.235-.059.463.227.425-.194.355-.431.067-.364-.157-.603.506-.388.612.069.331-.32.29-.723.044-.094.257.717 1.104.653.475zm92.893-86.96l.644.613-.06.84-.772 2.233-.607.803-.399.668.125.62.446-.043.671-.73 1.166-.168.3.361.074.868 1.029 1.13.664.141.484-.314.655.278.944.875 1.027.396.958.065 1.578-.517.746-.713.268-.795 1.235-.769 1.882-.828 1.233-.392.552-.636.09-.893-1.25-1.117-1.018-1.465-.473-1.508.25-.897.641-.776.164-.679-.327-.327-2.077-.401-1.451-.824-.917-1.007-1.254-2.407-1.013-1.206L216.329.5l-.591-.204-.308.33-.335.643.038.662-.261 1.133-.911.837-1.006 1.094-1.103.896-.31.806-.549 3.331.369.97zm-20.89 95.26l.578-.016.063-.482-1.159-.424-.71-.488-.519.108.678.917 1.069.385zm47.504-46.03l.683-.508.391.024-.023.39-.363.4.979-.407.899-.68.21-.71.543-.22.163-.957-.209-.322-.477.097-.369.338-.896.483-1.115.298-1.058.965-.573.83.399.084.816-.104zm-34.518 14.684l.595.186.805-.146.182-.298-1.231-.46-.497-.462-.545.043-.649.813c-.023.015.34.27.34.27l1 .054zM405.787 62.15l.245.904 2.637 1.59 2.081.66 1.335.998 1.393.355 1.158-.13 1.149.66.824-.143 1.849-.677.553-1.012.819-.777-.073-1.244-.656-.457-.59-.026-.114-.678.158-.462-.317-.563-.772.272-1.203-.592-2.096-.03-1.461.622-.879.03-.203-.538-.045-.723-.578-.083-.974.012-1.347-.287-.574-.38-.145.683-.698.486-1.461-.687-.449-.69.026-.588-.659-.26.035 1.613 1.032 2.142zm73.264 48.954l.361-.201-.018-.757-.586-.322-.478.473.376.753.345.054zm-83.584-20.728l.832-.834 1.414-.492 1.196.531 1.681.397 1.191-.005 1.909.445.886-.346 1.353.168.791.386.9-.502-.626-.787-.196-.854-.713-1.5-1.403-1.704-1.08-.329-1.075-.545-.628-.966-.759-.161-.627.243-1.076-.724-.626-.133-.853.75-1.212 1.13.076.948-.408 1.736-.97 1.855-.988.543-.21.709.587.223.634-.182zm87.155 20.258l.405-.41-.969-.483-.274.358.31.502.528.033zm-92.579-53.83l.46.355-.025.867.414.385.28.832-.302.392-.237.742-.404.687.024 1.194 1.53 1.95.793 1.12 1.667 1.305.881.148 1.048-.451.464.058.664.795.401-.489.851-.552.428-1.079.57-.632-.037-.662.183-1.05-.93-.476-.63-1.144.177-.834.679-.49.983-.05.077-.458-1.973-1.073-1.922-.666-.761.036-.948-.3-1.794-1.451-.849-.3-1.34-.225-1.219-.239.373.951.424.804zm7.87 58.942l.191-.435 1.17-.089.331-.346-.191-.595-.125-.998-.355.083-.297.651-.891.365s-.912-.094-.976-.167l.55 1.147.593.384zm2.515-74.215l.761-.313-.197-.38.096-.732-.213-.303-1.381.896-.737 1.508 1.045-.155.626-.52zm85.022 70.358l.276-.457-.36-.453-.38.296.117.659.347-.045zm6.29 14.93l.312-.627-.121-.739-.41-.127-.201.294.131 1.157.289.042zm-.702.782l.095-.634-.239-.744-.527-.132-.141.386.454.85.358.274zm19.409-7.053l.803.051.98.427.879.999.776.64 1.02-.041.648-.714.038-.924-.5-.918.323-.209-.158-.846-.744-.792-.247.324-.691-.206-.655-.556-.827-.215-.191.336-.532-.014.049.327-.638-.076-.419.664-.241 1.416.327.327zm-265.069-57.16l.316.562-.005.772.365.057.382-.117.271-.437-.627-.41-.227-.703-.315-.107-.16.382zm244.982 65.258l.229.881.323-.308-.074-1.145-.63-.768-.326-.049-.012.334.49 1.055zm-95.216-46.74l.003-.853-.878-1.375-.189-1.07-.584-.243-1.02.04-.943.612-.058.741.376 1.031-.211.431.195.577.639.353.542 1.186.701.525.467-.238-.106-.34.477-.75.589-.628zm93.453 46.168l.344-.403.27-.061-.057-.944-.437-.37-.162.203-.66.118.27.969.432.488zM265.026 42.135l1.213.357 1.152.087.564-.416.461.633.629-.718-.117-1.036-.538-.273-.318.19-.713-.19-.647.714-1.058-.344-.527.522-.101.474zM242.335 63.89l-.479.294-.365.596-.796.386.088.336.491-.074.614-.365.232.307.048.802.445-.321.213-.629-.252-.31.255-.918-.494-.105zm21.726-22.534l.816-.48.123-.39-.271-.316.393-.352.449-.063-.108-.519-.646-.038-.773.648-.001.476-.507.05-.293.632.349.41.469-.058zm-19.357-12.614l-.299.195-.198.929.321.543.594.285.222.543-.297.65.445 2.294.494.759.759.161-.613.365-.811-.013-.715 1.314.407 1.632.074 1.146-.275 1.011.379.458-.051.801-.4.39.288 1.35.182 1.386.58.817-.211.807.412.583c-.095-.02 1.158-.13 1.158-.13l.788-1.002 1.162-1.081.703-.227-.043-.544.258-.659 2.103-.841.708.031.385.518.628.034.564-.693.493-.549.998-.124 1.577-.795.354-.638.654-.278 1.064-1.458-.054-.963-.808-1.519-.265-1.086.105-.77-1.144-1.155-.795-.269-.413.17-.542-.53-.902-.609-.816-1.203-.431-.21-.285.315-.563-.337-.046-.625-.474-.853-.539-.075-.313.726-.382-.16-.614-1.22-.421-.447-.126.41.454.849-.018.55-.666.335-.108.79-.444-.154-.202-.637.429-2.763-.759-.538-.776-.363-.973-.741-.569-.121-.615.562.024.818.722.708.447.888-.437.284-.653-.198-.195-.577-.472-.576-.331-.03.031.6.098.755zm.279 33.233l-.316.369.141.267h.933l.546-.518-.575-.28-.729.162zm-2.687 8.446l.352.49.783.147.571-.077.811.291.659-.018.42-.486.069-.322-.25-.132.236-.366-.074-.769-.673-.103-.525.324.044.446-.339.106-.375-.199-.204-.44-.319-.087-.465.416-.462.12-.606-.228-.5.489.178.374.669.024zm101.638 22.205l.254.39.451-.161.349-.897.05-.703-1.228.274-.299.194.037.761.386.142zm22.118-31.289l.939 1.369.814 1.956.302 1.848.693.563.543-.221.149-.98-.446-2.195.012-1.087-.608-.684-1.456-.428-.454-1.226-.6-.722-.438-.272.049.704.501 1.375zm12.375 22.327l-.96-.244-.836-1.109-.575-.28-.242.206.143.823.341.726.881.148.649.772.948.3.67.955.504.147.178-.557-.935-1.388-.766-.5zm-6.456-24.141l.473.576-.387.235-.571-.022-.025.866.59.304.199.835-.154.542.377.556.904.509.203.538-.239.286.313.483.443-.124.55.216.226.524-.658.296-.23-.227-.607-.13-.344.403.143.823 2.128 2.216 1.234.817 1.22.14.6.722.651.674.092.871.625.886 1.147.204 1.349-.189 1.062.325.707.685.773.005.522-.681.161-.759-.269-1.068.202-.67-.567-.041-.409-.503.053-.623.283-.396.391.4.232.585.737.454.198.656-.119.371.685.046.959-.965 1.108-1.39 1.683-1.109 1.028.02.88-.407.316.285-.452.538.811.291.55.494.741-.22.191-.712 1.412-.393.818-.58-.33-.407-1.102-.135-1.412.295-.966-.958-1.328-.659-.335-.666-1.005-.312-.063-.45-1.024-1.525-.58-.54-.052-1.437-.015-.677-.469-.873.011-.89-.796-.644.085-.398.519-.108-.297-.657.547-.24.306-.134.088-.694-.342-.35-.583-.62-1.545-.288-.935-.457-.614-.843-.911-.194-.804-.508-.318.19 1.034 1.39.624.33.264.532-1.025-.218-.23-.227-.683-.145-.588.529.011.973.289.973.016 1.232 1.047 1.61.149.606-.463.218-1.001-.053-.72-1.184-.164-1.283-.55-.493-.879.03-.474.178-.266-.335-.742-.335.128-.885-.124-.72-.811-.291-.708-.963-1.172-.368-.41-.404-.199-.835-1.007.163-.781.409-.204 1.244-.318.19-.147 1.158-.513.922-1.091.56-.204.492.719 1.659.524.052zm-70.492 30.623l1.968.914.885.406.418.366.676-.193.293-.631.494-.272.109-.512-.355-.57.26-1.412-.4-.64-.213-.957.075-.538-.594-.285-1.634.128-1.67.577-.786-.127-.293.353.061.925.595.562.026.72-.45.34-.766-.222-.204.214.298.559 1.207.296zm30.004 11.606l-.133.626 1.082.229.379-.197.329.13.111-.333-.419-.644-.725-.788-.637-.175-.452.26-.043.388.508.504zm-59.436-48.316l.018.38.847-.156.451-.816-.278-1.308-.811-.29-.401.112-.141.664.569 1.151-.254.263zm-98.974-23.819l-.421-.446-.537.005-.244.404.152.31.803.329.494.66.441.073 1.293-.3.192-.434-.415-.287-1.138.036-.62-.35zm370.053 214.691l.627-.897.802-.603 1.186-.541.443-.124-.034-.958-.215-1.136-.735-1.305-.442-.252-.533.362-.202.393-.39.155-1.279.977-.439.105-.662.691.482.063.839-.119.07.134-.403.687.002 1.388.304.718-.141.941-.492.451.051.506.575.934.242.171.098-.931-.233-.862.331-.345.129-.607.019.004zm-11.139-29.357l.107.895.462-.397.142-.485-.194-.299-.219.191-.298.095zm-8.344 110.43l-.283.118.075.392.352.491.439-.105-.024-.54-.559-.356zm-75.064-44.125l-.889.822-.034.626.511.585.64-.677.479-.017.407-.607-.137-.287.317-.468-1.294.023zm-2.583-6.514l-.255-.014-.587.43-.885.149-.183.674.221.642.332-.069.044-.208.307-.232.41.404.329-.148-.122-.64.424-.406-.035-.582zm2.776 4.672l-.12.47.206.618.274-.357.095-.634-.168-.234-.287.137zm1.046-4.177l-.188-.238h-.932l-.505-.424-.54.301-.389.71-.632.361-.133.626.427 1.26.29-.057.179-.378.322-.209.356.194.406.701.643.334.575-.373.348-.421-.188-.516.128-.508.571-.354.217-.37-.687-.126-.21.332-.515.187-.123-.263.455-.459.125-.31zm.579 4.839l-.375-.476-.155.166.012.319-.439.482.126.244.551-.259.28-.476zm77.352 33.256l-.312.628-.196 1.484-.291.81-.754.097-.64.677-.521-.071-.128.23.469.873-.133.626-.53.164.137.287.767.124.173.492.296.102.22-.944.251-.62.756-.196.635-.658.148-.88.255-.64.559-.297-.074-.868-1.087-1.42zm1.754-.598l-.689.349-.113.531.399.739.341.072.407-.33-.017-.756-.328-.605zm-5.075 11.565l-.225-.9.115-.729-.223-.166-.161.759-.439.758.422.724c.001-.099.511-.446.511-.446zm38.983-45.323l-.961-1.076-.139-.842-.766-.222-.517-1.299.064-.304.475-.275-.852-.28-.549.061-.57-.12-.76.591-.063.482.6.445.691.107.355.571-.121.291.598 1.197.584.243.537.926.386.142.397-.094.613.943.868.303.258-.282-.277-1.03-.851-.478zm40.085-119.322l-.73-.016-.828-.771.684-.608.658.636.687-.152.222-1.042-.826-.315-.539-.451-.586.331-.206.69-.194-.675-.997.025.381-1.048-.391-.678-.762.037-.198.651-.228-.603.185-.595 1-.224.038-1.299-.441-.352 1.117-.496-.386-1.172.262-.578-.899-1.182-1.068-.108-1.205.814.468-1.268.776-.291-.553-1.227.077-.736-.39-.123-.786.527-.281-.734-.562-.436-1.217-.061 1.038-.591 1.112.275 1.179-.601.188.515 1.076-1.238.998-.026.357-.657-.336-.844-1.79-.816 1.452.07 1.321.321.564-.416-.137-.94-.823-.611-.327-.981-.818.024.01-.513.533-1.016-.227-2.387.28-.475.588-.529.186-.595-.737-.454-.99.741-.811.363.187-1.07-.724-.233-.185.595-.557.099-.143-.446.375-.832-2.466-1-.634.183-1.166-.486-.576-.835-.029-.423-.7-.347-.446.044-.218-.561-.701-.248-.975 1.041-.856.016-.447.143-.513.268 1.044.222-.433.542-1.097.401-.429-.032.127.8.627.787-.358.281-.805-.409-.319-1.673.214-.45-.578.016-1.385 1.291-.869 1.104-1.003.52.059.468 1.267-.642.531.113.198.933.63.867 1.273 1.381.042 1.019-.707.524.026.719 1.145.025 1.184-.343.458.83-.119.748.268 1.444-.019.372-.594-.938-.249-1.163-.464-.336-.624.601.082.829.323.346-.189.238-.681-.343-.434-1.321-1.049-.381-.996.581-.589-.403-.077-.947.469-.337-.308-.977-.619-.825-.053-.962-1.342-.781-.821-2.671-.648-1.148.209-.333-.427-.605-.655-.278.16.37-.392.631-.308-.323-.187-.991-1.457-1.261-.944-.319-.894.008.054.586.632.57 1.455.904-1.232.194-1.313-.913-.598-.92.318-.566-.357-.374-1.316-.339.376.378-.093.436-1.226.076-.491-.956.335-.365-1.295-.533-.35.064-.018.829-.654-.377-.188-.793-1.204-.216.239.744-3.419-1.459-1.068.169-1.247-.76.075-.539-1.165-.584-.181.199-.131.428-.376-.377-.725-.412-.631-.768-.564.138.078.75-1.183-.311-1.102-.135-.426.603-1.24-.323-2.297-1.419.163-.302 1.33.837.678.54.214-.351-2.083-2.146-2.797-.931-1.302.06-.358-.373.568-.335-.564-.616-.906.065.232.307-.648.061-.856-.638-2.408-1.363-1.38-.135-.595.468-.559-.356-.286-.616-.869.172-1.529-.364-.589-.779-.589-.026-1.19-.095-.274-.296-.681.589-.331.623-.248-.885-3.525.163-.231.803-.717-.45-.638.856-.331-.031-.202-.637-1.204-.118-.128.786-.557-.178-.771.173-.947-.954-1.06.132-.223.586-1.89-.441-2.307-.252-.478-.458-1.943-.096-.238.187.976 1.099.246 1.459.431.489.066.905.36 1.385-.45.439-.192 1.089.467.139.9-.503 1.331 1.016.247.707.575.28 1.204 1.802.003 1.387 1.107.672.594 1.216-.215.549.138.564-.453.261.401.917-.414.269-.53-.311-1.1.42-.009.692-1.071-.089-.765.333-1.346-.484-.422-.625.193-.91-.983-2.19-.587-.224-.337.186-1.9-.86-1.293-.076-.499-.542-.914-1.581.251-.997-.63-.768-1.035-.359-.081-.552-.235-1.041-1.26-.604-.521.305-.292.909-.238 1.119.023.639-1.254 1.14-.546.796-.414-.663-.005-.536-.407-.047-.887.347-1.718-.504-1.616.232-.563-.338-1.305.634-1.267-.011-.654-.377-.669-.955-.562-.158-.353.261-.038.646-1.548.286-.907.441-1.706-.184-1.252.943-.319 1.597-.472 1.941 1.074 2.507-.038 1.3-.805-1.816-.672-1.035-.723-.054-.764-.698-.009.791.735.553.136 1.416-.063.482-.907-1.798-.759-.161.075-1.57-1.103-1.621-.393-1.233-.741-.058.067 1.361-.359.757-.166-1.086-.798-.724-1.171-.091-.186.595-.418-.644-1.139-.242-1.233.947-.997.026.778-.766.074-.816-.508-1.813.311-1.182-.287-.517.074-.816-.482-1.649-1.107-1.979-1.572-1.285-1.34-2.187-3.776-2.209-2.132-.512-1.027-.02-2.011.782-.168.321-.87-.383-1.65.204-3.466.908-1.218.039-1.634 1.06-.884.149-1.964 1.029-1.042.235-1.199.696-1.458.047-1.088-.667-1.846.004-1.324.353 1.112-.754 1.521-.529.343-.681-.883-1.634-1.998-.959-1.673-1.743-.557-.455-.414.269-1.171 1.495-.163.956-.209-.698-.477.097-.658.95-.676.193-.158-.47.569-1.088.5-.488-.158-1.123-.897-.726-1.199.697.031.601-.733.835-.381-.636.089-1.071-.289-.973-.118-1.313-1.035.672-1.444-.208-1.032.375-.555-.375.85-.454-.02-.836.23-.803-.099-.933.204-.214 1.272 1.479.811-.363.335-.92-.999-2.114-2.558-1.594-2.179-.76-2.562.11-2.302.006-1.688.85-.58 4.316-.336 1.117.153.865-1.078 1.059-.233 1.1-1.244.628-.703-.149-.291-.498.178-.557-.827-.869.716-.383.517.367.89-1.198.031-1.737-.781-.523-.217-1.592.521.349 1.015-.577-.147.88.646.97.227 1.455.347-.422.323-2.171-.096-1.605-3.042.503-2.497 1.015-.246.879-1.423.629-.707-.685.322-.585.763-.136-.653-1.129.906-1.65.82.53.469-.059.81.668 3.033-.644 1.154-.111-2.004-.466-1.236-.064-1.573-.532-3.58-.701-.897.304-4.894-.683-2.82-.54-1.8-.025-1.687-1.21-1.684-.1-1.296.22.677 1.293 1.423.302.729.492.825.036.641 1.187-.224.586-1.728 1.04-.845-.318-1.536.229-.398 1.124-.644.696.531 1.797 1.392.731.345-.878 1.062-.705 1.638-.148-.607 1.457-1.431-.265.451 1.146-.238.187.226.802-1.173.385.806.409.954-.194.295.756-.391.908.784 1.256.986.309.968 1.791-.389.71-.533-.569-.946.156.076 1.046-.573.176-.386-.518-.572.076-.148-.982-1.081-1.26-.675.094.296.757-.822.32-.42-.545-.601.309.178 1.028-.149 1.356.897.448 1.183-.343.56.912-.785.427.811.668-.889.445-1.07-.564-.031.429 1.035.914-1.86-.395-.263-.908-1.377-.333-.346-.985-.927-.494-.781-1.176-1.291-.274-.764-.698-.731-.016-.388-.321-3.054.56-.302.769-.43.344.497.74-.303.491.425 1.081-.2.195-.667-.875-.695.189-.66-.437-3.364-.319-1.505-.478-.679-1.194-.953-.46-.706-1.161-.287-1.171-.69-.483-.038.646.34 1.479-.221 2.252.649 2.734.45 2.176-.084 4.599-.429.9-.521-.071-.351-.867-.049-.704-.56-.912-.505.23.202.637-.397.471-1.174-.547-.901-1.638-1.953-.613-.62-1.281-.642-.434-2.186-3.06-.531-.113-.62.304-.702-.248-.27-.592 1.958-1.189.709.21-.489-.5-.886-.684-.747-1.15-.247-.052.134.583.617.924-.238.841-1.128.454-1.449-.744-1.291-1.483-.19-.694-1.573-.532-.137-.941-.621-.627 1.822.387 1.525.76.638.73.991-.186.996-1.136.038-.646-.725.143-.057-.666-.782-.146.55-1.191-.716-1.203-.665.236-.022-.738-.437-.37-.646.239-.457.378-1.288-.471.128-1.162 1.877-1.088-.004-.635-.675-.183-1.38.896.11-.987.771-.55-.091-.97-.343.026-.41.25-.062-.826-.775-.184-.208-.421-.498-.641.685-.984-.303-.441-.582.312-.764.888.077-1.668-.657-.833-.903.423-.489-.124-.077-1.225-.866.53-.407-.047-.317.467-.013-1.152.087-.596-1.139-.242-.55.16-.318-.463-1.31.098-.751-.2-.271.34.375.476.1.933-.522-.25-.424.128-.129.607-.219-.186-.974.012-.236-.289.509-.624.605-.328-.305-.897-.708-.309-.127.786-.578.293-.367-.791-.654-.377-.59-.958-.375.456h-.654l-1.09-.192-.218-.562-.316.646-.57.256-.802-.983-.681-.066.037.761.121.363-1.091.56-.346-.33-.028-.522-.602.685-.093 1.09.433.766.031.878.397.283-.097 1.109.89.387.284.714-.268.796.561.812.133.683-.704.702-.39-.221-.129-.702-1.207.081-.696-.366-.818.024.198.657-.663.691-.866-.124-.597-.365-2.031.599-2.67-.131-.937-.536-1.325-.301-.317.091-.673-.381-3.649-.934-.912-1.125-.14-1.674.741-.873.355-.083.198-.652-1.084-.686-1.261-.228-2.804.593-3.349-.573-2.905.136-1.795-.044-.471.534-.531-.113-.539.48-.981.327-1.296.775.31 1.156.567.318.733-.181.289.32-.55.536-.457.002-.932.654-.036.448-.262-.353.197-1.582-.911-1.126-.061-.647.323-.585-.727-.967-.549-.216-1.279-1.916-.417-.188-.07.52.976 1.754-.057.919-.863.61-1.636-.051-.641.22-1.081-.328-1.891-2.304.117-.828.587-.43.008-.692-1.239.232-.145.96-.71.543-1.222-1.25-1.208-.197-.965.528-.104 1.424-.866.807.382 1.191.818.63 1.427-.648.254-.54 1.726-.566.209.699-.288.89-1.787.849.341.726-.8.781-1.075.109-.783-.701-.03.33.251.965-.798.861-1.439.705.325.802-.563.317-.634-.096-1.459.8-1.521-.125-1.451-.169-.668.809.184 1.189 1.094 1.758.59.304-.629.064-1.108-.196-.406.509.117.381-.544.697-.948.631-.809-.112-.393.451.355-.737.796-.386 1.036-2.078-.484-.519.05-.703.453-.36.137-1.021-.152-1.241.636-1.034.925-.339.479-.671-.124-1.75-.146-.526.413-.448.566.041.295.201 1.204-.16 1.131-1.682.016-.73-.266-.987.916-1.887.835-.754.985-1.277-.183-1.287-.265-.056-.615.464-.672-.104-.884-.504.877.166 1.141-.61.816-.203.557-.753-.036-.484.591-.449.909-1.194-.14-.466.5-.765 1.149-.272.088-.694-.411-.682.028-.41.848-.91-.044-.822.468-.614.37-.06.87-1.202.38-1.604.018-1.483-.482-1.469.344-.403-.065-.628-.446-.233-.47.157-.486-.42-.262-.73-.247-.052-.656.852-.406.23-.387-.418-.284-1.091.219-.192-.338-.369-1.054-.362-.408-.88.223-.21 1.132.181 1.302.871.536.748.468-.336.33.03.237.566.018.48.314.106.228-.606-.498-1.017.07-.798-.381-.913-.459-.454-.335-.012-.515.188-.502-.345.022-.946-.962-1.354.149-.701-.509-.683-.296-.757-.565-.14-.784.33-.146.78.751.2.451.492-.226.408-.543.221-.167.6-.401.112-1.083-1.994.185-.594-.27-.97-.689-.304-2.749-2.467-.77-.48-.176-.295-1.869-.259-.007-.715.378-.375-.024-.54-.914.004-.273-.395-.894.008-.778.489-.264-.255-.904.522-.477.75-1.138-.241-.579-.262-1.278.878-1.5.058-.613.088-.335-.389-.607-.128-.425.226-.124.866.574.38.471.02.176 1.226-.204 1.523-.815 1.035-1.265-.209-1.177.78-1.694.037-.541-.254.823-.42.717-.105.296-.928-.652-1.882.824-1.074.207-.788.431-.443-.22-1.394.174-.816-.867-1.333-.745.238-.489-.5-.449-.036-.429.9-1.064-.127-.318-.464-.908.262-.955.947-.778-.165.072-.62.788-.723.087-.596-.56-.258-1.774 1.724-2.078.35-.624-.33.897-.959.952.005 1.178-1.157-.058-.944.571-.632.118-.37.925-.34-.022-.36-1.203-.593-.242-.448.159-1.215-.352-.213-1.302.714-1.098-.431-.183-1.288-.729-.115-.967.627-.76-1.37-.561-.16-1.39.756-.339.661-.808.066.351.967-.948.63-.484 1.344.11 1.074-1.114.853-.95 3.821.812 1.124-.209.986-.759-.161-.081 1.033.565 1.17.828.117.687 1.434 1.086.488-1.365.542.166 1.086-.132.626 1.49.455 1.132-.196 1.178.805 1.308.377.214.581-.811.363-.689-.305-.646-.038-.897-.726-2.063.374-.489-.5-.889.168-.776-.363-.759-.161-.702.505-1.7-.401-.729.538.083.355.794.466.04.742 1.028.02.431.488.994-.383.564 1.269.922.889.586 1.908-1.183 1.552-1.297.319 1.109-1.766-.366-.613.254-1.194-1.27-.37-.275-.295.075-.54-.434-.29-.879.31-1.094-.174-1.142.709.823.512-.583.41-.903-.23.421.822-.261.48-1.427.648.038-.924-.322-.167-.708.345.133.96-.515.841-.703-.149.122-1.322-.495-.937-.262.3.021.838-1.025 1.09-.577 1.126-.759-.816.109-.511 1.269-1.772-.201-.736-.879-.345-2.37.328-.756-.457-1.385.637-.689-.305-.62-.627-1.095-.075.759 1.093-.759.493-.252-.212-.045-.446-.294-.2-.503.685-.543.222-.424 1.812.403.62 1.151-.746.373.575 1.609-.57.484.242-.363.775-2.645.409-.584.787-1.135.393-1.882-.102-.274.635.214.58-1.492.02-.691-.483-.456.002-.389.71-.523.127-1.154.111-.423.406.359.83-.346-.054-.408.706-.484.134-.259-.649-.323-.069-1.039.969.045.445-.354.262-.165.777-1.009.737-.028.787-1.117.12-1.435-.246-.938.494-.211.808.618.17.538-.48 1.854.89-.569.533-.822-.334-.258.282.517.645-.506 1.637-.872.37.023.638-.302.769-.637-1.483-.807.066-.612-1.418-.579-.262-.258.282.423.625-.105.77-.587.43.35.967.897-.206 1.24.7.921.334-.018.828.683.8.846-.059.485-.135.214.58-.947.256-1.014-.176-.644-.89-.527.146-.274.635-.478.196.738 1.385.724-.143 1.398.237.176 1.227.423.525.527-.423 1.278.331-.4.668 1.023 1.07 1.006.213.353 1.324-.929 1.388-1.884.65-.858.769-.082.577 1.136 1.747.822.611-1.545-.289-1.433-1.751.155-.918 1.16-1.537.754-.375.038-.646.66-.771-.213-.402-3.165.616-1.639.246-.65.912-1.095.204-.747-.496-1.054.014-1.418.789-3.434.479-2.386.028-1.006-.213-1.265.821-1.185-.212-.735.379.826.968-.231.902-.428.8.399.64.657.179.081.553-.456.557 1.295 1.186.66 2.122-.409 1.459.193.774.379.081-.09 1.17 1.027 1.05 1.007.115 2.837.741 1.139-.412-.133.626.231.782-.264 1.054 1.131.934.418 1.297 2.171.521 1.241 1.254.569.121.641 1.187-.228 2.191.1.932-.433.919.669 1.331.695.742.922 2.198.098 1.963.926 1.247.141.921-1.336 1.619-.532-.014-.612-.388.535 1.402 1.395.435.688.78 1.201 1.999 1.314.914.184-.12.578.361 1.573-.776 1.4.04 1.353 1.377 1.051.659.751.2.286 1.17-.164 1.709-.072-1.62-.492-.957-1.252-.266-1.501-1.805-.919-.155-1.535 1.061-.283 1.148.023.639-1.304-2.08-1.7-.401-.762-.895.246-.879-.567-1.25-1.222-.596-1.345-.207-1.285-1.323.448-.242.205-.967.65-.258-.087-.712.282-1.981-.206-1.55-.564-.615-.756 1.226-.679.113-.053 1-.646.517.126.621-.428.801-.543-.056.176-2.698.722-.599.107-.968-1.118-1.367.256-1.393-.33-1.061.272-1.091 1.386-.459.171-.617.022-.848.541-1.431-.947-.3-.362.022-.493-.758-1.995.705-2.27-.145-1.184-.311-1.352-2.13-.84-.714-.017-.855-2.369-.801-.894-.923-.781-1.275-2.915-.56-.736-.553-1.07.367-1.34 1.36-.296.928-.543.222-.357-.373-.337.463.403.72 1.575-.597 1.456.706.437 1.678-1.265 1.475-1.229-.003-1.733-1.181-.857-1.569-.626-.133-1.358.603-.48.393-.656.099.85 2.162.5.166.082 1.107 1.177 1.558 1.365.389.645.791 2.018.587.633-.46.368.138.01.696 1.424.302.212 1.333.492.303.054.864 1.676.514.83-.359-.754.653-1.787-.083-.968-.859-.777-.264-.873-1.494-.681-.342-.866.251-.969-.106-.949.729-.144-.724-.646-.692-.85.176-1.481-.314-.985-.963-1.047-.024-.276-.752.83-.359.129-.607-.593-.759.149-.702-1.038-1.37-.3-1.015.601-.962-.422-1.279.481-1.8-.725-1.066.187-1.347-.287-.517-.537-.272.044-1.141-1.015-1.107-.6.21 1.048 3.75.057 2.35-.824 1.728-1.727 1.317-1.078.683-.062.482.497.74-.027 1.341-.912 1.491-.184 1.051 1.386 1.226 1.571 2.038.153 1.241 1.081.23.706 1.16.397 1.868-.823 2.659-.449.994.634 1.681-.546 1.826.307 1.076 1.229 1.965-.057.919-.358 1.034.315.662 1.105.591 1.394-.497 1.38.789.67-.353.526-1.077 1.228-.83.975.545.774-.094 1.329 1.214.941-.137.311 1.057 1.82 1.239 1.431.264.683 1.453-.084.676 1.1.986.143.724.207.242.049.704.487.599-.785.428-.864.054-.389 1.364.353 1.324.444.431-.433.641.332.863.957.164.37.871 1.196.254.856-.947.151.686.865-.054.521.348-.535.184-.385.413-1.281-.133-.751.078-1.191.005-.935-1.011-.994-.271-.425-1.081.498-.29.07-1.076-.573-1.132-.026-.996-.621-.628.366-.972-.781-1.553-.38-.081-.209-.698-1.206-.95.242-1.138-1.055-1.571-1.151-.185-2.054 1.268-1.133-.083-.874.845-1.504.731-.375 2.417.36.83 1.513 1.372.623 3.322-.294.731-1.773 2.001-.522 1.336.459 1.385-1.136 1.8-.256.738-1.422.907-.186.595-.878.209-.684.608-.222 1.043.384.716-.135.823-1.406.454-1.541-.684-.192-.496-1.45-.269-1.59-.08-1.248-.661-2.985-1.169-.879-1.277-.206-.896-1.343-.028-.644.696-.216-.383-.549-.216.841-.97 1.254.167 2.44.182.531-.443 1.668 1.484.619.072.341-.482.892.189-.171.618-1.402.436.657.833 1.557.231.799-.682.962-.232.038-.646-.653-1.129.121-.569.935.734.493-.45.423-1.714 1.108-.359-.032-.502-.659.018-.117-.381 1.012-.281.42-1.793-.241-.547.719-.58.031-.429.9-.503.141-1.317-.747-1.15-.197-1.687.469-1.089.232-.902.385.24.141-.663-.991-1.499-.579-.262-.42-.822-1.236-.718-1.215-2.498.033-1.836-.382-.537.59-.627-.78-.721-.319-1.019.557-1.031-.888-2.17.266-1.252-.683-1.175.376-.554.158-.561-.549-.87.221-2.628-.35-.966-.857-.915-.007-1.647-.364-.434-.781.131.048-.227-.908-.49-.339-1.202-.719-1.005-.113-1.054.554-.18.392-.729-.23-.782.31-.529-.295-.756.863-2.195-.258-1.402.277-1.487-.336-.567.209-.986-.33-1.061.725-.143-.162-.827-.813-.371-1.15-.284-2.273-1.533-.979-.247-.563.316-.648-.494-.713-.192-1.157.31-1.185-.212-1.037.215-.212-.402.365-.318-.611-.487-.704.049-.234 1.753-.549 1.37.52 1.101-.353.262-.744 1.447.404.621-.244.959.152.686-.464.595-.171 1.272.421 1.1-.791.922-.074.816.158 1.124-.355.459-1.044.433-1.926 1.969-.65.258.003.734.358.928-.627.62-.427 1.355.804 1.162.604-.228.457.652.285 1.646.937.258.61.863-.575-.281-.777.667-.127 1.063 1.06 1.177-.202.948-.793.465-.477-.557-.132.626.3 1.947.506.701-.018 1.483.54-.579.65.673.979.248.763.796 1.031-.93.348.509-.315 1.479.458.93.454.195 1.281 2.373.802.428.715-.284.778.165.06.37.771.104-.815.382-.437 2.245-.368.517.38 1.012-.282.396-.52-.071-.018 1.205-.17.518-.833-.375-.592-2.067-.957-1.096-1.239-.52-.281-1.289-.72-.906-2.161-.657-2.015-1.815-1.345-.484.017-.828-.614-.19-.569-.775-1.288.182-.947.532-.224-.999.378-.375-.107-.618-2.448-1.55-1.022-1.069-3.956-1.079-3.244-.233-.744-.415-.845-.041-.601-.623-.382.117-.67-.301-.594.369.209.976-.149.702-.941.136-.073.342.406 1.077.501.443.114 1.61.269.79.305-.688.5.165.416 1.496-.066.778.896.448.877 1.475-1.06-.424-.307-.422-.639-.076-.635 1.312-.91.361-1.03-.753-.685.33-.211.431.648 1.247.239.368-.128.508-.541.4-2.086-.542-.365-.712.308-.608-.221-.919.816-.481.077-.459-.661-.993-.593-.383.779-.588-.091-.316-.695.189-.445-.055-1.33.847-.674-.004-.923.517-.172.439-1.064-.127-.541.4-.113.531-.746.337-1.803-.383-.559-.356-.424.127-.542-.154-.413-.484-1.246.448-.32.388-.883-.049-.867.629-.061.383.514.565-.317.468.066.529-.338.285-.575-.657-.24-.646-.429-.032-1.087.82-.635.935.21-.986-.805-.508-.669.255-.546-.136-.583.034-.674-.281-.026-.719 1.028-.634.843.139.466-.515-.384-.993.258-.282.596-.191-.759-1.092-.527.145-.541-.253-.2-.459 1.69-.394.634.095.924-.24-.083-.354-1.548-.091-2.315.439-.777.39.223.444.082.83.199.557-.585.51-.544.043-.601-.999.369-.338.321-.11-.02-.559-.266-.057-1.859 1.19-.024.392.489.777.446.333-.22.567-1.17.743-.387-.419.409-.429-.015-.677-.296-.102.038-.646-1.722.169-.321.487-1.252.289-.874-.364-.55.16-.101.474-2.151 1.723-.503.032-1.94 1.57-.782.23-.498-.74-.398-.085.168.888.928 1.049.057.666-1.239-.798-.443.402-2.299-.192-.505.23.457.929-.123.767-.733.835.114 1.332-.474.831-1.622.349-.32.388-.892-.19-.488.432-.32-1.019-1.27.562-.759-.161-1.206-2.535-1.421-1.808-.54-.452.32-1.22.328-.426.384.34.47-.535-.032-.502.51-.347 1.3.236.5-.488 1.472.352.285-.593-.844-1.725-.01-.696-.922-.334-.651-1.229.2-.75-.904-.886-2.19-.703-1.566-.194-.737.201-1.014-.176-1.466-1.501-.95-.201-.054.444 1.695 2.104 1.015 1.107.251 1.897-.201.948.316.661-.402.212-.208.788.061.647-.375.178-.402 1.896-.553 1.013.12 1.115 1.246.205.798.725.467.792-.24.385.03.601-.24.385-.063.482.32.365-.414.547-.37 1.923-.442.401.336 1.221-.19 1.545-.43-.587-.101-1.111-.875-1.018-1.207.734.318-.844-.316-.662-1.258-.425-1.228-.103-.675-.837-1.011-.373-.662.315-1.376 1.808-1.581.814-1.008-.016-.844.514-.476 1.029-1.173 1.039-1.332.668-.248.7.175 1.325 1.42 2.284.754 1.864-.78.588-.634-.096-.152.9-.85.453-.585.609-.875-1.296-2.391-1.815-.891-.289-.172-.591-1.43-.363-.627-.787-.384-.994-1.11-.473-.815-.827-.957-.164-.303.491.134.583-.29.434.192.496-.644.418-.804-.23.365 1.267.035.958 1.026.773.511 1.139.897.726.851-.176.466.138.765-.332-.046.683.839.535-.03.331-.374.356.51.683-.335 1.296-.542.123-.695-.088-1.098.777-.491-.302-.595-.84-1.188-.292-.434-.568-1.306-.297-.315-.384.123-1.044-.625-.608-.404-.899-.315-.106-.91.46-1.542-.961-.235-.763-.31-.502.483-.591.054-1 .169-.796-.687-.78.187-.694-.905-1.341.144-.96-.624-.331.305-.688.675-.095.414-1.299.117-.827-.265-.156.178-.556.393-.452-.416-.187-.641-1.464-1.733-1.181-.593.271-.325-.525-.664-.141-.394.174-.955-.362.443-.401.844.04.36-.577-.868-.204.052-.247.66-.117-.481-.538-.65.258-1.42.055-.141-.268.488-.431.905-.244-.187-.337-1.196-.531-.095-.674-.854-.836.064-1.235-.763-.796.242-.206.767.123.176.295 1.043.321-.018.828 1.489 1.862.557.178.213-.252.725.788 1.347.286.224-.309.403.72-.585.232.27.315-.1.474.808.212.468-.337 1.32.32-.382.117.701.248.845.041-.147.504.83 1.227.72-.303.653.376.063.45 1.135.26.639.354.7-.307.838.911 1.282.689 2.382.645 1.946.175.319-.289 1.234.262.708-.345 1.4.04 1.267-.365 2.03-1.808.273-.536 1.157-.964.12-.568.418-.566.452-1.192.171-.994.184-1.051-.254-.391-.343.027-.443-1.184-.425-.427-.063-1.104-.699-1.099-.689-.305-.27.339-.856-.638.207-.511-1.42-1.53.222-.765-.702-1.081-.437-.093.101.458.455 1.127-.66.117-.842-1.17-.652-.198-.962-1.353-.418-.089-.072.341.05.507-.593-.285-.662-1.647-.745-.416-.458-.83-2.463-2.505-3.768-3.178-.88-.623-.205.313-.76-.716-.957-.442.006.438-.699.208-.747-.496-1.184-.311-.378-.833-.706-.507-.086.22.307.699-.213.351-.48-.538-.875-.086-.39.253.038.564-.604.882-.893-.091.678-.668.58-.214-.212-.402-.626-.133.253-.441.296-.274-.302-.263-.46.299-.891.742.113-.531.163-.302-.175-.295-.466.417-.24.008.053-.623-.63-.392-.824.42-.051-.784-.275-.296-.686.429-.07-.788.212-.906.561-.495-.07.52.489.778.996.073.566.417.842-.415.036-.449-.425-.427-.149-.329-.57-.398-.39.254-.357-.472-.307-.7-.75-.575-.782-.245-.227.229.184.534.23.129-.068.322-.517.009-.455-.196-.087.319.597.642-.4.113-.535-.193-.44.481-.335 1.019-.252-.589.193-.811-.274-.395-.867-.303-.023.015-.144.861-.649.536-.782-.523-.714-.092-.159 1.215-.83.735-1.034-.081-1.346.824-.333 1.475-.528-.033-.008.038-1.194.202-.765.333.616.369-.404 1.063-.602 1.339.425.803.318 2.049.55.216 1.005.868.42 1.1.158.846L40 141.571l.412.583-.66 1.148-1.125 1.188-1.122 1.823.758 1.29.11 1.252 1.04 3.511.942 4.718-.796.009-.742 2.657-.116.728.772.382-.73.638-.294 1.384.405.799.989.389.195.854-.407.329-.27 1.548.25 1.064 1.068 1.138-.167 1.253-1.008.915-.584 1.164 1.345 3.1 1.005.59 1.364 2.45-.004 1.326-1.828 2.723-2.294 2.486-1.312 1.881-1.547 1.494-1.538 1.735-1.088.264-2.308 1.432-.09 1.17.02.004c.1-.098.177-.18.238-.187.202-.017 1.31-.376 1.31-.376l.943.042-.717.383.172.591-.153.721-.75-.952-.264.498.738 1.287.975.266.362.909.949.202.412-.071.664.141.5 1.196-.646.517-1.145-.679-.552.081-.381.672-1.167.544-.707-.685-.555.279-.117.827-.811.085-.193-.774-.407.052-.101.474.246.707-.459.853.003.08.243.725.029.145-.17.242-.823.697-.538 1.134-.567.236-.968 3.064 1.176 3.896-.177.835-.785.427-.052.802-.823.796.81.291-.039.745-.255.362.292.399.102.735-.23.525.313 1.137.181.455.202 1.291.404.899-.098 1.207.358-.003.62.627 1.028-.356.553 1.505 1.126-.257.887.308.484 1.549 1.259-.604 1.272-.107.346.708.607.129 1.662 1.046.041 1.02-.533 1.016.544.988-.27 1.27.75 1.229.233 1.239.764 1.728.706.784.066 1.461 1.31.654 1.261 1.715-.05.801.928.951-.563.316-1.13 1.207-2.227-.156-.734-1.028-.502.587-.16 1.036.553 1.505-.355 1.113.738 1.286-.226 1.062.632.293 1.012-.003.09-.892.748-.436 1.924 1.122 2.144.456 1.165-.348.956.263.22 2.048.72.906-.673.828.82 1.74 2.385.17.682.898-.072.896.754.279-.242 1.138.17 1.443 1.507 2.242.937-.673 1.043.876 1.024-.06.871.383 1.634-.783.685.047.495 2.245 1.117 1.09.225.9.69-.448 1.431.641 1.093.271.677.64.925.037.94.894 1.2.512.76-.492.155 1.043.5.444-.199 1.126-.88.784-.914.005-.648 1.744 1.018 1.089-.064 1.234-.838 1.427-.07 1.076-.88.407-2.036-.313-1.198 1.251-.584.134-.645 1.824.01.042.184-.02.821.333 1.044-.432 1.133.082.154.488-.36.578-2.433.712-1.044.432.33.506.53.113-.66.493-.965-.403-1.464-.113.308 1.354.478.736.517-.287.136.485.801.428-.072.341-.56.02-.45.439-.55-.216-.41.25-.068.322-1.062.706-.182.853.357.373-.443 1.155-.788-.306-.218.092-.556-.653-.862-.421-.119.371.194.675-.687.152-.67.353.94.338.483.063.937 1.19-.076.638.71 1.141 1.565.194 1.408 1.31 1.04.518 2.261 2.522.318 1.117.707.408.138.564.543.71.656.179.126.622.729.491.436.093.455 1.127.788.306.37.316.496-.191.889 1.14-.056.543.977.346.58 1.57.379.734-.139 1.774.44 1.481-.386.413.037.761-.15.146-.004.019.5.166.01.795.442.252.507-.427.993.647.533.014.716-.383.647.316 1.432 1.85.719.351.06.092 1.383-.162 1.948-.022.526.23 2.366.443.82 1.185-.64-.909.224-.685 1.685-.276 2.072 1.827 1.544.387 1.334 1.096.565-1.445-.43-.964-.941-.893.736-1.409 1.171.367 1.626 1.872.333 1.14 1.876.597.514-.644 1.336-.409 1.767-1.408.054-.068-.323-.346-1.838-2.273-1.149-2.246-.012-1.251-.473-.854.159-1.214-.126-.621-.017-.48-.57-.121.248-.7.377.278.374-.733.468-.614-.483-.063-.502.31-.839-.813.294-1.384-.725-.412-.39-.776-.545.043-.663-.24-.093-1.526.427-.702.524-.225.326-1.536.464-.595.45-.816.52-.207.369-.893.52-.583.151-.522.385.24.33.407.363-.121.272-.438.269.414.467-.238.55.117.658-.296-.041-.365-.559-.357.407.047s.229.227.343.251c.095.02.681-.034.681-.034l.314.483.36-.201-.07-.51-1.046-.955.574.003.715.37.328-.05.628.312.105-.493-.343-.35.464.059.082-.478-.292-.399.65.019.131-.428.106-.314.038.008.004-.019-.884-.882-1.158.131-1.32-1.351.24-.662 1.594.339-1.089-3.184-1.534-2.209-2.534-1.331-.455.557-1.106-1.423.399-.57-.472-1.328-1.567-1.027.932-1.308.909-2.502-.494-.759.227-2.092.9-.225 1.414-1.146.222-1.043.772-.648 1.794 2.481.104.815 1.088 1.044 1.314.16.125-1.242.601-.308-.259-3.543 1.323.123 1.347.286.21-.986-.446-.888.471-.91 1.399-.515.577.083.636-1.034.727-.341.821.431.275-.734-.048-.803.326-.505 1.08.983.899.626-.227.507-.714.562.328.506.875-.29.342-.582.646-.239-.115.729.652-.456.223-.488.836.079 1.002-.422.767.124.218 1.215.797.823 1.6-.155.675.183.285.714.466.139.605 1.258.892.19.479 1.013.992 1.122.652.198.202.637-.149.979.442.253.724-.698.127-1.063.916-.301.397.936 1.541.585.31.878.608.407 1.19-.56.425-1.534.893.09.222-.765.709-.067.341.726.506-.606 1 .054.958 1.373.15.507 1.201.136.065-1.056.709-.067.91.292.576-.472.874.741.543.432-.387.512-.694.19.61 1.14.707.408.413-.17.501.443 1.265.209 1.307 1.13.966.027.603-.784.23-.803.502-.309 1.125 1.051 1.153.364 1.505-.176.544-.598.488-3.324-.335-.388-1.225-.3-.645-.791-.055-.488-.886-.406-.453-.67-.986-.21.055-.543-.157-.568.203-.393.779.066.337-.84.788-.625-.004-1.012-.606-.228.137-.922 1.216-1.148 1.153-.667 1.786.181.631.392.543-.222.215-.826-.764-.42-.523-.804-.672-.104-.597.29-.759-.538-1.036-.26.022-.57.429-.245 1.128.2-.133-.96-1.076-.07-.696-.366.487-.333-.246-1.082.36-.201.904.132.526-.423.6.167.169.512.992.091.642.712.411-.349.109-.512.818-.302.751.199.313.86.516-.466.224-.586 1.539-.149.988.111 1.152-.29 1.121.139.285-.316 1.265-.445 1.033.18.761-.314.619.072.517.367.387-.234.148-.881.563-.316.892.189.23-.525.629-.342.366.514.584.242.874-.289.995-.106 2.018-.82.399.085.455-.181 1.027.02.731-.638.518.269 1.153-.013.091-.614-.266-.711.508-.15 1.132.181.42-.762.847-.256.493.203.67-.075.937.635 1.162.128.865.877.991.191.996-.205.838.257.124 1.097.266.334.122.918.417.841.486.42-.006.495-.362.676.006.813-.107.315-.685.052.214.858.417.465 1.028-.356.532.668.511-.07.321-.764.58-.115.088.891.513.109.232-.625-.146-.902.306-.134 1.202 1.346-.115 1.382.329 1.16.501.067.744-.516-.43-.309-.127-.523.951.004 1.396 1.089.55.117.735-.379.418.367-.515.742-.609.347-.248 1.076.393.857.577.083.6-.487 1.001-.045 1.585.753.343.35.588-.252.031-.984.839-.119 1.25.087.891-.365.495-.648.735-.379.209-.61 1.123-.712.717-.106.786-.526.944-.057 1.136-.116.414.385-.195.732-.864.609-.7.03.19.694 6.3 7.224 7.51 14.971 1.061.048.776-.291.276-.457-.169-.234.156-.918.714-.186 1.074.823-.234.545-.045.585.896.448.475.755.736.176.65-.258.726.035.938.814.977-.209.67.301.884-.149.289-.335-.173-.493.245-.404 1.426.105 1.48.315 1.203.592 1.04 1.172.426 1.359.231 1.06.39.122.821.432.835.831.304.065.546.413-.062.483-.237.365-.122.668.111.598.314.483.146.249.383.062.763.518.562.437.308-.331.741-.219 2.002.286.948-.076.571-.631.912-.282.412.305-.579.948.102.735.575.28.757 1.013 1.145.679.156.291.513.109.77.481.361.076.001-.098.991-1.395.843-.237 1.897.502.354-.361.887-.624 1.429-.192.234-.822.481-.77 1.19-.282.159-.561.824-.518.72-.026.742-.694.43-.246-.387-.419.09-.615.343-.304 1.301.693.633-.183.647-.992.721-.124 1.517.144.86-.035.691.107.956.262.711-.265.201.082.367.792-.006.494.366.613.885.128.488-.055.747.219.715-.285 1.348.188.125.72.007.715.13.602 1.8 1.611.645.791 1.354 1.001.615-.186.9-.126 1.033-.474.741.058.734.374.529.588.709-.068 1.795.421.634.472.798.07.234-.168.746.317 1.444.109 1.044-1.086-.346-.609-.715-.746.308-1.263.533-1.293-.035-.582-.722-.431-.3-.639-1.166-.584-.086-1.089.473-2.039 1.041-.79.133-.626.562-.594.736-.101.385.24.449-.618-.098-.754.251-.62.632-.361.808.211.47.496 1.04.518 1.007.769.091.317.9.528 1.024.316 1.507.281.489.5.318.464 1.038.34.528.409.697.267 1.777.318.608.406.163.729-.117.549.297.658-.129.607.302.539.22 1.018-.199.751.424.526.504.146.674.936.15.508 1.157.622 1.131.934.58.163.364-.22 1.259.327.654-.277.619.171.472.298.586-.054.887-.624 1.276-.125 1.675.237.963-.331 1.09.192 1.108-.082.817.729 1.21.376 1.621.305.581 1.371 1.36.884 1.203.216.918-.023.333.487.173 1.424.714.746.448.412.527.231.556.93.618.171 1.934.233 1.55.825 2.495.49 1.076.07.486-.234.93.198.689.582.487.044.881-.883 1.746-.56.96.243.829-.636.704.05 1.908.445.977-.585.439-.759.077-.36.69-.725.957-.213.74-.497.508-.803.755-.474.722.153.213.303 1.302-.06.758.26.854.835.321.822.574.379.867-.252.349.411.767.124 1.047-.353.127-.409 1.437.048 1.456.805.31.501.507-.05.568.219.072.313.787.028 1.179.429.498.641.491.025 2.391-1.454 1.09-.462 1.556.053.778-.488.416-.744.011-.89-.283-.258-.375.178-.251-.311-.401-.165.169-1.172.301-.293.238-1.218-.146-.804.252-.442.55-.16.26-.758-.384-.616.06-.939.248-.422-.272-.772.202-.67.652-.734.601-.308.376-.931.723-.698.597-.289.267-.974-.081-.553.133-.625-.511-.584-.157-.846-.398-1.115-.489-.223-.621.126-1.051.371-.405-.146-.198-.378.218-1.024.342-.304.089-.417.411-.349.412-.725.76-.591.109-.512.54-.302 1.106.116.549-.062.558.079.184-.119.595.186.683-.133.456-.557.721.153.587-.43.86.342.532.014.865.223.429-.246.323.069.38-.574 1.227.103.233-.07.451.215.652.198.481.538 1.304.396.435.568.075.392.968.206.59-.073.21.322.682.522.355-.083.052-.524.451-.162.328.228.608.129.335-.087.336.567.43.031.506.326.185.436-.206.411.044.446.47.12.122.362.49-.252.545.234.048.427-.312.35.113.4.643.335.411.028.228.326-.066.402.35.312.184.534-.082.577.104.538-.085.398.114.302 1.051.282.013.498-.363.498-.002.475.828.771.193.774.375.753.023.639.373.297.117.758.447.512-.115.352-.214.45.218.185.439-.105.262.729-.014.532.571 1.231 1.294 1.286.101.834-.026.866.248.33-.121.847.418.366.436.191.018.757-.216.549.282.912.725 1.164.63.392.191.596.531.211.449-.063.366.335.362-.121.849.3.532-.264.57.121-.045.209-.399.291.214.303.909.293.374.297.197.379.444.431.182-.298.454-.082.412.206.276-.456.429.031.258.372.071.511.331.585.444.154.029.422.36.453.232.03.295.479.029.422.826.592.169.234.39.122.349.411.546.235.464-.04.502.067.505-.23.339-.007.29.22-.212.53-.469.435-.083.577-.025.49.711.111.013.776.102.735-.298.749-.242.207-.129.606.588 1.156.312.304.487.975.12.462.686-.053.635-.281.584.144.263.63.092.594.552-.08.414-.269.556.277.431-.067 1.221.041.632-.361.477-.097.04-.467.355-.737.611-.168.141-.663.375-.555.548.037.835.178.405-.786.456-.002.446-.044.247-.602.559-.297.703.05.506-.328.733.472.379.457.675.183.15.508.257.847-.503.31.064.449.522.903-.034.627.31.502.448.412-.375.832-.191.713-.24.286-.65-.019-.718.58-.081.379.252.589.145.249-.206.689-.375.555.166.431.327.327-.139.466.13.325-.031.33-.23.15-.29.057-.152.998.141.922.135.484-.068.323-.463.218-.288.514.173.493-.1.474.124.442-.63.164-.166.222.158.469-.004.673-.33.247-.538.758.013.498.059.469-.22.29-.036.448.146.526-.019.65-.407.33-.475-.101-.37-.217-2.556-1.039-.468-.317-.628-.312-.339.007-1.028 1.011-.292.532-.511.446-.482-.062-.581.213-.252.343.155.766.665 1.727.057.666.156.568.402.818-.199.751-.119 1.025-.054.722-.302 1.422.398.461-.1.751-.123.767-.294.354-.155.541.026.442-.172.716-.301.016-.963-.324-.535.184-.106.314-.02.749.278.277-.101.474-.263.4-.023.015.561.813.052.129.261.076.547-1.172 1.103.036.261.452.636-1.312.612-.266.417-1.497.888-.445.123-.767.339-.383.772.758 1.098-.223.386.518-.219 1.499 1.218.616 1.117 1.089.575-.373.4.64 1.158-.785 1.198.057.273-.537.615.091.852-.928 1.748-1.413-.154-.488 1.06-.231.21-.986-.138-.94.586.322.009.24 1.262-1.179-.248-.885.464-.04.179-1.309.848-.256.219-.845 1.3-.517.241-.385-.274-.395.362-.953.535-.184 1.535-3.399 1.088-.919.218-.746 1.015-.577.399-.946 1.268-1.018.238-.842-.389-.221-.052-1.16 1.082-.702-.042-1.951.906-.719.076-.638-.329-.129.893-1.217.192-1.089.958-.589.357-1.213-.2-.181.142-1.416.814-1.215.348-1.174 1.466-1.016.177-1.112-.249-.885.209-1.264.353-.262.248-.977-.639-.077.143-2.07.207-.511-.164-.629.43-1.554-.884-1.535-.38-.081-.264-.809.422-.306.856-.948-.014-.4-.872.37-.636-.274-.27-2.93.187-.694-.004-.635.174-1.568.406-.508-.242-2.132.642-.498-.377-.377.279-.377.178-.557-.282-.357.618-.761-.188-.793.223-.586.601-.309-.569-.774.081-1.034.48-.393.001-.753-.632.361-.662-.338-.701-.902.232-.902.595-.468.104-.771-.799-1.656-.615-.091-.623-1.083.642-.221.206-.689.586-.609-.421-1.476-.501-.067-.391-.777-.659-.259-.111-.598-1.662-1.047-.296-.657-1.107-.394-.421-.446-.261-1.106-.49-.679-.952-.281-.784-.979-1.125.534-.817-.075-.45.44-.475-.101-.242-.448.138-.367-.682-.62-.824-.136.097 1.507.537.927-.495.648.157 1.499-.564 1.07-.604.228.165-1.055.373-1.011-.271-1.246-.451.538-.022.848-.607 1.179-1.097.401-1.92-.111-.166-.432.797-.484.474.101.159-1.215.513-.545.414-.269-.891-.288-.567.335-.222-.543-.618.107-.552.735-.585.232-.216-.105-.718.581-.87-1.136.377-1.03-.067-1.362-.683-1.453.455-2.142-.963.053-.36-.176-.784.329-.674.095-1.205.536-.804-.23-.57-.775-.861.134-.67-.677-.29-.874.575-.651.413-.824 1.067-1.101.133-.626 1.387-.834.351-1.373 1.474-.776.263-1.054.431-.067.036-.448 1.059-1.063.353-.916.801-.781-.14-1.021.393-.451.265-1.529.902-1.91.322.069.554-1.487.737-.201.004-.95 1.432-1.142.363-1.053.945-.433-.173-1.523.486-.234.248-.978.6-.209.371.118.155-.918-.246-.706.403-1.619-.025-1.095.889-1.198 1.528-1.122.627-1.552-.727-1.898.353-.916.95-.551.417-.843 1.76-.815.401-.767.543.056.441.728.905.034 1.688-.851 1.246.206 1.395-.497.842.239.982-.426.714.191.741.059.512-.545.621.627-.535.837.559.357.606.882.591-.727.785-.428-1.003-1.164.097-.455 1.058-.31 1.565.57.79-.268 1.688.458.156.667.418.089.583-.412.606.228-.079-.75.593-.27 1.336.343.42.823 1.746-.283.133-.626-.452-.393-.402.211-.893-.744.836-.853.061.647 1.296-.22-.952-.935.151-.523.539.075 1.383-1.094 1.184.311.525.607.737-.2 1.4.694 1.159.147-.184.397.451.492.564-.039-.213-.679 1.245.205 1.148.481.739.257.649.772-.024.391 1.004.411.87-.548.636.274.081.552-1.672.774-1.29-.274-.416.368-.086.873-.702-.149-.316.369.293.3.664.141.779 1.751.43-.345 1.352-.109.68-.589-.121-.362.943-.236-.441-1.005.512.109.818 1.283.588.224.492-.45-.299-.46.635-.281.515-.466.247.053.21-.709-.035-.582.618-.106.416.465.661-.217.352.491-.023.669.505.424 1.326-.828-.415-.563.151-.246.734-.28.54.353.585-.233.53.212.24-.385-.556-.931.217-.271.035-.448-.781-.523-.406-.423-.131.151-.016.353-.474-.101-.656-.555-.256.084-.013.434-.774-.185-.387.235-.587-.501.38-.672.447-.143-.797-1.755.773-.371-.553-1.227.705-1.356.235-.921.769-.63.345-1.254.979-.684.178-.933-.218-.185.922-.141-.794-1.397 1.038-2.832.808-.442-.604-1.357.077-1.113-.48-.538.141-.387.861-.411.128-1.162.577-.195 1.225-1.285.959.342.57-.255.544.334.569-.533 1.534.246.199-.374.662-.037.34-.76.361.076.345-.224.968.206.006.813.436-.184.306.144.276 1.129.323.068.868-.727.146-1.059.582-.035.385-.968.372.02.083.731.744.792-.156 1.017-.324.308.272.493.105.815-.675.471.327.327.061.925-.258.004-.137.645.174.394-.474.454-.315.27.177.474.867-.53.159.648.791.386-.162 1.512.486-.234.175-.637.885-.525.557.178.264.531-.945 1.088.599.821.069.985.755-1.127.688-.251.127-.508.432-.443.485-2.097.675-.471-.476-.655.825-.519.198-.651-.26-.274.099-.276.352-.163.493-1.203-.384-.617.721-1.154.75-.356 1.195-.024.163.728.517.645.413-.447-.407-.701.337-.84-1.109-.85-.055-1.795-.482-.439.04-.467-.653-.753-.008-1.27.395-.273-.004-.913-.773-.937.259-.658-.291-.498 1.322-.809.885.129.945-.711 1.054.264.387-.235 1.006 1.244 1.165.208.407.324.834.276.522-.028-1.173.385.424.526-.918.122-.901-.429-1.397.972-.227.605.234 1.14-.129.884.412.583v.654l.704 1.259-.035.449.093.119-.281.297.797.545.018 1.035-.12.47-.43.344-.229 2.012.279.179.425-.505.291.122.294.954.213.58-.759 1.147-.376 1.585.54.63.604-.229.754.279.141.367-.284.495-.489-.124-.907.441-.262-.075-1.253.764-.264.776-1.074.386-.26.381-.693.091-.264.776-.574.552.101 1.111.652-.079-.303 1.144-.999 1.155.039.564.38.358-.663 1.722-.016 1.383-.547.518-1.025.159-.31.806.292.399-.551 1.567-.346.323.029.7.613.943-.641-.156-.564 1.346.184.535-.221 1.043-.863.609.323 1-.385 1.623.205 1.648-1.818 2.21.497 1.116-.749-.396-1.463-.113-.343 1.611.087.712-1.124.812-1.463-1.143-.978.585-.068.6 1.082.23 1.112 2.515-.53 2.027-.469.436.354.669-.717.106-.53 1.373-1.167.922-.557 1.685.392 1.609-.236 2.982.752 2.062-.31 1.46.935 4.558 1.282 4.89 1.527 4.109.81 1.42-.209 1.264 2.208 4.076 1.971 6.502 1.319 1.073 1.093.272.733-.181-.453.637-.783.23-.595-.186.719 1.936.856 3.907-.124 1.52.599 1.474 1.592.537.126.621-.22.845.095.674-.341.859 1.299-1.725.823-1.728.279-.099.276-.833 1.195-.678.351-.718-.109-.419.491-.629.667-1.741-.313-.859.356-1.213.816-.48-.59-.958-.526.146-.504-.246.418-.565-.316-1.316.443.253.411-.349-.643-.988.303-.491.421-.862-.904-.132-.401-.541.61-.723.675.837 1.475-.876.598.266.843-.514.906-.343.224.345.929.296-.434-.944-1.067-.861.279-1.03-1.006-.868-.271-2.554.941-2-.53-.866.64-.399.385-1.067 1.102-1.451-.253-.49.594.285 1.529-.567.097.477 2.668-.424.135-1.101.71-.543-.836-.733-1-2.293-.627-.133-1.434-3.614.206-.689-.478-.736.525-2.94.271-.339-.06-1.4.79-.823.181-.853-1.016.022-.119-.561 1.043-.987.848.022.133-.626-.216-.383.64-.399.062.826-.316 1.023-.561.772-.159 1.215 1.171.744.894 1.022.617-.106.299-1.126.492-.45-.382-1.469-1.513-2.025.444-1.907-.799-.626-.179-.276-.32.289-.773.371-.054.444-.505.23-.759-.816.371-1.466-.414-1.04-.452-1.701.76-.591.356-.182-.082-.731.658-.673-.398-.738.313-.449.1-.752-.524-.428-.711-.012-1.198-1.364-.861-.243-.712.364-.068.6.794 1.397-.29.712-.402.211-.924-.691-.805-1.717-.594-.939-.553-.573.411-.349-.365-1.643.167-.876.142-.485-.236-.942.429-.523-.152-1.34.638-.578.081-.756.449-.895.185-.872-.493.172-.627-1.064.183-.298.632-.084.651.673.129-.329-.499-.641-.539-.729.387-.512.322.068-.039-.563-.485-.796-.817-.451-.088-.614.45-.062.001-1.031-.578-1.014.263-.678.419-.664.486-.233-.382-.914.227-.506.611.11.735.651.506-.051.596-1.122.646.038.289.696.428.131.433 1.043 1.268-1.673-.839-.535.326-.783.752-.276 1.381-1.55.296-.928.453.949.671.578-.137.922.438 2.888.391.776.49-.252.752-2.139.437-.661.012-.988.623-.601-.384-1.27.723.609.682-.41.744-1.447.824.135 1.134-.948.944-.057.364.434 1.575-.597 1.128.478 1.928 1.757-.001.753.606.228.753.001.369.316-.44.204.91 1.6.525-.324.568.874 1.02.057.615.369.112-.709-.892-1.874.432-.444-.138-.564-.491-.302.256-.739.627-.619.738-1.885.875-1.32-.087-.712 1.139-1.066-.202-.637.601-.309-.321-1.475-.501-.443.093-.436 1.197.155.592-.826-1.113-.831-.296-.756.572-.077.344.529.597-.012.331-.623-.194-.675.995-.482.084-.676-.364-.712.695-.189.46.355.475-.652.321-.387-.348-.51.742-.041 1.159-.784-.251-.687.333-.821.366.612 1.027-.634-.278-1.307.254-1.195.694.188.085.255.575-.373 1.595-1.346-.491-.302.199-.75.767.123 1.697-.987-.526-.508.395-.273 1.035.26 1.502-.534-.246-.706.3-.293.414.385-.001.753.706.408.688-.25.79.762 3.056.649.431.587.449-.063-.207-1.173-.707-.686.089-.417.609-.069.433-2.504-.738-1.94-.863-.421-.759-1.747.721-.5-.891-1.22-1.806-.839-1.598-1.628-.44-1.382-.397.748-.555-.375-.356.182-.353.916-.915.103-.21-.6.289-.89.983-.425-.445-.986.25-.244.531.112.506.702-1.115-2.971-1.002-1.164-.422 1.238-.034.349-.582-.064-1.204-1.801.264-.777.788.307-.23-.783-1.808-2.227-.36-.175.099.655-.49.629-1.19-.094-.797-1.2-.983-.506-.702-1.833.113-.531-.439-.549-.742.04-1.536.883-.101.474-.681-.343-.642.22-.461 1.705.374.575-.69-.582-.206-1.55.576-1.126-1.13-.934-.184-1.188-.368-.138.78.067.603 1.079.22-.845.956.164.621.627 1.262-.525-.257-.847-2.023-1.401-.731.737-1.15-.284-.822-.611.907.213.972-.844.762-.036.586.6 1.054.362.823.889.929 1.505.853.28.268.889.594.285 1.025-.436.353.669 2.223-1.033.159.37-.396.748.834-.377.213-1.005 1.332-1.323-.126-.621.28-1.129-.075-1.701 1.263-2.585.379-1.782-.581-1.095-.082-1.107-1.003-1.164-.265-1.365.39.123.546 1.166.175.018-.058-1.222-.95-.756-1.034.196-1.592-.814-1.731-3.241-.49-.401.245-.503 1.25.186.512-.822-.409-.781-.983-.228-.311-.403.62-.305-.245-1.181.191-.059.688 1.336 1.152 1.017.353-.539-.388-.697.221-.666-.147-.705.506-.329.347.609.163.629.718.45-.123 2.074-.274.636 1.719 1.99.856-.294.82.531-.281 1.506.774.184 1.974-1.82.509-.903-.163-1.005.525-1.633-.059-.844.264.908-.131 1.082.514.01.855-.572 1.504-.076.375-.832 1.323.776-.274.259.179.375 1.697 1.906.259.273.121 1.116-.158.462.403.343 1.835-.046.274.296-.089.417.247.052.829-.636-.253-.767.204-.215.509.128.039-1.121.602.247.202.637-.356.559.816.173.79-.268 1.904.563.459.454.68.065.156.39.405.146.755-.474-.11-1.629.244.25.625 1.54 1.29-.281.159-.56-.354-1.324zm-33.444 121.862l-.435-.568-.815-.272-.424-.803-.968-.484-.417.189.276.753.77.203.719 1.005 1.187.668.371.495 1.153-.013-.258-.372-1.159-.801zm-38.285-68.89l-.256.361.696 1.02.404-.033.118-.371-.404-.898-.558-.079zM217.324 92.364l.351-.064.919-.499.174-.538-.298-.558-.767-.123-.224.586.032.502-.374.456.187.238zM32.01 195.618l-.636-.927c-.038-.008-.46.675-.46.675l.742.613.354-.361zm188.381-60.453l-.16-.648-.311-.125-.178.933.29.596.359-.756zm-2.935-39.127l.607-.525-.668-.4-.526.047-.009.415-.331.346.927.117zm302.101 24.205l-.766.055-.35.342.241.546.613-.365.262-.578zM220.87 98.269l-.377-.654-.589-.403.12 1.116.37.316.476-.375zm-2.335 37.414l.636-.658.271-2.301-.329-1.159-.293-.023-.291 1.464.205.995-.4 1.322.201.36zM84.01 156.529l.036-.449-.343-.627-.433-.013-.112.432.442.629.41.028zm-24.803 7.512l-.526-.23-.652.456-.102.573.506.701.113.401.346.054.179-.378-.25-.787.358-.28.028-.51zm62.591-16.765l.591.204.48-.393-.196-.478-.435.086-.44.581zm55.796 18.669l-.544-.333-.55-.117-.024.391.514.288-.052.524.786.781.915-.103.399-.292-.157-.846-.624-.33-.663.037zm-11.267-23.339l.038-.646-.306-.521-.581.213-.084.399-.308.33c-.019-.004.113.401.113.401l.529.311.599-.487zm52.313-11.617l.16-.66-.415-.663-.35.064.213.957.392.302zm300.199 207.203l.366-.418-.41-.126.044.544zm-395.36-191.174l-.047.407.197.378.754-.652.091-.615-.575-.003-.42.485zm-5.064-25.371l-.865-.5-.054-.587-.486-.42-.988-.111-.69.448.017.479.505.425.449-.063.555.375-.104.771.651.297.422 1.001.291.22.157-.462-.29-.596.563-.594-.133-.683zm7.616 20.92l-.366-.237-.642.221.061.27.49.124.457-.378zm-23.719-1.135l.31-.152.549.493-.367.516.626.134.747-.436.885.128 1.317-.691.957-.768.306-1.441.629-.441.151.785-.489 1.085.829-.913.206-.967-.585-1.076-2.733-1.888-1.333-.541-.99.364-.875 1.598-.477 2.059.315 1.038.022 1.114zm9.185 3.259l-.135.447.285.061.261-.203.97.008.501-.21-1.038-.34-.844.237zm15.505-2.215l-.711.265.515.287.28.456.737.355-.149-.884-.672-.479zM9.49 226.841l-2.77-2.649-1.103.994-.305 2.65 1.493.159 1.37 1.678.98.327.04-1.775.295-1.384zm127.676-88.231l.246-.601-.365-.335-.255 1.016.374-.08zm.966.305l-.278.377.662.992 1.142 1.254.045-.962-1.183-.964-.388-.697zm2.008 3.993c-.03-.046.646-.516.646-.516l-.689-.028.043.544zm-6.964 1.692l-.563.594.318.186.528-.245 1.257-.129.388-.334-.714-.369-1.214.297zm-4.382-1.129l.264.531.528.132.202-.393-.558-.455-.436.185zm-16.814-28.878l-.368.893.047.803.923 1.167-.071.52.934 1.11.695.464.47-.158.704-.048.905-.898-.028-1.175.344-.779.674-.65-.585.887-.167.599.24.645.074 1.145.48.261.635-.281.121-.569.632-.738.12.462-.19.336-.123.766.546 1.444.847.774.672.104.654-.278.355.294-.278.278-.455-.097-.375.455-.744.238-.253.442.618.825-.072.619-.482-.063-.442-.252-.071.52.359.551 1.209.376.751.576.879-.031.955.639.104-.771.443.253.156.568.081 1.206.533.668.558.079.715-.562-.009-.893-.981-.704-.327-.327.405-.132.579.262.711.666.232.683.202.915.312.027.339-.661.351-.065.333.765.814.648.601.069.105-.493-.582-.718.073-.342.374-.079.738.633.238.466.243.072.1.834.421.446.424-.128.293-.632-.19-.694-.504-.147-.345-.43.212-.252.358.274.475.101.699-.584.318-.468.058-.463-.751-.853-.526.145-.624-.33-.378-1.21-.835-.177-1.156-1.376-.297-.935-.892-.189-.642-2.019-1.064-2.089-.168-1.918-.496-1.493.378-2.06-.354-1.323.123-2.352-.073-.59.529-.621.014-.532-.685-.324-.691.17-.428-.507.246-.225 1.119.337 1.051-.371.49-1.561-.018-.757-.753-.001-.804.047.38-.296 1.19-.183.309-.43-.246-.428-1.537-.327-1.947-.731-.67-.677-.664-.141-1.686.652-1.404-.298-.601.308-1.247.548-.292.909-.383.493.036.86.701.248.239.368-.268.419-.751-.2-.929.081-.937 1.049-.254.917.302.54.708-.068 1.165-.347.094.397-.9.502-.297.65.456.097.691-.547.564-.038.113.4-.793.466-.281.574.466.793.835.177-.53.165-.578-.083-.64.399-.102.573.278.931-.425.227-.373-.298-.803.048-.512-.485-.563-.061-.914.757-.139.843.025 1.095zm384.553 247.555l.351.214.845-.336.266-.598-.683.133-.779.587zm22.544-25.827l.064.727.38-.574-.074-.491-.37.338zm-1.347 2.607l.031.323.355.195.207-.412-.359-.275-.234.169zM142.679 137.959l.591-.727.073-1.372-1.332-1.293-.738-1.287-.815-.272-.713-1.122-.773-.66-.145-.625-.878-.999-.562-.159-.532.263-.039.468-.67.353.329.783.659.259-.236.366-.45.063-.499-.641-.334-.012.158.747 1.1 1.918.72.629.389.875.387.142.254-.917.551.394.741.059.178.374.049 1.081-.229.328.374.574 1.045.401.539-.48.808.489zm377.083 195.792l.246.429.375-.178-.323-.346-.298.095zm2.149-7.034l-.247.324.374.198.252-.065-.096-.298-.283-.159zm3.998-13.221l.273-.536-.675-.837-.539.203-.198.651.292.399.847.12zm-15.497 32.616l-.576.75-.387.235-.407.706-.396.272-.256.461-.748.535-.524 1.157.404.244 1.078-.682.816-.857.616-.286.216-.826.44-.858 1.099-.975-.446.143-.929-.019zm-15.498 11.61l-.423-.248-.333-.487-.311.251-.361.954-.394.827-.414 1.201-.591.726.063.548.573 1.034c-.017-.103.288-1.168.288-1.168l.779-1.895.401-.113 1.231-.749.364-.874-.247-.052-.625.045zm-3.36-116.958l.163-.58-.536.005-.551.537-.194.633.372.118.746-.713zm31.031 87.543l-.393 1.006.344-.125.389-.334.214-.727-.198-.379-.356.559zm-40.021 15.1l.205-.967-.637-.829.029-1.163-.159-.747-.672.174-.55-.117-.986-.962.091-1.269-.345-1.084-.835-1.109-.594-.285-.491-.956-.055-1.518-.396-1.214-.087-1.088.324-1.338.191-1.644-.335-.943.488-1.363.101-.85-.363-1.187.515-.465.285-.594.082-.478.411.028.45.214 1.016-.021.963.323.767.777.315 1.316.805.507.654.655.51 1.337.43.309-.173-1.147-.609-1.239-1.011-1.126-.422-1.279-.504-1.177.113-.531-.386-.518-.464-1.644-.155-1.044-.505-.424.059-.839-.919-1.741-.704-2.29-.048-1.08-1.066-2.268-.453-1.602-.518-.546.185-.872-.309-.879-.506-.325-.115.352-.5-.166-.103-.358.316-.647-.118-.659-.677-.639-.551-1.049-.176-1.226-.284-.714.075-.916.35-.619.157.192.045-1.239.097-1.386-.012-.974-.758-.537-.668-1.153.022-.57-.359-.552.089-.417.381-.018.612.943.537 1.303-.139-1.12-.662-1.647-.75-1.229-.361-.077-.094-.773-1.403-1.705-.372-1.05.351-1.372-.357-.65-1.152-.74-.32-1.297-.227-.425-.392.353.227.425-.091.614-.515.089-.519-.546-.695-.088.84 1.367 1.265 1.141.277.752-.311.905.475-.275.486.044.088.613-.407.329-.622.126.039.563.619.171.031.879-.749.257-.602-.247-.367-.792-.64.4-.693 1.021.581.996.038 1.038.617 1.202.439 1.48-.279 1.784.219.462-.111 1.364.112 2.085.383 1.468.791.664.01.418-.455.181 1.623 2.445.631.392.67 1.608-.029 1.441-.324 1.061.426 1.259-.177.835.583.619.593 1.037-.3.194-.038.646.62 1.658.012.973.175 1.227-.212 1.56.187.614-.287.791-.123 1.421.318 1.771-.3.571-.124 1.143.663.894 1.13 2.241-.173.816.385 1.27-.522 1.712-.086 1.429.41 1.434.023.917.814 1.679-.019.65-.529 1.275-.484 1.72.139 1.119.74.812.341 1.38.911.847.084-.953.345-.878-.196-.854-.06-1.023.457-1.31.9-.503.358.275-.129.607.406.423 1.646.191.255-.362.419-.01.177.473-.273.259-.076.638.675 1.115-.047.782.366.613.158-.561-.074-.491.247-.879zm34.059-2.257l-.567.989.261.174.419-.386.404-1.341-.273-.118-.244.682zm-11.851 9.293l-.564.039-1.105.815-.327.604-.521-.07-.673.273-.4-.264-.152-.686-.21.055-.433.641.15.507-.44.482-.674.748-.357-.096-.044.487-.401.766-.74.22-.196.454.31.501-.383.216-.289.613.016.954.434-.086.436-.839.679-.391.111-1.086.479-.294.131-.428.467-.238.396.282.686-.428.888-1.1 1.026-.813.95.103.73-.261.12-.846-.1-.834z" fill="#AFE6FF"/><path fill-rule="evenodd" clip-rule="evenodd" d="M257.113 299.459l.991-1.395.839-.218 1.901.483.354-.361.887-.624 1.429-.192.238-.841.481-.77 1.191-.282.139-.565.844-.514.719-.026.743-.694.429-.246-.364-.434.087-.596.342-.303 1.305.673.633-.182.648-.992.72-.125 1.517.144.86-.035.691.107.956.262.707-.246.205.064.363.81-.025.49.385.617.885.129.469-.059.747.218.715-.284 1.348.187.125.72.007.715.13.602 1.785 1.588.641.81 1.373 1.005.596-.19.9-.126 1.048-.451.741.058.734.374.529.588.709-.067 1.799.402.63.49.798.07.215-.172.746.317 1.464.113 1.043-1.086-.346-.609-.714-.746.288-1.266.533-1.294-.039-.563-.718-.45-.304-.62-1.162-.603-.09-1.07.473-2.039 1.041-.79.133-.626.562-.594.736-.101.404.245.449-.619-.117-.758.27-.616.613-.365.808.211.489.5 1.04.518.988.765.091.317.896.547 1.028.297 1.507.281.489.5.318.464 1.042.321.528.409.693.286 1.777.318.589.402.163.729-.113.531.297.657-.129.607.302.54.22 1.017-.176.736.405.522.504.146.693.94.135.485 1.157.622 1.15.938.58.163.349-.243 1.256.346.654-.277.618.171.476.279.568-.058.886-.624 1.276-.125 1.675.237.963-.331 1.094.173 1.104-.062.821.709 1.206.395 1.64.309.581 1.372 1.36.883 1.2.235.917-.023.337.468.173 1.424.715.746.448.412.526.231.556.93.618.171 1.938.214 1.547.844 2.494.49 1.076.07.505-.23.93.198.689.582.487.044.882-.883 1.749-.579.96.243.829-.636.704.05 1.908.446.978-.586.439-.758.076-.361.69-.725.957-.213.741-.497.507-.803.752-.455.721.153.236.288 1.302-.06.758.26.854.835.322.822.592.383.871-.27.345.429.748.12 1.043-.334.127-.409 1.438.048 1.455.805.351.59-2.285 6.272-.123 1.42-.595 1.122-.064.859-.937 1.703.387 1.449 1.787 1.391 1.527-.746 1.689.359 1.739.686.676 1.016 1.356-1.337.06-.939.222-.765 1.234-.114.494-.272 1.756.888.803 1.538 1.225 1.707.877 1.752 1.3 1.445-.115.729.182.633-.191.713-.404.409-.144.584-.446.42-.598-.265-.295-.479-.897-.072-.566.237-1.049-.758-.754-.002-.98.882-1.332.668-.753.276-.643-.711-.342.026-.184.774-.401.39-.589-.026-.436-.192-.431.444-.955.946-.459 1.23-.129.885-.568.434-.917.023-2.13.875-.987-.209-.981-.427-.551.26-1.128 1.484-.899.404-1.075.485-.698.486-.388.611-.434-.013-.784-.603-.98-.426-1.156-.721-.872-.938-1.021-.237-1.682-.02-1.121.515-.792.743-.448 1.827-.094.911-.178.557 1.598 1.628 1.483 1.424-.105.493-.587.708-.719.679-2.257 1.661-1.457 1.534-.901 1.255-.683-.145-1.417.135-.999-.153-1.281.52-1.316.593-1.193-.174-1.744-.193-1.242.153-1.447.089-3.187.433-2.518.277-1.455 1.058-2.109 1.058-.877.488-.991-.191-1.157-.622.097-.455-.019-.658-1.893.133-1.487-.098-1.334-1.096-1.171-.368-2.429-1.546-2.361-1.77-1.099-1.64-1.093-.272-2.949-.963-2.517-.476-.632-.293-.52.207-.344.403-1.494.217-2.014-.229-3.394-1.018-2.556-.385-1.893-.521-1.706-.184-.855-.083-.669-.399-.547-1.999-.172-.968-.599-1.475-.536-1.025-.216-1.314.052-.525-.471-.773-.578-.361-.401-.164-.074-.492.043-.763-.261-.175-.399.015-1.173-.269-.866-.779-1.304-1.426-.507-.227-.365-.057-.707-.309-.26-.551-1.114-1.108-2.691-1.246-.3.016-.425.226-1.144-.124-1.83-.349-3.895-1.739-.798-.724-.628-1.62-.015-.677.133-.625.358-.38.689-.349.423-.683-.354-.67-.003-1.011.302-.491.141-.941-.233-.584-.327-.982-.543-.432-.551-.672-.132-.781-.304-.718-.066-.807.023-.669-.315-.76-.551-.672-.582-.342-.199-.558-.646-.414-.638-.076-.502.309-.496.093-.381-.259-.508-.881-.132-.405-.797-.169-.901.225-.399.292-.252.441-.403-.065-.703-.704-.08-.652.041-.288-.435-.846-.722-.708-.477-.834-.431-.31-.351-.491-.096-.575.078-.558-.135-.484-.149.047-.09.239-.301.015-.187-.614-.194-.299.235-.921-.009-.517z" fill="#9ED4F9"/><path fill-rule="evenodd" clip-rule="evenodd" d="M104.27 291.226l-.918-.908-1.158.13-1.32-1.35.24-.663 1.594.339-1.089-3.184-1.534-2.209-2.557-1.316-.455.558-1.106-1.424.403-.589-.476-1.309-1.567-1.027.932-1.308.909-2.502-.494-.759.227-2.092.881-.229 1.41-1.127.226-1.062.772-.648 1.794 2.481.104.815 1.088 1.044 1.318.141.133-1.279.582-.313-.24-3.539 1.323.123 1.348.286.209-.986-.446-.887.486-.888 1.399-.515.577.083.617-1.038.727-.341.821.432.294-.73-.052-.784.326-.506 1.08.983.899.627-.231.525-.733.558.347.51.871-.271.346-.6.646-.24-.115.729.652-.456.222-.488.833.098 1.002-.422.767.124.199 1.211.797.823 1.619-.151.679.164.28.733.471.12.624 1.262.892.19.479 1.013.992 1.122.652.198.202.638-.149.979.442.252.724-.698.127-1.063.92-.32.397.936 1.541.586.31.878.608.406 1.189-.559.426-1.535.874.087.241-.762.689-.071.361.73.506-.606.981.05.981 1.358.131.503 1.201.137.065-1.057.709-.067.914.273.576-.472.87.76.543.432-.387.513-.713.185.61 1.14.707.408.413-.17.501.443 1.265.21 1.307 1.129.97.008.603-.783.226-.784.502-.31 1.125 1.052 1.149.382 1.509-.194.544-.598.488-3.325-.339-.369-1.225-.3-.645-.791-.055-.487-.886-.406-.453-.671-.987-.21.056-.543-.157-.568.203-.393.76.062.337-.84.803-.602-.004-1.012-.625-.231.133-.904 1.219-1.167 1.15-.648 1.786.181.631.392.547-.241.215-.826-.764-.42-.527-.785-.649-.119-.597.29-.778-.542-1.036-.26.018-.551.433-.264 1.124.219-.148-.983-1.076-.07-.715-.37.487-.332-.246-1.083.364-.22.923.137.526-.424.581.163.188.516.977.069.642.711.411-.349.109-.512.818-.302.751.199.318.841.511-.447.205-.59 1.539-.149.988.111 1.148-.271 1.14.143.285-.316 1.269-.464 1.029.199.742-.318.619.072.517.368.387-.235.167-.877.563-.316.911.194.23-.526.625-.323.366.514.584.242.874-.289.995-.106 2.018-.82.399.085.455-.181 1.027.02.727-.618.499.264 1.172-.009.091-.614-.247-.707.504-.13 1.117.158.416-.744.832-.279.493.203.67-.075.937.635 1.162.128.865.877.987.21 1.015-.201.838.257.124 1.097.285.338.122.918.417.841.486.42-.002.476-.366.695-.013.809-.103.296-.685.052.214.858.417.465 1.028-.356.532.668.511-.07.321-.764.58-.115.084.91.513.109.235-.644-.126-.898.306-.134 1.202 1.346-.115 1.382.329 1.16.505.048.725-.52-.411-.305-.127-.523.951.004 1.414 1.093.532.113.735-.379.422.348-.534.738-.609.347-.229 1.08.393.857.577.083.6-.487 1.005-.064 1.581.772.362.354.588-.251.031-.985.839-.119 1.269.092.891-.366.495-.648.735-.379.205-.591 1.123-.712.717-.106.786-.526.94-.038 1.136-.116.414.386-.195.731-.849.632-.696.011.208.698 6.305 7.205 7.506 14.991 1.065.028.757-.295.295-.453-.173-.215.16-.937.709-.166 1.094.826-.254.541-.044.585.892.467.479.736.736.176.65-.258.707.031.957.818.98-.228.67.301.881-.13.289-.335-.192-.497.245-.403 1.429.085 1.481.315 1.199.611 1.044 1.153.407 1.355.231 1.06.413.107.821.432.835.832.303.064.566.418-.062.482-.241.385-.122.667.111.599.314.482.145.249.365.058.763.519.562.436.308-.331.741-.219 2.002.287.967-.072.57-.632.913-.282.392.301-.578.948.102.735.575.28.757 1.013 1.145.679.208.421-.913.658-.741.219-1.351.942-.179.656.155.488-.706.802-1.33.193-.872.369-.358.935-.317 1.775.465 1.823.553 1.228-.235.544-1.289.935-.984.148-.898.681-.633.084-.366-.237-.108-.518-.721-.153-1.709.013-1.081-.328-1.511-.916-.925-.315-.505-.048-.764 1.819-.614 1.118-.254.917-.891 2.328-.395 1.858-.342.581.398.461.879.623-.575.75-.236.643-.532-.113-.557.199-.646-.137-.405-.522-.583.133-1.036.018-1.921-.012-1.395.219-.589-.125-.456-.374-.762.135-.889.544-.144.584.585.699 1.174.17.944.32-.066.402-.713.463.137 1.317-.076.638.243.626-.033.905.512 1.416.007.715.751.853-.025 1.798-.605.328-.427.702.529.964-.42.109-.214.45-.914.38-.192 1.089-.875.29-1.759-.869-1.349-2.427-.78.033-1.597-1.073-2.511-.692-1.368.185-2.005-1.02-2.093.05-1.057-.066-.885-.505-.9.503-.851.176-2.213-.787-1.592-.814-.764-.698-1.318-.24-.5.112-.974-.267-.765-.321-.531.165-.099.93.05.982-.215 1.104-1.335-.066-2.593-.491-3.01-.957-.633-.57-1.349-.465-.955.669.199.557-1.055.391-.209.332-.243-.072-1.084.9-.781.131-2.028 1.61-.811 1.017-.6.487-1.184 1.373-2 1.2-.372-.396-1.678-1.347-1.364-.488-1.29.003-2.088.587-.857-.261-.708-5.164-2.876-1.027 1.116-5.906-1.539.148-.528-2.747-1.787-2.044-6.855-1.437-6.347-.655-3.045-2.846-2.376-1.515-5.632-6.072-11.451-.252-.835 20.551-.619-.073-1.766.002-2.03-3.701-2.602-2.317-2.607-.989-2.202.285-3.054 1.769.135-1.101-.018-1.034.716-1.037.401-1.144.051-.425.193-.256-.263-.254-.9-.152-.604-.425-.719-.351-.668.155-.347-.232-.174-.77-.273-.395-.219-.74-.336-.289-.317.091-.814.005-.356-.095.293-1.008.097-.832-.871-1.592-.1-.556-.318-.186-.114-.956-.395-.381-.163-.728-.665-.419-.656-.179-.383-.716.141-.386.43-.344.409.225 1.234.163.302.262.501.067.301.263.532-.264.397-.094.646.415.272-.161-.12-.461-.828-.117-.215-.204.129-.606-.614-1.122.012-.433.455-.181.16-.66-.052-.407.606-.426.967-.072.793-.089.562.436.864-.054.704.05.292.399.409-.151.588.125.507.881.664.141.966-.251.213-.351-.544-.333-.76-.34-.317-1.217.33-.901.603-.129.388-.334-.194-.299-.19-.417-.067-.43.656-.752.209-.61-.509-.782-.089-.514.451-.439.014-.255-.526-.231-.202-.637-.037-.385-1.407-.378-.512-.207-.582.034-.156.265-.503.13-.127.409-.447.143-.54-.352.016-.354-.498-.085-.341.205-.279-.555.171-.618-.145-.249-.379.197-.532-.113-.323-.346-1.082-.23-.713.463-.319.567-.256.084-.232-.307-.398-.085-.616.563-.443-.153-.455.458-.846.435-.367-.138-.234.446-.391.254-.216-.383-.357-.096-.358.38-.584-.144-.12-.461-.27-.038z" fill="#8BD0FF"/><path fill-rule="evenodd" clip-rule="evenodd" d="M175.876 355.265l.859-2.552 1.308-1.862.5-.389.112-1.185-.762-.519-.206-1.272.58-.769-.012-.973-1.184-.212-.806.245-.747-1.804.254-1.293.976-.486 1.8.679.803-.047.32-.943 1.734-.226-.125-.72-.292-.399 1.895-.053 1.53-.29.219-.845-1.158-.9.267-.974 1.147-.172 1.27-.563.842.239 1.595-1.068.714 1.122.198.657 2.118.113 1.422.401 1.44-1.082-.032-.878-1.692-2.024-.522-.25-.364 1.151-.886.625-.703-.427-.587-.878-1.747-.926-.693-.662.867-.906 1.745-1.77.128-.884-.667-.221-1.084.9-.781.131-2.028 1.61-.811 1.017-.6.487-1.184 1.373-2 1.2-.372-.396-1.678-1.347-1.364-.488-1.29.003-2.088.587-.857-.261-.708-5.164-2.876-1.027 1.116-5.906-1.539.148-.528-2.747-1.787-2.044-6.855-1.437-6.347-.655-3.045-2.846-2.376-1.515-5.632-6.072-11.451-.252-.835 20.55 1.957.218 1.682.674.623-.878-.568-.874.014-1.562 1.294-1.608 1.296.156.881-.882 1.066-.349.908.768.539-.203-.504-1.177 1.896.601 2.534 1.985 2.104 1.953.102 1.013 2.754 2.348 2.197 1.795.757-.295.826.314 1.461 1.618.217 2.622.706.784.074 1.146.597 1.95 1.302.97 2.381 2.329 2.336 2.636 2.837 2.05 2.421 2.515 2.144.832.377.655.692.008 1.327 1.412-.286 1.068-.172 1.926 1.265-.068.803.606.351.867.562.159.82-.499.705.229.264.531z" fill="#96BEFB"/><path fill-rule="evenodd" clip-rule="evenodd" d="M171.107 353.44l.171-1.926.286-1.068-1.326-1.412-.693-.008-.376-.655-2.144-.832-2.421-2.516-2.838-2.049-2.335-2.636-2.382-2.329-1.301-.97-.597-1.95-.075-1.146-.706-.784-.216-2.622-1.461-1.618-.826-.314-.757.295-2.198-1.795-2.754-2.349-.102-1.012-2.104-1.953-2.534-1.985-1.895-.601.503 1.177-.538.203-.908-.768-1.066.348-.882.883-1.296-.156-1.293 1.608-.015 1.562.568.874-.623.878-1.681-.674-2.577-.29-1.765.002-2.031-3.701-2.602-2.317-2.606-.99-2.203.286-3.053 1.769-.054.345.508.782.156.667.556.653.089.792.594 1.592-.432 1.197-.698.763-.257 2.145.341.726.076.671 1.152 1.671.022-.57-.346-.609.303-.213 1.189.471.654-.277.258.372-.39.809.066.905.556-.1.379.834-.301.293-.658-.358-.498.013-.292-.399-.911.461-.1.751.306.798.111-.987.498-.013.304.342.625.232.272.87.999.807.088.891-.277 1.209-.023.669-.512 2.131.07 1.54.339 2.232.959-.311 2.073.321.599-1.042.676-.569.714.092 2.06-1.108 1.834.052 1.488.653.513-.921.879-.031.748.495.934.179 1.245 1.513 1.214.634 2.122 2.056.654.099.761-.314 1.54 1.061.84.337-.034 1.281.338.369.918-.023 1.479.691 1.19 2.71 1.79.538.97.662.414 1.317-.436.561.143 1.101-.171.617.201.736.449-.063.878.444.556.654.683.145.659-.395.721.153.785.88.099.655.292.399.51-.347 1.255.068.733-.558.25-.521.632-.361-.088-.614 1.44-.427 1.7.024.241-.385.735-.378.696-.011.5-1.043.244-1.058 1.186-.818.185-.873-.319-.365.169-.518.458-.101.524-.226 1.142-.055.338.092 1.45-.663 1.047-.075.727.69.955-.016.224.345.179-.001z" fill="#91D1FA"/><path fill-rule="evenodd" clip-rule="evenodd" d="M8.634 232.268l1.067-.448 1.6-.155.97.761 1.194-.301.733.096-.16-1.302 1.208.197.666-.988.774-.094.18.554.91.193.194-.91-.965-.779.512-1.199.613.011 1.091-1.215 1.584-.357.18-.854-.603-.425 1.238-1.065 1.438-.328 1.794.143.42-1.04.798-.208.485-.788 1.077-.029.616.646 1.009-.36.553 1.504 1.126-.256.886.307.484 1.55 1.26-.605 1.29-.102.35.689.607.129 1.662 1.046.023 1.016-.514 1.02.544.987-.27 1.271.731 1.225.252 1.243.763 1.728.707.784.066 1.46 1.309.655 1.262 1.715-.032.805.929.951-.563.316-1.149 1.203-2.227-.156-.715-1.024-.52.583-.138 1.021.553 1.505-.356 1.113.72 1.282-.226 1.062-.09-.039-1.877.057-1.262-.129-.927 1.468-.393 1.383-.935-.08-.588-.779-1.273.106-.605-.604-.881-.148-.96.787-.654-.377-.002-.832-1.107-.394-1.46.522-.512-.386-1.232-.46-.437.284-.577-.083-.55-.771-1.564.263-.085-.534-.92-.71-2.315-.869-.9-.805-.508-.128-1.026.535-1.34-.225-2.993-.2-.806.245-1.198-.988-.684-.046.107-.413-.549-1.524-.06-1.301.843-.891.9-.126.536-2.62-.404-.522.042-1.041-.384-.994-.215-2.067-.145-.347z" fill="#72C3FA"/><path d="M68.353 273.371l-1.018-1.088.648-1.745.91.015.899-.78.2-1.127-.501-.443-.156-1.044-.759.493-1.204-.494-.96-.897-.924-.038-.673-.659-1.116-.256-1.427-.66-.69.448-.21-.877-1.137-1.094-.495-2.245-.665-.042-1.653.778-.856-.36-1.024.06-1.044-.876-.917.677-1.507-2.242-.17-1.443.242-1.138-.754-.279.071-.896-.7-.902-2.366-.166-.84-1.744.692-.824-.72-.906-.22-2.048-.956-.262-1.164.347-2.145-.456-1.92-1.141-.747.436-.109.888-.993.007-.742-.336-1.877.057-1.261-.129-.927 1.468-.393 1.383-.935-.08-.588-.779-1.273.106-.605-.604-.881-.147-.96.786-.655-.376-.001-.833-1.107-.393-1.46.522-.512-.387-1.232-.459-.437.283-.577-.083-.55-.771-1.564.263-.085-.533-.92-.711-2.315-.868-.9-.806-.508-.128-1.026.535-1.34-.225-2.993-.2-.806.245-1.198-.987-.685-.047-.206.69-.364 1.904.414.663.217 1.314.869.858-.457.379-.005.673.195.576-.512 1.199-.687-.126-.768.53-.63 1.194-3.166 2.3-.052 1.178-.327 1.258-.785-.226-1.24 1.639-.489 1.363-.199.096.79 1.139.899.904.123.819.843.14.64-.399.817.173 1.314 1.191 1.168.288.992.745.258.749.784.602 1.398-.139.89.11.87-.647 2.895.099 1.093-.382.985.031.07-1.075.253-.442.066-1.155.604.426.231-.248.712.666.354-.361.911.194.395-.273.402 1.096 1.082.23 1.04 1.45 1.32.419.31-.43.398.085 1.017 1.563.927.772-.045 1.516-.29.989.83.671.036.484.828 1.147 1.061.978-.005.772-.339.661.36.829-.245.404-1.242-.224-.547-.691-1.158.131-.806-.132-.45 1.47-.18 1.032-.406-.146-1.084 1.276-.195.731-.639-.353-.704.326.419 1.298 1.086.488 1.533.345.788-.347 1.315.16.581.718.02.004.308-.707-.294-.578.204-.492.144-.583.229.603.55.117 1.978-1.561-.153-.588.456.097 1.087-.918.222-1.043.689-.349.999.152 1.038-.869.381.537-.086.219.76.162.441-.402.482-.492.165.53.432.488.597.365 1.32-.056-1.004.341-.592.172-.71-.389-1.483-.117-.93-.197.27.592 1.5.319 1.149.66-.258.282-.516.188.513.664.558.177.666.598.989-.266 1.042.043.845.596.584.52.447-.519.344.251-.007.217.568-.058.21-.332.874.364.594-.369.515.565.873.186.237-.465.788.028 1.534-1.061.272-.438.376.378.06.369-1.044.809-.344.125.109.419.554-.179 1.162-1.081.302-.491-.35-.688-.137-.565.387.043.334 1.042.512.208.97-.369 1.045.499.819-.4.855.082.303.164 1.093-.759.57-.533.922.137.495-.648.639-.3 1.005.312 1.136-.214.425.149.002.457.853-.096.662-1.901.584-.134 1.198-1.251 2.036.313.88-.407.07-1.075.838-1.427.068-1.254z" fill="#91D1FA"/><path fill-rule="evenodd" clip-rule="evenodd" d="M16.529 266.999l.07-1.075.252-.442.067-1.155.604.426.23-.248.712.666.354-.361.911.194.396-.273.401 1.096 1.082.23 1.041 1.45 1.32.419.309-.43.398.085 1.017 1.563.927.772-.044 1.516-.29.989.83.672.035.483.828 1.147 1.062.978-.006.772-.338.661.359.83-.245.403-1.241-.224-.548-.691-1.158.131-.805-.132-.451 1.47-.18 1.032-.405-.145-1.084 1.275-.195.732-.64-.354-.703.326-.033-.126-.29-1.25 1-3.87-.467-1.348-.058-1.221-1.85-2.216-.012-.875-1.352-1.852-.099-1.963-1.711-.067z" fill="#96BEFB"/><path fill-rule="evenodd" clip-rule="evenodd" d="M84.947 317.382l.224-.686 1.685-.276 2.072 1.827 1.544.388 1.334 1.096.565-1.446-.43-.963-.94-.894.735-1.409 1.171.368 1.62 1.989.334 1.141 1.876.597.514-.644 1.337-.41 1.817-1.457.74.811.932 1.962-.117.827.282 1.289 1.195 1.284.011.696.747.872 1.128.2.985.685.422 1.001-.606-.228-.658.296-1.113-.177-1.493.773-.135 1.101-.033.905-.508.427-.256.738.169.512-.129.606-.475.276-.306 1.441-.359.479-.165-.531.459-.854-.441-.727-.387.235-.387.611.074 1.145-.236.644.132.404-.353 1.57-.41.151-.65-.297-.165-.53-.615-.468-1.063-1.811 1.54-.624-.838-.812-.14-.466.601-.308-.433-.667-.228-.702-.378-.18-.024-.262-.432-.112-.903.422-.632-.015-.68.589-.538.104-.911.836-.441-.073-.37.337-.233.446-.808.165-.544-.333.037.008.194-.91.38-.296-.378-1.21 1.078-.029-.775-1.115-1.184-.311-1.642-1.419-.28-1.388.679-.489.12-.847-1.395-1.743.12-.846.51-.903-.677-1.015-1.464-.49-.606-.881zm4.35 13.884l-1.26-3.22-.96-.522-.383-1.468-.721-.153-.563.316-.865-1.253-.74.219-.726-.135.11.321.172.036.443.808.54.075.146.804-.186.595 1.613 1.373-.037.824.965.78 1.093.272 1.036.913.322-.585z" fill="#9ED4F9"/><path fill-rule="evenodd" clip-rule="evenodd" d="M78.54 316.634l1.402-.158 1.948-.022.507.227 2.366.443.82 1.185 1.462.489.673 1.034-.505.884-.124.865 1.395 1.743-.12.847-.68.49.285 1.368 1.642 1.419 1.184.311.774 1.115-1.077.029.378 1.21-.38.296-.19.891-1.008-.016-1.26-3.22-.96-.521-.382-1.469-.722-.153-.563.316-.864-1.253-.74.219-.73-.115-.214-.581-.568-.874-.81-.112-1.278-.331-1.061-.979.293-1.661.54-1.233-.251-.965-.723-.332.052-.524-.511-.862z" fill="#96BEFB"/><path d="M92.388 318.308l-.565 1.445-1.334-1.096-1.13-.279-.02-.004-.413-.108-.316-.285-1.736-1.538-1.704.272-.221.666-.184-.257-2.346-.439-.526-.23-1.949.022-.834.1-.553.081-.06-.092-.7-.347-1.39-1.762-.045-.069-.662-.339-.449.242-.249.145-.532-.014-.66-.437-.333-.21-.12.094-.388.334-.442-.253-.011-.319-.003-.08.004-.396-.519-.169.004-.019.15-.147-.036-.761.385-.413-.44-1.481.14-1.774-.361-.73-.598-1.574-.978-.346.056-.543-.888-1.14-.497.192-.37-.317-.787-.306-.422-1.001-.037-.107-.095-.02c-.015-.023-.053-.031-.068-.054.772-.272 1.775-.416 1.775-.416l1.992 1.077 4.978 1.87 3.254 1.306 2.514 1.327 2.26 1.312-.599.487 1 .708 1.817-.149 1.415.063.28.733.427-.702.472.021 2.08 1.135.482 1.371-.722.501.596.839s.561 1.091.58 1.095l-.74 1.428.941.894.43.963z" fill="#72C3FA"/></g></svg>