<svg width="890" height="535" fill="none" xmlns="http://www.w3.org/2000/svg"><mask id="a" maskUnits="userSpaceOnUse" x="0" y="0" width="890" height="535"><path fill="#C4C4C4" d="M0 .078h890v534.447H0z"/></mask><g mask="url(#a)" stroke="#F3F9FE"><path d="M78.554 423.962l1.605.429-.642.681-.722.373.322 1.237-.924.768-2.14-.25-2.317-.931-1.594.48-1.378 1.256-1.946-.472-3.278 1.524-2.334.527-2.221-.56-.885-1.064.437-.404 1.23-2.076.106-.913-1.632-1.953-.717-.065-1.207-.928-.988.52-.962-.701 1.663-1.633 2.462-.851 1.89.051.575-.228-.522-.987.038-1.278.837-.085.676.669 1.989.277.565 1.055.637.719.777-.214.289.704-.776.624-.063.571.637-.245.56.119-.404.937.876-.544.554.556-.017 1.457.54.903 1.31.717.686-.205-1.627-2.391-1.574-3.051-.255-1.691.575-.228.65 1.482.131 1.722 2.277 3.873.64.429 1.262-.843.71.093.988.998.743-1.157 1.888.197zm230.182-284.15l-1.035.19.329.654 1.226.699.972-.583.396-.763-1.268-.503-.62.306zm9.228-10.953l-.764-.396-1 .167-1.089.032-.015.347 1.41.796.43.588 1.173-.978-.145-.556zm5.522-44.581l.233-1.646-.735-.945-.772-.222-.724.518-.086 1.092-.339 1.185.069.774.598.215 1.192-.244.564-.727zm-19.219 55.783l.234 1.101.888.364 1.242-1.167-.357-.661-1.047-.164-.96.527zm-14.184-9.908l-1.369-.028-.404.527.554.557.056.976.878.683.919-.331-.094-1.072.244-.737-.784-.575zm6.612-19.428l.607-.514-1.484-.724-.293-.822-.68-.378-.639.39.002.819 1.296.918 1.191.311zm17.823 32.565l.643-.272-1.101-.877-1.635.266.398.465 1.695.418zm10.325-16.388l-.622-1.067-1.413-.505-.699.26-.06.835-.354.012-.81-.727-.417.174.367 1.16.605.596 1.191.311.765.805.585-.138.005-.438-.327-.8.993.007.191-.485zm-8.744 7.433l.147-.553-.688-.205-1.687.782-.148.699 1.04.746.375-.387-.135-.467.211-.306.885-.309zm34.649-40.176l-1.444.19.257.58 1.143.127 1.388-.202.025-.667-.687-.76-.682.732zm-20.749-69.036l-.722.782-.347.948-1.734.041-1.272.753-1.019 1.77-.074 1.036 1.055.955.811.172.31.884-1.729.977-.551 1.08.072 2.002-.396.764-1.561.603-.355.567 1.115 1.084.347.57.725-.108-.118-.96.439-.55.906.69.885 1.064 1.188-.361.782.312.64 1.392.313 2.521.649 1.073 1.475.489 1.137 1.118 1.054.545 1.616-.446 1.803-.23.631.747 1.349 1.222 2.919.854 1.308-.102.902.571 1.177.104.607.86 1.017 1.267 1.149.098 1.338-.65 1.758-1.117 1.863-.1 1.871-1.649.214-1.006-1.155-1.998-.836-.47-1.11-1.93-1.564-.625-1.175-1.214.141-1.49.693.177.699.704 1.159.188.233-.681-.93-2.097-1.426-2.231.35-1.65.048-1.742-.864-.885.185-1.422-.571-.618-.586-.27-3.066-4.012-2.297-.75-2.164-.139-.396.763.045.886 1.203 2.184-.032.84-.683.878-.282 1.05-.595 1.423-1.106 1.489-.716.344.028-.958.829-.876.602-1.04-.503-.663 1.087-1.814-.276-1.315-1.477-3.235-1.367-1.547-2.337-.701-.553.262-.813 1.347-2.265.892-1.704.31zm-11.426 109.679l.733-.282.223-.362-.092-.808-1.275-.33-.482.482.004 1.082.889.218zm12.359-60.659l-.762-.541-.575.228.604 1.15.617-.014.116-.823zm-35.455 88.301l1.084-.15.222-.77-.605-1.97.077-1.736-1.166-1.534-.337-1.444-1.366 1.2-.723 1.891-1.076 1.349-.023.93 1.38.527.345.716 1.201.402.987.589zm-45.343-9.983l-.076 1.182-.53 1.67.868 1.148.457.185-.131-.758.233-.681.711.092.26 1.254.731-.137.422.352.943-.033.662-.911 1.361-.763 1.32-.158.304-.607-.342-1.417-1.473-1.189-.022-.998-.778-1.568-.61-.568-1.007.195-1.311.803-1.025-.13-1.451.772-.14.935.624 1.33zm49.99-146.394l1.548.008 1.249-.787.346-.803.67-.675-1.4-.707-1.798-.207-.919.886-1.409.987.547.73 1.166.568zm15.423 28.17l2.278.425.752.452-.587.285-1.836.106-1.461-.281-.028.549.976.909 1.264.385 1.427-.661 1.66-.933.941-.297.888-1.564 1.085-1.669-.102-.898-2.311-1.923-2.105-.826-1.952-.035-1.204.299-1.019-.713-.711-.093-1.281.663-1.517-.293-.435.258.303.912 1.468.662.402 1.138 1.156.888.528 1.368 1.421.887zm-124.16 74.979l.466-.544 1.894-.795.402-.791-.379-.139-1.545.665-.837.085-.844.668.315.856.528-.005zm65.475-92.5l2.288.515 1.64-.148.902-.802-.299-1.35-1.612-.809-2.072-.294-1.818.987-.246.883.335.626c-.022-.034.882.392.882.392zm17.456 133.549l.65.518 1.263-.579-.109-.724.338-.63.755-.248-.264-.407-.914-.107-1.94.874-.968 1.255-.14.934 1.329-.886zm-.75 6.97l-.219-.894-1.026-.539-1.025.279-.809 2.019.264.962 1.011.331.506.926.883.246.004-1.256-.501-.807.206-.833.706-.434zm13.112 12.339l1.457-.801.861-.197 1.13-1.191 1.074-.239 1.355-1.144.09-.975-.517-.46-1.195-.429-1.892.095-1.025.834-.11 1.204-1.049.945-.806.355-.434 1.077.422.907.639.019zm13.306-51.488l-.695-.995.166-.783-.094-1.071-.98.346-.559-.118-.499.42.721 1.146-.363.887-.507-.37-.379-.695-.381 2.345.753.452.762-.423.398.465-.133 1.315.439.824.373-1.206-.1-1.453.958-.381.148-.699-.028-.006zm-125.58 25.359l.575-.228.457-.634.94-.297 1.834-.925 1.326-.186 1.23.408.475.656-.181.575-.544-.057-.625-.776-.699-.148-.568.609-1.859.628-.885.864-.478 1.009.116 1.105-.381.416s-.186.603-.208.569l1.807.443 1.953-.52 1.597-.362 1.088.523.439.824 1.306.598 1.036-.335-.389-.783.274-.877.496.281.332 1.326.895.746 1.763.374.45-.606.971-.027.936-1.379.195-1.332 1.097-1.169.405-1.083-.679-.933-.351-1.652-1.088-.523-.839-.179-.323-.682.777-.215.926.46.836-.085.464 1.121-.16.755.538.494.754-.658-.09-1.918-.919-2.007-.846-1.933.506-.593.631 1.156-.022.931 1.035.774.998.534.456-.634.032-.84-.374-.576.244-.737.961-1.082.103-1.176-.68-1.342-.948-1.867.925.05.789 1.103.887-.045.755-1.213-.231-.429-.799-.228.41-1.52.803-.063.903.981 1.464.953.625-.597-.771-.778.003-.7.967.264.622.512 1.068-.621.345-1.212-.297-.531.325-.427 1.756-.416.497-.829-.864-.885-.286-.996.841-.932.362 1.188.886-.455 2.204-1.84.839-1.195.842-.522.489-1.474 2-.744 1.348-1.525 1.168-2.06.997.124 2.623-1.196 3.09-2.294 2.326-1.172.729.009 1.954-1.075 2.083-.171 1.343-.679 2.186-1.756 1.11-.407.642.283 1.007-.196.256-.793-.239-.664.831-1.021.046-1.042.356-1.678-.326-.39-.782-.313.187-1.567.936-1.379-.251-.608-1.196-.43-.473-.801-1.111-.412-.482-1.037.158-1.018-.339-.744-1.589.597-.361.596-.696-.44-.856-.65-1.067.066-1.719.657-.561.991-.852.433-.931-.023-.86.607-.324.837-1.137.81-.243.591.466 1.385-.116.822-1.035-.22-.663.502-.19.895-.676.294-.896.774-2.423.946-.886.455-.429-.325-1.029-.248-1.072.503-1.334 1.324-1.048.391-.404-.437-.202-.978-.476-.101-.34.775-.117 1.378-.481.336-.138-1.14-.368-1.159-1.916-.202-2.453.121-.571.347-.931-.023-.5.566.367 1.714.396.61-.252.501-.635.099-.982.902-.44-.269.205-.687.549-.38.184-.866-.784-.167-1.298 1.156-1.032.453-.128.878.7.558-.717.345-.683.877-1.349-.257-.886.454-.323.691-1.202.154-.848.55-.614 1.652.253.463.697.294-1.079.677-1.825-.359-.784.389-.591 1.54-.028.958.582.153.931.022.257.581-.327.573-.075 1.182-.954.498-.702-.412-1.384-.644-1.464.419-.513.768-.157.872-.751.922-1.315.684-.767-.659-.471-.948-.13-.904-.529.151-.668 1.494-.033 1.395.901 1.127.837-.085.356.251-.116.822-.861 1.161.043.623.672.552.77-.596.538.085.399.464 1.225.29.896-.365.299.385-.598.749-.999.022-1.449-.337-.708.58-.641-.428-.614.687.119 1.37.839.733.775.34.883-.163.315.446-.381.416-1.468.302-1.443-.365-.807.355-.254.647.499.544 1.098.058 1.208.373-.089.42-.815.119-1.273-.066-.08.655.338.335 1.469.516 1.476 1.453.902.572-.078.363-.054.807-.615-1.095-1.119-.793-1.079-.288-.877-.829-1.057-.254-.848.551-.368.769-.571.346-.087.683.335.626-.286.524-.635.098-.536-.23-.89.746-.571.901.1.489-.47.426-1.067.065-.139.38 1.058 1.627.962.701zm136.96-128.211l.948.903-.087 1.237-1.138 3.294-.895 1.183-.589.985.185.916.657-.065.989-1.076 1.72-.248.442.532.109 1.28 1.517 1.666.98.208.712-.462.966.41 1.393 1.289 1.513.584 1.413.096 2.326-.762 1.101-1.052.395-1.172 1.82-1.133 2.774-1.222 1.819-.578.814-.937.133-1.316-1.843-1.648-1.501-2.16-.698-2.222.369-1.324.945-1.143.242-1-.483-.483-3.061-.592-2.141-1.214-1.351-1.485-1.849-3.549-1.494-1.778-1.829-1.44-.871-.302-.455.488-.493.947.055.976-.384 1.671-1.344 1.234-1.483 1.613-1.626 1.32-.457 1.189-.81 4.911.545 1.43zm-30.801 140.449l.853-.024.093-.71-1.709-.627-1.047-.718-.765.158 1 1.352 1.575.569zm70.039-67.865l1.007-.75.578.035-.035.577-.534.587 1.443-.599 1.325-1.004.309-1.045.801-.326.241-1.41-.309-.474-.703.142-.544.498-1.321.713-1.644.44-1.559 1.422-.845 1.223.588.124 1.202-.153zm-50.892 21.649l.877.274 1.187-.215.268-.44-1.815-.678-.732-.681-.803.063-.957 1.199c-.034.022.5.399.5.399l1.475.079zm298.31-18.819l.36 1.333 3.888 2.346 3.069.973 1.969 1.47 2.052.524 1.708-.193 1.694.974 1.214-.21 2.728-.998.814-1.493 1.208-1.145-.107-1.835-.969-.673-.869-.038-.168-1 .233-.681-.467-.83-1.138.401-1.774-.873-3.091-.043-2.154.915-1.296.046-.299-.794-.066-1.066-.852-.122-1.436.016-1.987-.422-.846-.56-.214 1.007-1.029.716-2.154-1.012-.661-1.017.038-.869-.972-.381.051 2.377 1.523 3.157zm108.019 72.178l.53-.297-.026-1.115-.864-.476-.704.698.554 1.111.51.079zm-123.235-30.561l1.226-1.23 2.085-.726 1.763.784 2.479.585 1.756-.007 2.814.656 1.307-.511 1.995.248 1.166.569 1.327-.74-.924-1.16-.288-1.26-1.051-2.21-2.069-2.514-1.593-.484-1.584-.804-.925-1.424-1.12-.238-.924.359-1.586-1.067-.924-.196-1.258 1.106-1.787 1.665.113 1.397-.603 2.56-1.429 2.735-1.457.801-.309 1.045.865.33.935-.269zm128.499 29.868l.597-.604-1.428-.713-.405.528.457.74.779.049zM574.809 82.767l.679.523-.038 1.278.611.568.411 1.227-.444.578-.349 1.094-.596 1.013.036 1.76 2.255 2.875 1.17 1.651 2.457 1.925 1.299.217 1.545-.665.683.087.98 1.172.592-.721 1.255-.815.63-1.59.841-.931-.056-.976.271-1.55-1.372-.7-.928-1.688.261-1.23 1.002-.722 1.448-.072.114-.677-2.91-1.582-2.832-.982-1.123.054-1.397-.443-2.646-2.14-1.251-.44-1.977-.333-1.797-.353.551 1.403.625 1.185zm11.603 86.902l.282-.641 1.724-.131.488-.51-.281-.877-.185-1.471-.523.122-.438.959-1.313.539s-1.345-.139-1.439-.247l.81 1.691.875.566zm3.708-109.42l1.122-.462-.291-.559.142-1.08-.314-.447-2.036 1.321-1.086 2.224 1.54-.229.923-.768zm125.355 103.733l.406-.673-.531-.668-.56.436.173.972.512-.067zm9.273 22.013l.46-.925-.178-1.089-.604-.187-.297.434.193 1.706.426.061zm-1.035 1.154l.14-.935-.352-1.097-.777-.194-.209.569.67 1.252.528.405zm28.617-10.4l1.183.076 1.445.629 1.296 1.473 1.144.944 1.505-.06.955-1.054.055-1.361-.736-1.354.475-.308-.232-1.248-1.097-1.168-.365.478-1.018-.304-.966-.819-1.219-.317-.281.495-.785-.02.073.483-.942-.113-.617.979-.356 2.087.483.482zM361.517 92.473l.467.83-.007 1.138.537.085.563-.173.401-.645-.925-.605-.335-1.036-.464-.157-.237.563zm361.196 96.216l.339 1.299.476-.454-.109-1.688-.929-1.132-.482-.074-.017.494.722 1.555zM582.33 119.775l.003-1.255-1.294-2.028-.279-1.579-.86-.358-1.504.061-1.391.902-.085 1.092.554 1.52-.311.636.288.849.942.522.798 1.747 1.035.775.688-.35-.156-.501.703-1.107.869-.926zm137.785 68.07l.506-.594.399-.09-.084-1.391-.645-.546-.239.3-.973.173.399 1.429.637.719zM390.486 61.142l1.789.526 1.699.127.832-.612.679.933.927-1.06-.173-1.526-.792-.403-.469.28-1.051-.281-.955 1.053-1.56-.506-.777.77-.149.699zm-33.454 32.073l-.707.434-.537.88-1.174.568.129.495.725-.109.904-.538.342.452.071 1.184.656-.474.314-.927-.371-.458.375-1.352-.727-.155zm32.032-33.223l1.203-.709.181-.575-.399-.464.578-.52.664-.093-.16-.764-.953-.057-1.139.956-.002.701-.747.075-.432.93.515.607.691-.087zm-28.54-18.597l-.441.286-.291 1.37.473.802.876.42.327.8-.437.959.655 3.382.728 1.119 1.119.237-.904.539-1.195-.02-1.055 1.938.6 2.406.11 1.689-.405 1.491.559.674-.076 1.182-.59.576.425 1.99.268 2.043.856 1.204-.312 1.19.607.86c-.14-.03 1.708-.192 1.708-.192l1.162-1.477 1.713-1.594 1.036-.335-.063-.802.381-.971 3.1-1.24 1.043.046.569.763.925.05.832-1.02.727-.81 1.472-.184 2.325-1.172.522-.94.964-.41 1.568-2.15-.079-1.419-1.191-2.24-.39-1.602.153-1.136-1.685-1.702-1.174-.396-.609.25-.798-.782-1.331-.897-1.202-1.774-.636-.31-.42.465-.83-.498-.068-.92-.698-1.258-.795-.11-.462 1.07-.564-.237-.904-1.799-.621-.657-.186.603.669 1.252-.026.813-.982.492-.159 1.164-.654-.226-.298-.94.632-4.073-1.119-.793-1.144-.535-1.434-1.093-.84-.179-.907.83.036 1.206 1.065 1.044.658 1.308-.644.419-.962-.292-.287-.85-.697-.85-.488-.045.046.887.144 1.111zm.412 48.997l-.467.544.209.395h1.375l.805-.764-.848-.414-1.074.24zm-3.961 12.453l.519.723 1.153.216.843-.113 1.195.429.971-.027.62-.716.101-.475-.368-.195.348-.54-.11-1.133-.991-.152-.774.478.065.657-.501.156-.552-.292-.301-.649-.47-.129-.686.614-.681.177-.893-.336-.738.72.263.552.987.035zm149.852 32.738l.374.576.665-.238.515-1.322.074-1.037-1.811.405-.441.286.054 1.121.57.209zm32.61-46.131l1.384 2.018 1.201 2.885.444 2.724 1.023.83.8-.326.219-1.444-.657-3.237.019-1.603-.898-1.008-2.146-.632-.669-1.807-.885-1.065-.646-.4.072 1.038.739 2.027zm18.245 32.918l-1.416-.359-1.231-1.635-.848-.414-.357.304.21 1.213.503 1.071 1.299.218.958 1.138 1.397.443.988 1.408.743.216.262-.821-1.378-2.046-1.13-.736zm-9.518-35.593l.697.85-.571.346-.841-.033-.037 1.278.87.447.294 1.232-.229.798.557.82 1.332.75.3.794-.353.422.463.712.653-.183.809.319.334.772-.97.436-.339-.335-.895-.19-.506.594.21 1.213 3.137 3.267 1.82 1.205 1.799.206.885 1.065.959.993.136 1.285.922 1.306 1.69.301 1.99-.279 1.565.479 1.043 1.01 1.139.008.769-1.005.237-1.118-.396-1.575.297-.988-.835-.061-.603-.741.078-.919.417-.583.576.59.344.861 1.086.669.291.968-.174.547 1.009.069 1.413-1.424 1.635-2.049 2.482-1.634 1.514.029 1.298-.6.466.42-.666.793 1.196.429.81.728 1.092-.323.282-1.051 2.083-.58 1.205-.854-.487-.6-1.625-.2-2.081.435-1.425-1.413-1.958-.97-.493-.982-1.481-.461-.093-.663-1.511-2.249-.855-.795-.076-2.12-.022-.998-.692-1.286.016-1.312-1.173-.95.125-.587.765-.159-.438-.97.807-.354.451-.196.13-1.025-.505-.516-.859-.913-2.278-.425-1.378-.673-.905-1.244-1.343-.285-1.187-.749-.469.28 1.525 2.048.92.487.389.784-1.511-.32-.338-.335-1.008-.214-.867.78.017 1.435.426 1.434.023 1.817 1.543 2.373.22.894-.683.322-1.474-.08-1.062-1.744-.242-1.892-.81-.728-1.297.046-.699.26-.392-.492-1.094-.495.189-1.304-.184-1.061-1.195-.43-1.044-1.42-1.727-.541-.605-.596-.294-1.231-1.484.24-1.151.602-.302 1.835-.469.28-.217 1.707-.756 1.359-1.609.827-.3.725 1.06 2.446.773.076zm-103.933 45.151l2.902 1.347 1.306.598.616.54.996-.285.432-.931.729-.4.16-.755-.523-.841.383-2.081-.589-.943-.314-1.411.11-.795-.876-.419-2.409.189-2.462.85-1.159-.187-.432.521.09 1.363.877.829.038 1.06-.662.502-1.13-.327-.301.316.439.823 1.779.437zm44.238 17.111l-.196.922 1.595.339.559-.29.486.19.163-.491-.618-.949-1.069-1.162-.939-.258-.667.384-.063.571.749.744zm-87.631-71.236l.027.56 1.248-.23.665-1.203-.409-1.928-1.196-.43-.591.167-.208.979.839 1.697-.375.388zM254.913 42.685l-.621-.658-.791.007-.36.596.224.456 1.184.486.729.973.65.108 1.907-.442.282-.641-.612-.422-1.678.052-.914-.515zM800.511 359.22l.924-1.323 1.183-.889 1.749-.797.652-.183-.05-1.413-.317-1.674-1.083-1.925-.652-.372-.786.534-.298.58-.575.228-1.886 1.44-.647.155-.976 1.02.711.092 1.236-.175.105.197-.596 1.013.004 2.046.448 1.06-.207 1.387-.726.664.075.747.848 1.378.356.251.145-1.372-.344-1.271.489-.51.19-.894.028.006zm-16.424-43.283l.159 1.319.68-.586.21-.715-.286-.44-.323.281-.44.141zm-12.302 162.814l-.417.175.111.578.519.724.647-.155-.036-.796-.824-.526zm-110.672-65.056l-1.31 1.211-.051.925.753.861.943-.998.708-.025.599-.895-.202-.423.468-.689-1.908.033zm-3.809-9.604l-.376-.021-.865.634-1.305.22-.269.994.325.946.489-.101.066-.307.453-.342.604.595.485-.218-.179-.944.624-.598-.052-.858zm4.093 6.888l-.176.693.303.912.405-.528.14-.934-.249-.345-.423.202zm1.542-6.158l-.276-.351h-1.375l-.744-.626-.796.445-.574 1.047-.932.532-.195.923.629 1.857.427-.084.265-.558.474-.308.524.287.6 1.033.948.493.848-.55.512-.622-.277-.76.188-.749.842-.522.321-.545-1.014-.186-.308.489-.761.277-.18-.389.669-.676.185-.457zm.853 7.135l-.552-.702-.228.244.017.471-.648.71.187.361.812-.383.412-.701zm114.047 49.032l-.459.925-.29 2.188-.429 1.194-1.112.144-.943.997-.768-.104-.189.34.692 1.286-.196.923-.783.242.203.423 1.131.182.255.726.436.151.325-1.392.37-.914 1.114-.29.937-.969.217-1.298.376-.943.824-.438-.108-1.28-1.603-2.093zm2.586-.883l-1.016.515-.166.783.587 1.089.504.107.6-.486-.026-1.116-.483-.892zm-7.482 17.052l-.333-1.327.17-1.075-.328-.245-.238 1.119-.647 1.118.622 1.067c.001-.145.754-.657.754-.657zm57.476-66.823l-1.418-1.587-.204-1.241-1.129-.328-.763-1.915.095-.447.7-.407-1.257-.413-.809.091-.84-.178-1.121.872-.092.711.884.655 1.019.158.523.842-.179.429.883 1.765.86.358.791 1.366.57.209.585-.139.904 1.39 1.28.447.38-.415-.408-1.519-1.254-.704zm59.1-175.926l-1.077-.024-1.221-1.136 1.009-.896.971.937 1.012-.224.327-1.537-1.218-.463-.794-.666-.864.489-.304 1.016-.286-.995-1.47.038.562-1.546-.577-.999-1.123.053-.291.961-.338-.89.274-.876 1.474-.33.056-1.917-.65-.518 1.647-.731-.569-1.728.386-.852-1.326-1.743-1.575-.159-1.776 1.2.69-1.869 1.144-.429-.815-1.809.114-1.087-.576-.18-1.159.776-.414-1.081-.828-.644-1.794-.089 1.53-.872 1.639.406 1.739-.887.277.76 1.587-1.825 1.47-.038.527-.969-.495-1.245-2.64-1.203 2.142.104 1.947.472.832-.612-.203-1.387-1.212-.9-.483-1.447-1.206.036.014-.757.786-1.498-.334-3.519.412-.701.868-.78.274-.877-1.087-.669-1.46 1.093-1.195.535.276-1.578-1.067-.343-.274.876-.821.147-.211-.658.553-1.227-3.635-1.473-.935.269-1.719-.716-.85-1.232-.043-.623-1.032-.511-.657.065-.321-.828-1.034-.366-1.437 1.535-1.263.024-.659.211-.756.394 1.539.327-.638.8-1.617.591-.633-.047.188 1.18.923 1.16-.527.414-1.188-.603-.47-2.466.316-.664-.853.024-2.042 1.903-1.281 1.627-1.479.767.087.691 1.868-.947.784.166.292 1.377.928 1.278 1.878 2.035.061 1.503-1.042.772.038 1.06 1.689.037 1.745-.505.675 1.224-.175 1.102.396 2.13-.029.549-.876-1.384-.367-1.715-.684-.495-.92.885.121 1.224.476.51-.279.35-1.004-.506-.639-1.947-1.547-.562-1.469.856-.868-.593-.113-1.397.69-.496-.454-1.441-.911-1.216-.079-1.419-1.978-1.151-1.211-3.938-.956-1.694.309-.489-.629-.893-.966-.41.235.546-.578.93-.454-.477-.275-1.461-2.149-1.859-1.392-.47-1.318.012.08.864.932.841 2.145 1.332-1.816.286-1.937-1.346-.881-1.356.47-.835-.527-.55-1.941-.5.555.556-.137.643-1.808.112-.724-1.41.495-.538-1.91-.785-.517.095-.026 1.221-.964-.555-.278-1.169-1.774-.319.351 1.097-5.04-2.151-1.574.25-1.838-1.121.11-.795-1.718-.862-.267.294-.192.631-.555-.556-1.07-.607-.929-1.132-.833.203.116 1.105-1.745-.458-1.625-.199-.627.889-1.829-.476-3.387-2.092.241-.446 1.961 1.235 1 .796.315-.517-3.071-3.165-4.124-1.373-1.92.089-.527-.55.836-.494-.83-.907-1.337.096.343.452-.955.089-1.263-.94-3.55-2.01-2.034-.199-.878.691-.824-.526-.421-.908-1.282.254-2.255-.538-.867-1.148-.869-.039-1.755-.138-.404-.437-1.003.868-.488.919-.366-1.305-5.198.24-.339 1.184-1.058-.663-.941 1.261-.487-.045-.298-.94-1.776-.173-.188 1.159-.822-.263-1.136.256-1.397-1.407-1.562.194-.33.865-2.786-.651-3.401-.372-.705-.675-2.865-.141-.351.276 1.44 1.62.361 2.152.637.719.097 1.335.531 2.042-.664.647-.282 1.606.687.204 1.327-.74 1.963 1.498.364 1.041.848.414 1.775 2.656.004 2.046 1.632.99.877 1.793-.318.809.203.832-.666.384.59 1.352-.611.397-.78-.458-1.623.619-.012 1.02-1.58-.131-1.128.491-1.984-.714-.623-.921.285-1.342-1.448-3.229-.866-.33-.497.274-2.802-1.267-1.906-.113-.736-.799-1.348-2.331.371-1.47-.929-1.133-1.526-.528-.119-.814-.347-1.535-1.857-.891-.769.45-.431 1.34-.35 1.65.034.942-1.849 1.682-.805 1.173-.611-.978-.007-.79-.6-.069-1.307.511-2.533-.742-2.383.341-.83-.498-1.924.935-1.868-.017-.964-.555-.988-1.408-.827-.234-.521.386-.056.952-2.283.421-1.337.651-2.516-.272-1.845 1.391-.471 2.354-.696 2.862 1.584 3.696-.056 1.916-1.186-2.677-.992-1.525-1.065-.08-1.127-1.028-.014 1.165 1.085.815.2 2.088-.093.71-1.338-2.65-1.119-.238.111-2.314-1.627-2.391-.578-1.817-1.093-.086.099 2.008-.529 1.114-.245-1.6-1.177-1.068-1.726-.133-.274.877-.617-.95-1.679-.356-1.817 1.396-1.471.038 1.147-1.129.109-1.204-.748-2.672.458-1.743-.423-.762.11-1.204-.712-2.43-1.632-2.918-2.318-1.895-1.976-3.224-5.566-3.257-3.144-.756-1.515-.029-2.964 1.152-.247.474-1.284-.565-2.433.301-5.109 1.34-1.796.056-2.409 1.563-1.304.22-2.896 1.518-1.535.345-1.768 1.027-2.15.069-1.604-.983-2.721.006-1.953.52 1.64-1.112 2.242-.78.505-1.003-1.301-2.409-2.945-1.415-2.467-2.569-.822-.672-.611.397-1.726 2.204-.241 1.41-.307-1.03-.703.143-.97 1.401-.997.285-.233-.692.838-1.604.738-.72-.233-1.657-1.323-1.07-1.768 1.027.046.887-1.081 1.231-.561-.937.131-1.58-.426-1.434-.174-1.936-1.526.99-2.129-.306-1.521.554-.818-.554 1.253-.669-.03-1.233.339-1.185-.147-1.375.302-.315 1.876 2.18 1.195-.535.493-1.356-1.472-3.117-3.771-2.35-3.213-1.121-3.777.162-3.395.009-2.488 1.254-.855 6.363-.496 1.648.226 1.275-1.589 1.561-.344 1.622-1.835.925-1.035-.22-.429-.734.262-.821-1.219-1.281 1.056-.565.762.542 1.311-1.767.047-2.561-1.152-.771-.321-2.347.769.514 1.496-.851-.217 1.298.954 1.43.334 2.145.512-.621.475-3.201-.14-2.367-4.486.742-3.681 1.497-.363 1.296-2.098.927-1.043-1.01.476-.863 1.124-.2-.962-1.665 1.336-2.433 1.208.782.691-.087 1.195.985 4.471-.95 1.702-.164-2.954-.686-1.822-.095-2.32-.785-5.278-1.033-1.324.449-7.214-1.007-4.159-.796-2.653-.037-2.487-1.785-2.483-.148-1.912.325.999 1.906 2.099.446 1.074.725 1.217.054.944 1.749-.33.865-2.548 1.533-1.246-.469-2.265.337-.586 1.658-.949 1.025.783 2.65 2.052 1.079.509-1.295 1.566-1.04 2.415-.218-.895 2.148-2.11-.39.664 1.69-.351.276.334 1.181-1.729.567 1.188.603 1.406-.285.436 1.115-.577 1.338 1.156 1.853 1.453.455 1.428 2.64-.573 1.047-.787-.839-1.394.23.111 1.543-.845.258-.569-.763-.842.113-.219-1.449-1.594-1.858-.995.14.436 1.115-1.212.473-.619-.804-.886.455.263 1.516-.22 1.999 1.322.661 1.745-.506.826 1.344-1.158.63 1.195.985-1.309.657-1.578-.832-.047.632 1.527 1.347-2.742-.582-.388-1.339-2.031-.49-.51-1.452-1.366-.729-1.153-1.734-1.902-.405-1.127-1.028-1.077-.024-.572-.472-4.504.825-.445 1.133-.634.508.733 1.091-.446.723.626 1.594-.295.288-.983-1.29-1.025.279-.974-.645-4.959-.469-2.219-.706-1.001-1.761-1.406-.678-1.04-1.711-.423-1.726-1.018-.713-.056.952.502 2.181-.325 3.32.957 4.031.663 3.209-.124 6.781-.633 1.326-.768-.104-.517-1.279-.072-1.038-.826-1.344-.745.339.298.939-.586.694-1.73-.806-1.329-2.415-2.879-.904-.915-1.889-.946-.639-3.223-4.512-.784-.166-.914.448-1.033-.365-.4-.874 2.888-1.753 1.045.309-.72-.737-1.307-1.008-1.102-1.695-.364-.077.198.86.909 1.362-.351 1.24-1.663.669-2.136-1.096-1.904-2.187-.28-1.024-2.319-.784-.202-1.387-.915-.925 2.686.57 2.248 1.121.941 1.076 1.462-.274 1.467-1.675.056-.952-1.068.211-.084-.982-1.153-.216.811-1.755-1.056-1.773-.98.347-.032-1.088-.645-.546-.952.353-.674.558-1.899-.696.188-1.713 2.768-1.603-.006-.937-.996-.269-2.035 1.32.163-1.455 1.137-.81-.134-1.431-.506.038-.604.369-.093-1.218-1.141-.272-.307-.62-.735-.945 1.01-1.451-.447-.65-.858.461-1.126 1.309.113-2.46-.967-1.228-1.332.623-.721-.182-.114-1.807-1.277.781-.599-.069-.468.689-.02-1.698.129-.879-1.679-.356-.811.236-.469-.683-1.931.144-1.108-.293-.398.499.552.702.147 1.375-.77-.368-.625.189-.19.894-.322-.273-1.437.017-.348-.425.751-.921.892-.483-.45-1.323-1.043-.455-.188 1.158-.852.433-.542-1.167-.964-.556-.87-1.412-.552.672-.965-.001-1.607-.282-.321-.828-.465.953-.841.376-1.183-1.449-1.004-.096.055 1.121.178.535-1.608.827-.511-.488-.041-.769-.887 1.01-.137 1.607.638 1.129.046 1.295.584.416-.142 1.636 1.312.57.419 1.054-.395 1.172.827 1.198.196 1.006-1.039 1.036-.574-.327-.19-1.033-1.779.118-1.026-.539-1.207.036.292.967-.977 1.02-1.277-.184-.88-.537-2.995.883-3.937-.193-1.382-.791-1.952-.444-.468.135-.992-.562-5.381-1.376-1.343-1.659-.207-2.469 1.092-1.287.523-.123.292-.96-1.598-1.012-1.859-.336-4.133.875-4.939-.845-4.283.2-2.647-.065-.694.787-.783-.166-.794.708-1.447.481-1.91 1.143.457 1.704.836.47 1.08-.267.427.47-.812.792-.673.003-1.375.964-.052.661-.387-.52.291-2.334-1.344-1.659-.09-.954.476-.863-1.071-1.426-.81-.318-1.886-2.825-.614-.277-.104.767 1.44 2.585-.084 1.355-1.273.898-2.411-.074-.946.325-1.594-.484-2.787-3.397.171-1.22.866-.634.012-1.02-1.827.342-.213 1.415-1.048.801-1.801-1.844-1.781-.291-1.423.779-.154 2.1-1.276 1.19.563 1.756 1.206.928 2.104-.955.374-.797 2.546-.833.308 1.03-.425 1.312-2.635 1.252.504 1.071-1.181 1.151-1.584.161-1.155-1.035-.045.488.371 1.422-1.176 1.27-2.122 1.039.48 1.183-.831.466-.935-.14-2.151 1.179-2.242-.184-2.14-.25-.985 1.193.271 1.753 1.614 2.592.87.448-.927.095-1.635-.289-.598.75.173.562-.803 1.028-1.397.93-1.193-.166-.58.666.523-1.087 1.174-.569 1.528-3.064-.714-.765.074-1.037.668-.53.203-1.505-.226-1.83.938-1.525 1.364-.499.707-.989-.183-2.581-.215-.776.608-.66.835.061.434.297 1.776-.237 1.667-2.48.024-1.076-.392-1.456 1.351-2.781 1.23-1.112 1.453-1.883-.27-1.898-.391-.083-.906.684-.991-.152-1.304-.744 1.293.245 1.682-.899 1.204-.299.821-1.111-.053-.713.872-.662 1.339-1.761-.205-.686.737-1.129 1.693-.4.13-1.024-.606-1.005.041-.605 1.25-1.342-.064-1.211.689-.905.546-.089 1.283-1.773.561-2.364.025-2.186-.709-2.167.506-.593-.096-.926-.658-.345-.693.233-.716-.62-.386-1.075-.363-.077-.969 1.255-.599.34-.57-.618-.419-1.608.323-.282-.498-.544-1.554-.535-.602-1.296.329-.31 1.669.267 1.921 1.284.789 1.103.69-.496.488.045.349.834.025.706.464.157.336-.893-.734-1.5.103-1.175-.562-1.347-.676-.67-.494-.017-.76.277-.74-.508.033-1.395-1.419-1.996.22-1.035-.751-1.007-.436-1.115-.833-.206-1.156.485-.216 1.152 1.108.294.665.725-.333.602-.8.326-.246.883-.591.167-1.599-2.94.274-.877-.398-1.428-1.016-.45-4.052-3.637-1.137-.708-.258-.435-2.756-.381-.01-1.054.556-.554-.035-.796-1.347.006-.402-.582-1.319.012-1.147.72-.389-.374-1.333.768-.703 1.107-1.679-.356-.854-.386-1.883 1.294-2.211.085-.905.13-.493-.572-.895-.19-.627.334-.183 1.275.846.56.695.03.26 1.81-.302 2.243L408.21 95l-1.865-.308-1.736 1.15-2.497.054-.798-.374 1.214-.619 1.056-.155.437-1.368-.96-2.775 1.213-1.583.306-1.162.636-.654-.324-2.056.255-1.202-1.278-1.966-1.098.351-.721-.737-.661-.053-.633 1.326-1.569-.187-.469-.684-1.339.388-1.408 1.395-1.147-.243.106-.913 1.162-1.068.129-.878-.826-.38-2.616 2.541-3.064.518-.92-.488 1.324-1.413 1.402.006 1.737-1.706-.085-1.39.842-.932.174-.548 1.364-.499-.033-.533-1.774-.873-.357-.66.234-1.791-.518-.315-1.92 1.053-1.619-.636-.27-1.898-1.075-.17-1.424.925-1.121-2.02-.828-.235-2.049 1.113-.5.975-1.19.098.516 1.424-1.397.93-.713 1.982.161 1.583-1.642 1.258-1.401 5.633 1.198 1.657-.309 1.454-1.119-.238-.119 1.523.832 1.726 1.221.171 1.013 2.115 1.602.72-2.012.8.245 1.6-.196.922 2.197.672 1.669-.288 1.737 1.186 1.929.556.315.856-1.196.535-1.015-.45-.953-.056-1.323-1.07-3.042.552-.72-.737-1.311.247-1.143-.535-1.12-.238-1.035.745-2.506-.591-1.076.794.123.523 1.17.687.06 1.093 1.515.03.637.72 1.465-.566.831 1.871 1.359 1.312.864 2.813-1.743 2.288-1.913.47 1.635-2.603-.539-.904.374-1.761-1.873-.544-.405-.436.111-.795-.641-.428-1.295.455-1.613-.255-1.684 1.045 1.214.754-.86.607-1.331-.342.62 1.213-.385.707-2.103.956.055-1.362-.474-.246-1.044.508.197 1.415-.761 1.241-1.035-.22.18-1.948-.73-1.383-.387.444.03 1.234-1.511 1.607-.85 1.66-1.119-1.202.16-.754 1.871-2.612-.296-1.086-1.295-.509-3.495.485-1.115-.675-2.041.939-1.016-.449-.915-.925-1.615-.109 1.12 1.611-1.119.726-.372-.312-.065-.657-.434-.297-.742 1.011-.8.327-.626 2.672.595.915 1.696-1.1.551.847 2.372-.84.714.356-.535 1.143-3.901.603-.861 1.161-1.673.579-2.775-.151-.404.937.315.856-2.199.029-1.018-.713-.674.003-.573 1.047-.771.187-1.702.165-.624.597.53 1.223-.51-.079-.601 1.041-.715.199-.381-.958-.476-.101-1.531 1.428.065.657-.521.386-.243 1.146-1.489 1.086-.041 1.16-1.646.176-2.117-.362-1.383.729-.311 1.19.912.252.793-.708 2.734 1.312-.84.785-1.211-.491-.381.416.763.951-.746 2.413-1.286.545.034.942-.445 1.132-.94-2.186-1.19.098-.901-2.091-.854-.386-.381.416.623.921-.153 1.136-.866.635.516 1.424 1.322-.304 1.828 1.032 1.358.492-.026 1.222 1.007 1.178 1.247-.086.714-.198.316.856-1.396.375-1.495-.259-.949-1.312-.777.215-.404.937-.704.288 1.086 2.042 1.069-.211 2.06.35.26 1.808.624.776.776-.624 1.885.488-.589.985 1.507 1.577 1.483.315.522 1.951-1.371 2.046-2.777.959-1.264 1.134-.123.85 1.676 2.577 1.212.9-2.278-.426-2.113-2.581.229-1.354 1.71-2.266 1.111-.553.056-.952.973-1.138-.313-.592-4.667.908-2.416.363-.959 1.345-1.613.3-1.103-.731-1.554.02-2.089 1.163-5.064.707-3.518.042-1.483-.316-1.865 1.211-1.747-.312-1.084.558 1.218 1.427-.341 1.33-.631 1.181.589.943.967.264.12.815-.672.821 1.91 1.75.973 3.128-.603 2.151.284 1.141.559.119-.132 1.725 1.513 1.549 1.485.169 4.183 1.093 1.679-.607-.196.922.34 1.154-.388 1.553 1.667 1.377.617 1.913 3.2.768 1.83 1.849.839.178.944 1.75-.335 3.23.147 1.375-.639 1.354.987 1.963 1.025 1.094 1.359 3.24.145 2.894 1.364 1.838.209 1.36-1.969 2.386-.785-.021-.903-.571.79 2.067 2.057.641 1.013 1.15 1.772 2.948 1.936 1.346.272-.176.852.532 2.319-1.144 2.064.059 1.996 2.031 1.548.971 1.107.294.423 1.726-.243 2.52-.106-2.39-.724-1.41-1.847-.392-2.213-2.661-1.355-.23-2.262 1.565-.418 1.693.033.942-1.922-3.067-2.506-.591-1.123-1.319.363-1.296-.837-1.844-1.802-.879-1.982-.304-1.896-1.951.661-.357.302-1.426.959-.38-.128-1.05.415-2.921-.304-2.285-.831-.907-1.115 1.808-1 .167-.079 1.474-.952.762.186.916-.631 1.18-.802-.082.26-3.977 1.065-.884.157-1.427-1.648-2.016.378-2.053-.487-1.564.401-1.609 2.044-.676.252-.911.032-1.25.799-2.109-1.398-.443-.533.033-.728-1.119-2.94 1.041-3.347-.214-1.745-.459-1.994-3.14-1.239-1.052-.024-1.262-3.493-1.18-1.319-1.361-1.151-1.881-4.299-.825-1.084-.815-1.577.541-1.976 2.006-.437 1.368-.8.326-.527-.55-.496.684.593 1.061 2.322-.88 2.148 1.04.644 2.474-1.866 2.175-1.812-.005-2.554-1.74-1.264-2.314-.923-.196-2.002.889-.708.58-.967.146 1.253 3.188.738.244.121 1.633 1.735 2.296 2.012.574.952 1.166 2.974.866.934-.678.542.202.016 1.026 2.098.446.314 1.966.724.446.08 1.273 2.471.759 1.224-.529-1.111.962-2.636-.122-1.426-1.267-1.146-.389-1.287-2.202-1.004-.505-1.278.371-1.428-.158-1.399 1.077-.212-1.068-.953-1.021-1.254.26-2.182-.464-1.454-1.419-1.542-.035-.408-1.109 1.224-.529.19-.895-.873-1.12.219-1.035-1.53-2.019-.442-1.497.886-1.418-.623-1.886.71-2.654-1.07-1.571.276-1.987-.423-.762-.792-.402.064-1.68-1.495-1.633-.885.309 1.546 5.529.082 3.465-1.213 2.547-2.548 1.942-1.588 1.007-.093.711.734 1.09-.04 1.979-1.345 2.198-.27 1.549 2.043 1.807 2.316 3.005.225 1.83 1.595.339 1.04 1.711.585 2.754-1.213 3.92-.663 1.466.936 2.478-.805 2.692.452 1.586 1.812 2.898-.083 1.355-.529 1.524.466.976 1.628.871 2.056-.731 2.034 1.162.988-.52.776-1.589 1.81-1.222 1.438.802 1.14-.138 1.959 1.79 1.389-.202.458 1.558 2.683 1.827 2.11.389 1.007 2.143-.123.996 1.621 1.455.211 1.067.305.357.072 1.038.719.883-1.158.631-1.274.08-.574 2.011.522 1.951.654.636-.639.945.49 1.273 1.411.241.546 1.285 1.762.374 1.262-1.397.224 1.012 1.275-.08.768.513-.789.271-.568.61-1.888-.197-1.107.116-1.756.007-1.379-1.491-1.466-.399-.626-1.594.734-.428.103-1.586-.844-1.669-.039-1.469-.915-.925.539-1.434-1.152-2.29-.559-.119-.308-1.029-1.779-1.401.356-1.677-1.554-2.317-1.697-.273-3.029 1.869-1.671-.121-1.288 1.246-2.217 1.077-.553 3.564.53 1.223 2.232 2.023.918 4.899-.433 1.077-2.615 2.95-.77 1.969.678 2.043-1.675 2.654-.378 1.089-2.097 1.336-.274.877-1.294.309-1.009.896-.327 1.538.566 1.055-.2 1.214-2.072.67-2.272-1.008-.283-.733-2.138-.395-2.344-.118-1.84-.976-4.4-1.723-1.297-1.883-.304-1.321-1.98-.04-.949 1.025-.319-.564-.809-.318 1.24-1.432 1.848.247 3.599.268.781-.652 2.46 2.188.913.106.502-.711 1.316.279-.252.911-2.067.642.967 1.228 2.297.341 1.178-1.006 1.418-.341.056-.952-.962-1.666.178-.838 1.379 1.081.726-.663.624-2.527 1.633-.529-.047-.741-.971.028-.173-.563 1.492-.413.62-2.644-.355-.806 1.059-.856.046-.633 1.328-.741.207-1.942-1.102-1.695-.29-2.487.692-1.606.341-1.33.568.354.208-.978-1.461-2.21-.854-.385-.62-1.213-1.822-1.059-1.791-3.682.049-2.707-.563-.792.869-.925-1.149-1.062-.47-1.503.82-1.52-1.309-3.2.392-1.845-1.006-1.733.553-.817.234-.827-.809-1.282.326-3.876-.516-1.424-1.264-1.349-.01-2.428-.537-.64-1.152.194.071-.336-1.338-.722-.501-1.772-1.06-1.481-.167-1.555.817-.265.579-1.075-.34-1.153.458-.779-.436-1.115 1.273-3.236-.38-2.068.407-2.192-.495-.836.309-1.453-.487-1.564 1.069-.212-.238-1.219-1.2-.547-1.695-.419-3.351-2.26-1.443-.365-.83.466-.957-.729-1.051-.281-1.705.455-1.747-.312-1.53.318-.313-.593.539-.47-.901-.717-1.038.072-.345 2.585-.809 2.02.766 1.623-.52.386-1.097 2.134.595.915-.359 1.414.224 1.012-.683.877-.252 1.875.62 1.622-1.166 1.359-.109 1.204.233 1.657-.525.677-1.539.637-2.839 2.903-.958.381.004 1.082.528 1.368-.925.914-.629 1.999 1.186 1.713.89-.337.673.961.421 2.427 1.381.381.899 1.272-.848-.414-1.144.984-.187 1.568 1.562 1.734-.297 1.398-1.17.686-.703-.821-.195.922.443 2.87.745 1.035-.026 2.186.796-.854.959.993 1.443.365 1.125 1.174 1.52-1.372.512.752-.463 2.18.674 1.371.67.288 1.889 3.498 1.182.631 1.054-.419 1.147.244.089.545 1.137.154-1.201.562-.645 3.311-.542.761.56 1.493-.416.583-.768-.104-.026 1.776-.25.765-1.228-.553-.873-3.048-1.412-1.615-1.825-.768-.416-1.899-1.061-1.336-3.187-.969-2.97-2.676-1.983-.714.026-1.222-.906-.28-.839-1.142-1.9.269-1.394.784-.331-1.472.556-.554-.157-.91-3.609-2.286-1.507-1.577-5.833-1.589-4.782-.344-1.098-.613-1.245-.06-.886-.919-.563.173-.988-.444-.876.544.308 1.439-.219 1.035-1.389.201-.106.504.598 1.588.739.653.168 2.373.396 1.165.449-1.014.738.244.614 2.205-.098 1.148 1.322.66 1.293 2.174-1.564-.624-.452-.622-.942-.113-.937 1.934-1.341.533-1.519-1.111-1.01.487-.31.635.954 1.839.353.542-.188.749-.798.59-3.076-.799-.538-1.05.454-.897-.326-1.354 1.203-.709.114-.677-.975-1.463-.875-.566 1.149-.866-.134-.467-1.025.279-.655-.081-1.962 1.249-.993-.006-1.361.762-.254.647-1.569-.187-.798.59-.166.783-1.1.497-2.658-.565-.824-.525-.625.188-.8-.228-.608-.714-1.837.662-.472.572-1.301-.072-1.279.926-.091.565.759.833-.468.69.097.78-.498.42-.847-.969-.354-.951-.633-.047-1.602 1.208-.936 1.379.308-1.454-1.186-.749-.986.375-.805-.2-.859.051-.994-.415-.038-1.06 1.514-.935 1.243.206.688-.76-.566-1.464.381-.416.878-.281-1.12-1.611-.777.215-.797-.374-.295-.676 2.492-.581.935.14 1.362-.353-.123-.523-2.282-.134-3.413.648-1.146.575.329.654.121 1.223.293.822-.862.752-.803.063-.886-1.474.545-.497.473-.163-.03-.824-.391-.083-2.742 1.755-.035.576.722 1.147.656.49-.324.837-1.724 1.095-.571-.618.603-.632-.022-.998-.436-.151.056-.952-2.539.249-.474.718-1.845.426-1.29-.537-.81.237-.149.699-3.171 2.54-.742.047-2.86 2.314-1.154.339-.733-1.091-.588-.124.248 1.309 1.368 1.547.084.981-1.827-1.176-.652.592-3.391-.283-.744.339.674 1.37-.182 1.13-1.08 1.232.168 1.964-.699 1.225-2.391.514-.472.572-1.315-.279-.72.636-.471-1.503-1.872.83-1.119-.238-1.78-3.738-2.095-2.666-.794-.665.47-1.799.484-.628.567.5.693-.788-.047-.74.752-.512 1.915.348.737-.72 2.171.52.42-.875-1.244-2.543-.016-1.026-1.357-.493-.961-1.811.294-1.106-1.331-1.306-3.231-1.037-2.308-.285-1.086.295-1.495-.259-2.162-2.213-1.399-.297-.081.655 2.5 3.102 1.495 1.632.371 2.796-.297 1.398.466.976-.593.312-.305 1.162.089.954-.553.263-.593 2.795-.815 1.493.177 1.644 1.837.303 1.177 1.068.687 1.168-.354.568.046.886-.355.568-.092.71.47.539-.61.805-.543 2.835-.653.592.495 1.8-.279 2.278-.635-.865-.149-1.639-1.289-1.501-1.78 1.083.469-1.245-.466-.975-1.855-.628-1.81-.151-.996-1.234-1.491-.55-.976.464-2.029 2.667-2.331 1.199-1.486-.024-1.243.759-.703 1.516-1.729 1.532-1.964.985-.365 1.033.257 1.954 2.093 3.366 1.112 2.749-1.149.866-.935-.14-.224 1.325-1.253.669-.863.898-1.291-1.91-3.525-2.678-1.313-.425-.254-.872-2.109-.535-.923-1.161-.566-1.464-1.636-.698-1.203-1.22-1.41-.241-.447.723.198.86-.429.64.283.732-.95.616-1.185-.339.54 1.867.05 1.414 1.513 1.139.754 1.68 1.323 1.069 1.254-.259.688.204 1.127-.49-.067 1.008 1.236.788-.045.487-.55.526.75 1.007-.493 1.911-.799.181-1.025-.13-1.618 1.146-.724-.446-.878-1.238-1.75-.43-.642-.838-1.924-.438-.465-.566.18-1.539-.92-.897-.596-1.324-.464-.157-1.343.678-2.272-1.417-.346-1.126-.457-.739.712-.872.079-1.473.249-1.174-1.013-1.15.275-1.023-1.334-1.978.213-1.416-.92-.487.45-1.015.994-.139.612-1.916.171-1.22-.39-.228.262-.821.58-.666-.614-.276-.945-2.159-2.554-1.74-.875.398-.479-.773-.98-.209-.58.257-1.407-.533.652-.592 1.244.06.532-.851-1.281-.301.077-.364.973-.173-.709-.793-.958.38-2.094.082-.208-.395.72-.636 1.333-.36-.274-.496-1.764-.784-.14-.994-1.259-1.231.095-1.821-1.126-1.174.358-.304 1.13.182.26.435 1.537.472-.026 1.222 2.195 2.745.822.262.313-.372 1.069 1.163 1.986.422.331-.456.593 1.061-.862.343.399.464-.149.699 1.191.312.69-.497 1.948.472-.563.173 1.033.366 1.245.059-.216.743 1.224 1.809 1.06-.447.964.556.093.662 1.673.385.942.521 1.032-.453 1.235 1.344 1.89 1.015 3.512.951 2.87.258.47-.425 1.819.386 1.044-.509 2.064.059 1.869-.538 2.993-2.666.402-.791 1.706-1.42.178-.839.616-.833.665-1.758.253-1.465.271-1.55-.375-.576-.505.039-.653-1.746-.627-.63-.093-1.626-1.03-1.622-1.016-.449-.398.5-1.263-.941.307-.753-2.095-2.256.328-1.128-1.036-1.594-.644-.136.149.674.671 1.662-.973.173-1.242-1.725-.961-.291-1.419-1.996-.615-.131-.107.503.075.747-.876-.42-.975-2.428-1.098-.613-.676-1.225-3.631-3.693-5.555-4.686-1.297-.918-.303.461-1.12-1.056-1.412-.65.009.645-1.03.307-1.103-.731-1.745-.459-.557-1.228-1.04-.747-.128.323.454 1.032-.315.517-.709-.793-1.289-.128-.576.374.057.831-.89 1.3-1.317-.133.999-.986.856-.315-.313-.592-.923-.196.372-.651.437-.404-.444-.387-.678.44-1.315 1.094.166-.782.241-.446-.258-.435-.686.614-.354.013.078-.919-.93-.577-1.213.619-.077-1.156-.404-.437-1.012.633-.104-1.162.313-1.336.828-.73-.105.767.722 1.147 1.469.107.834.616 1.241-.613.053-.661-.627-.63-.218-.484-.84-.588-.577.374-.525-.696-.454-1.031-1.106-.848-1.152-.362-.334.338.27.788.34.189-.1.475-.763.014-.67-.289-.13.469.882.947-.591.167-.788-.284-.648.709-.494 1.502-.372-.868.284-1.196-.403-.582-1.28-.447-.034.022-.21 1.27-.958.79-1.152-.771-1.054-.136-.234 1.791-1.224 1.084-1.525-.119-1.983 1.214-.492 2.175-.779-.049-.012.056-1.76.298-1.127.491.908.544-.596 1.568-.887 1.973.625 1.185.47 3.022.81.318 1.482 1.279.62 1.622.233 1.247 2.424 2.356.607.859-.973 1.692-1.66 1.752-1.652 2.687 1.116 1.903.164 1.846 1.532 5.175 1.389 6.957-1.173.014-1.095 3.916-.17 1.074 1.138.563-1.077.94-.434 2.041.598 1.179 1.458.572.288 1.259-.6.486-.398 2.283.369 1.568 1.574 1.678-.247 1.847-1.485 1.35-.862 1.716 1.983 4.57 1.482.87 2.011 3.612-.006 1.956-2.695 4.015-3.382 3.664-1.934 2.774-2.281 2.203-2.269 2.557-1.603.39-3.402 2.111-.133 1.725.028.006c.148-.144.261-.266.351-.276.298-.025 1.931-.554 1.931-.554l1.39.061-1.055.565.253.872-.225 1.062-1.106-1.403-.39.735 1.089 1.896 1.437.393.534 1.341 1.399.297.607-.105.98.208.736 1.764-.951.762-1.688-1.001-.815.119-.562.991-1.72.803-1.043-1.011-.819.411-.17 1.22-1.197.126-.284-1.142-.601.077-.149.699.364 1.041-.677 1.259.004.118.358 1.069.042.214-.25.355-1.213 1.028-.794 1.672-.835.349-1.427 4.518 1.733 5.744-.261 1.23-1.158.63-.075 1.182-1.215 1.174 1.196.429-.058 1.098-.377.534.431.588.15 1.084-.34.775.463 1.676.267.67.297 1.904.596 1.324-.144 1.781.527-.005.915.925 1.515-.525.816 2.218 1.66-.378 1.307.453.714 2.285 1.856-.891 1.876-.157.51 1.043.895.19 2.45 1.543.06 1.503-.785 1.499.802 1.456-.398 1.873 1.106 1.812.343 1.826 1.126 2.548 1.041 1.156.098 2.153 1.93.966 1.861 2.528-.076 1.182 1.37 1.401-.83.466-1.665 1.779-3.285-.23-1.082-1.515-.74.865-.236 1.528.815 2.218-.524 1.642 1.089 1.896-.333 1.566.932.432 1.492-.005.134-1.316 1.101-.642 2.836 1.654 3.162.672 1.718-.512 1.409.387.323 3.02 1.062 1.336-.99 1.221 1.209 2.565 3.515.25 1.005 1.324-.105 1.321 1.112.412-.357 1.677.25 2.128 2.222 3.306 1.38-.992 1.54 1.291 1.51-.089 1.283.565 2.41-1.153 1.009.068.73 3.31 1.647 1.607.332 1.327 1.018-.661 2.11.945 1.61.401.999.942 1.363.056 1.387 1.317 1.769.756 1.12-.726.228 1.538.739.654-.294 1.661-1.299 1.156-1.346.006-.956 2.573 1.501 1.604-.094 1.821-1.236 2.104-.103 1.585-1.298.601-3.001-.463-1.767 1.846-.86.197-.952 2.69.016.062.27-.03 1.211.491 1.54-.638 1.67.122.227.72-.532.851-3.586 1.05-1.539.637.485.746.783.166-.973.728-1.424-.594-2.158-.167.454 1.996.705 1.085.763-.423.199.715 1.182.63-.107.504-.825.029-.664.648-.81-.318-.605.368-.1.475-1.567 1.041-.267 1.258.526.55-.654 1.702-1.161-.452-.322.136-.819-.962-1.271-.621-.175.547.285.996-1.012.223-.988.52 1.386.499.711.093 1.382 1.754-.112.941 1.046 1.683 2.308.286 2.076 1.931 1.534.764 3.333 3.717.469 1.648 1.042.602.204.832.8 1.046.968.264.186.916 1.074.725.644.137.67 1.662 1.162.451.544.466.733-.283 1.31 1.681-.083.801 1.442.51.853 2.315.56 1.083-.205 2.615.648 2.183-.568.609.054 1.122-.222.216-.006.028.738.244.014 1.172.653.372.747-.63 1.465.954.785.021 1.056-.565.954.466 2.111 2.727 1.06.518.088.135 2.039-.238 2.873-.033.776.34 3.487.653 1.208 1.747-.943-1.34.331-1.01 2.485-.408 3.054 2.694 2.276.572 1.968 1.615.832-2.131-.634-1.42-1.387-1.317 1.085-2.078 1.727.542 2.397 2.759.491 1.682 2.767.88.757-.95 1.971-.603 2.605-2.077.079-.1-.476-.51-2.71-3.351-1.695-3.311-.017-1.844-.698-1.259.234-1.791-.185-.916-.026-.706-.839-.179.366-1.032.556.41.551-1.081.69-.905-.712-.093-.74.456-1.237-1.197.433-2.041-1.07-.607-.575-1.145-.803.063-.978-.354-.136-2.249.629-1.035.773-.333.481-2.264.683-.877.665-1.203.767-.305.542-1.316.768-.86.222-.771.568.355.487.6.535-.179.4-.645.397.61.689-.35.811.172.97-.437-.061-.538-.824-.526.599.069s.339.335.507.37c.14.03 1.004-.049 1.004-.049l.463.712.531-.297-.103-.752-1.543-1.409.847.005 1.054.545.483-.073.926.46.154-.727-.504-.516.683.087.121-.705-.431-.588.959.028.193-.631.157-.463.056.012.005-.028-1.303-1.3-1.707.193-1.946-1.992.353-.976 2.351.499-1.606-4.694-2.262-3.256-3.735-1.963-.672.822-1.63-2.1.587-.839-.695-1.959-2.31-1.513 1.374-1.929 1.34-3.689-.728-1.119.334-3.084 1.328-.332 2.084-1.69.327-1.537 1.139-.956 2.644 3.658.154 1.202 1.604 1.538 1.938.237.184-1.831.886-.455-.382-5.223 1.951.181 1.986.422.309-1.454-.658-1.308.695-1.343 2.062-.76.851.123.938-1.525 1.072-.503 1.21.637.406-1.082-.071-1.184.48-.745 1.594 1.448 1.324.925-.334.747-1.053.828.484.745 1.29-.427.504-.857.952-.353-.169 1.074.961-.672.328-.719 1.233.116 1.478-.621 1.131.182.321 1.792 1.175 1.213 2.359-.229.995.27.42 1.053.688.205.892 1.855 1.315.279.707 1.494 1.461 1.655.962.292.297.939-.219 1.444.653.372 1.066-1.03.187-1.567 1.352-.443.584 1.38 2.273.863.456 1.295.896.599 1.755-.825.627-2.263 1.316.134.328-1.128 1.045-.1.503 1.071.746-.893 1.474.079 1.413 2.024.221.748 1.77.201.097-1.557 1.045-.099 1.341.431.85-.696 1.289 1.091.8.638-.57.755-1.024.28.9 1.681 1.042.601.609-.25.738.653 1.865.309 1.927 1.665 1.425.04.889-1.155.339-1.185.74-.456 1.659 1.551 1.7.536 2.219-.259.801-.882.72-4.902-.493-.572-1.807-.442-.951-1.166-.081-.719-1.306-.598-.667-.989-1.455-.31.082-.8-.231-.838.298-.58 1.149.098.497-1.238 1.161-.922-.005-1.491-.894-.336.201-1.36 1.793-1.693 1.7-.983 2.634.267.93.578.801-.327.317-1.218-1.126-.619-.772-1.187-.991-.152-.88.427-1.118-.793-1.527-.383.032-.84.632-.363 1.663.295-.196-1.415-1.587-.103-1.026-.539.719-.491-.363-1.596.531-.296 1.333.195.775-.624.884.246.249.755 1.463.135.947 1.048.606-.514.161-.754 1.205-.445 1.108.293.462 1.267.76-.686.33-.865 2.269-.219 1.456.163 1.7-.427 1.652.205.421-.466 1.865-.656 1.523.265 1.121-.463.914.107.762.541.571-.346.217-1.298.83-.466 1.315.279.34-.775.926-.504.541.757.86.358 1.29-.427 1.466-.156 2.976-1.208.588.124.671-.266 1.514.029 1.077-.94.764.397 1.7-.019.134-.907-.392-1.047.749-.221 1.669.267.619-1.125 1.25-.377.726.3.988-.111 1.381.936 1.714.189 1.275 1.293 1.461.281 1.468-.301 1.236.379.183 1.617.392.492.181 1.353.613 1.241.717.619-.009.729-.533.997.008 1.2-.157.463-1.01.077.316 1.266.614.685 1.516-.525.785.985.753-.103.473-1.127.855-.169.13 1.313.756.161.342-.921-.215-1.331.451-.196 1.772 1.983-.17 2.038.485 1.71.74.099 1.097-.76-.634-.457-.188-.77 1.403.006 2.057 1.606.811.172 1.084-.559.616.54-.759 1.095-.898.511-.366 1.587.58 1.263.851.122.884-.718 1.476-.066 2.338 1.11.504.517.868-.371.046-1.451 1.236-.176 1.844.129 1.314-.539.729-.956 1.084-.558.308-.899 1.656-1.051 1.056-.155 1.159-.776 1.393-.084 1.674-.171.61.568-.287 1.079-1.273.898-1.033.043.28 1.024 9.289 10.651 11.073 22.074 1.564.069 1.144-.429.407-.673-.249-.345.229-1.354 1.053-.273 1.584 1.213-.346.803-.066.862 1.322.661.699 1.113 1.086.26.958-.381 1.071.052 1.383 1.2 1.439-.308.988.443 1.304-.219.427-.494-.255-.726.36-.596 2.102.155 2.183.463 1.774.874 1.533 1.728.628 2.003.34 1.563.576.18 1.21.637 1.231 1.226.448.095.806.61-.092.71-.349.54-.18.984.164.882.463.712.214.367.566.091 1.124.765.828.643.455-.487 1.092-.324 2.952.423 1.398-.112.841-.932 1.346-.415.606.45-.852 1.397.15 1.084.848.413 1.115 1.494 1.689 1.001.23.429.756.16 1.136.709.532.113.001-.146 1.461-2.056 1.244-.349 2.796.74.522-.532 1.307-.92 2.107-.283.346-1.212.709-1.135 1.755-.416.234-.827 1.215-.764 1.061-.038 1.095-1.024.632-.362-.57-.618.134-.907.504-.447 1.918 1.021.935-.269.954-1.463 1.062-.183 2.236.212 1.269-.052 1.019.158 1.409.387 1.048-.391.296.121.542 1.167-.009.729.54.903 1.305.19.719-.081 1.101.321 1.054-.419 1.989.277.183 1.061.01 1.054.192.888 2.654 2.375.951 1.167 1.997 1.476.906-.275 1.326-.186 1.523-.699 1.093.086 1.082.551.781.867 1.045-.099 2.646.62.935.696 1.177.104.345-.249 1.099.468 2.13.16 1.54-1.601-.512-.898-1.053-1.1.454-1.861.786-1.908-.052-.858-1.064-.635-.444-.941-1.717-.862-.127-1.605.697-3.007 1.534-1.164.196-.923.829-.875 1.085-.15.568.355.661-.912-.144-1.111.37-.915.932-.533 1.192.312.692.731 1.534.764 1.485 1.134.134.467 1.327.778 1.509.467 2.222.413.721.738.469.684 1.531.5.778.604 1.028.394 2.62.469.896.599.24 1.074-.172.81.437.97-.19.894.445.796.325 1.501-.293 1.106.624.775.744.217.994 1.38.221.748 1.706.917 1.667 1.377.855.24.537-.324 1.857.482.964-.409.912.252.696.441.865-.08 1.306-.92 1.882-.185 2.47.35 1.42-.488 1.606.283 1.634-.12 1.205 1.074 1.783.554 2.391.449.857 2.023 2.004 1.302 1.775.319 1.352-.034.491.718.256 2.099 1.053 1.101.66.607.776.34.82 1.372.912.253 2.851.342 2.286 1.216 3.678.723 1.586.103.717-.344 1.371.291 1.016.859.718.065 1.3-1.302 2.573-.826 1.415.359 1.223-.939 1.037.075 2.815.656 1.44-.863.647-1.119.113-.531 1.017-1.069 1.412-.314 1.091-.732.749-1.185 1.114-.699 1.063.226.314.447 1.92-.089 1.118.383 1.259 1.232.474 1.211.846.56 1.278-.372.514.606 1.131.182 1.544-.519.186-.603 2.12.07 2.146 1.186.457.74.747-.075.838.324.107.461 1.161.042 1.737.632.735.945.723.037 3.526-2.143 1.607-.682 2.294.079 1.147-.721.613-1.097.016-1.311-.417-.381-.553.262-.37-.458-.592-.243.251-1.729.442-.432.352-1.795-.216-1.185.372-.651.811-.237.384-1.117-.568-.909.09-1.384.366-.623-.402-1.137.298-.989.961-1.081.886-.455.555-1.372 1.066-1.03.881-.426.392-1.436-.119-.814.196-.923-.753-.861-.232-1.247-.587-1.644-.72-.328-.916.185-1.55.547-.597-.214-.291-.559.32-1.51.505-.447.131-.616.606-.513.607-1.069 1.121-.873.161-.754.796-.445 1.631.171.808-.091.824.117.271-.176.878.274 1.006-.196.672-.821 1.063.226.866-.634 1.268.503.785.02 1.275.33.633-.363.475.101.56-.845 1.81.151.344-.102.664.316.961.292.709.793 1.923.584.641.837.111.579 1.427.303.871-.107.309.475 1.006.769.523-.123.077-.773.664-.238.485.336.895.191.495-.129.495.836.634.047.746.479.273.643-.305.607.066.657.693.176.179.535.723-.372.803.346.072.628-.461.516.167.591.948.493.605.041.337.481-.097.593.517.46.271.788-.122.851.153.792-.125.587.169.445 1.549.416.02.735-.536.734-.003.7 1.221 1.136.284 1.141.553 1.111.034.943.55.438.173 1.117.658.754-.168.519-.317.663.322.273.647-.154.386 1.075-.02.784.842 1.816 1.908 1.895.148 1.229-.037 1.278.364.486-.177 1.248.616.54.642.283.026 1.116-.318.808.416 1.345 1.069 1.717.93.578.281.877.782.313.663-.093.539.494.535-.179 1.251.442.784-.389.84.178-.065.308-.589.43.315.447 1.341.431.55.438.291.558.655.636.268-.439.669-.121.608.304.407-.673.633.047.381.548.103.752.489.864.654.227.043.622.531.668.342.044.435.706.043.622 1.218.873.249.345.575.18.515.606.804.346.685-.059.739.099.745-.339.499-.01.428.324-.312.781-.692.642-.122.851-.036.723 1.047.164.02 1.143.15 1.084-.439 1.105-.357.304-.19.894.866 1.703.46.449.718 1.438.178.68 1.01-.077.936-.415.862.212.387.93.136.876.815-.119.61-.396.82.408.635-.099 1.801.061.932-.533.703-.142.058-.689.523-1.087.901-.247.208-.978.553-.818.808.055 1.231.262.597-1.159.673-.003.657-.065.364-.887.825-.439 1.037.075.746-.485 1.08.697.559.674.995.27.221.748.378 1.249-.74.457.093.662.77 1.332-.05.925.457.74.66.607-.553 1.227-.281 1.05-.353.422-.959-.028-1.059.856-.119.559.371.868.215.366-.304 1.017-.554.817.245.637.483.482-.205.687.191.479-.045.487-.339.22-.427.085-.225 1.471.208 1.359.199.714-.101.476-.682.322-.424.757.255.727-.149.698.184.653-.929.241-.245.328.233.692-.006.992-.487.364-.793 1.117.02.735.087.69-.325.428-.052.661.215.776-.028.958-.601.486-.699-.148-.546-.321-3.769-1.531-.69-.468-.926-.46-.5.011-1.515 1.49-.43.785-.754.658-.711-.093-.857.315-.37.506.227 1.129.98 2.546.084.982.232.838.591 1.206-.293 1.107-.175 1.511-.08 1.064-.445 2.097.587.68-.148 1.108-.182 1.13-.432.521-.228.799.037.651-.254 1.056-.443.023-1.42-.477-.788.271-.157.463-.03 1.104.41.409-.148.699-.388.589-.034.022.827 1.198.076.192.386.111.806-1.728 1.626.054.385.666.937-1.934.903-.393.615-2.207 1.309-.656.181-1.13.501-.566 1.137 1.118 1.619-.328.569.764-.323 2.21 1.796.907 1.647 1.606.848-.55.589.943 1.708-1.156 1.766.083.402-.791.908.134 1.256-1.369 2.577-2.082-.227-.721 1.563-.339.309-1.454-.202-1.387.864.476.012.353 1.861-1.738-.366-1.305.685-.059.264-1.93 1.25-.378.323-1.246 1.916-.761.355-.568-.403-.582.533-1.406.788-.271 2.264-5.012 1.604-1.354.321-1.1 1.497-.851.588-1.394 1.869-1.502.352-1.24-.574-.327-.076-1.71 1.595-1.035-.062-2.876 1.336-1.06.112-.941-.485-.191 1.317-1.794.282-1.606 1.413-.868.526-1.788-.294-.267.209-2.088 1.199-1.791.515-1.731 2.16-1.499.261-1.639-.366-1.305.307-1.863.521-.386.365-1.441-.941-.113.21-3.052.306-.753-.242-.928.633-2.291-1.303-2.263-.56-.119-.39-1.193.623-.452 1.262-1.398-.021-.589-1.286.545-.938-.403-.398-4.321.276-1.023-.006-.936.257-2.312.598-.749-.356-3.144.946-.734-.555-.556.411-.556.262-.82-.415-.527.911-1.121-.278-1.169.33-.865.886-.455-.839-1.142.119-1.523.708-.58.002-1.11-.932.532-.976-.499-1.034-1.33.341-1.33.878-.69.154-1.136-1.178-2.442-.907-.134-.918-1.597.946-.325.304-1.017.863-.898-.62-2.176-.739-.099-.576-1.145-.971-.382-.164-.882-2.45-1.543-.438-.969-1.631-.58-.621-.658-.385-1.63-.723-1.001-1.403-.415-1.156-1.444-1.658.787-1.205-.109-.664.647-.7-.148-.357-.66.203-.542-1.005-.914-1.215-.2.142 2.221.792 1.367-.729.955.232 2.211-.832 1.577-.89.336.242-1.555.551-1.49-.399-1.838-.666.794-.032 1.249-.895 1.738-1.617.592-2.831-.163-.245-.637 1.175-.714.699.148.235-1.791.755-.803.611-.396-1.314-.426-.836.495-.327-.8-.911.157-.815 1.083-.862.343-.318-.155-1.059.856-1.282-1.675.556-1.518-.1-2.008-1.007-2.142.671-3.159-1.42.078-.53-.259-1.156.485-.994.14-1.777.791-1.185-.34-.84-1.142-1.27.198-.987-.999-.428-1.289.847-.959.609-1.215 1.574-1.623.195-.923 2.046-1.231.517-2.023 2.174-1.145.388-1.554.635-.098.053-.661 1.561-1.568.521-1.35 1.18-1.152-.206-1.504.58-.666.391-2.254 1.329-2.815.476.101.816-2.193 1.087-.295.005-1.401 2.112-1.685.535-1.551 1.393-.639-.254-2.246.716-.344.365-1.442.885-.309.547.175.229-1.354-.363-1.041.594-2.387-.037-1.614 1.311-1.767 2.253-1.655.924-2.287-1.072-2.798.521-1.351 1.4-.812.615-1.243 2.595-1.202.591-1.131.802.083.649 1.073 1.335.05 2.488-1.254 1.837.303 2.056-.732 1.242.351 1.449-.627 1.051.282 1.093.086.756-.804.915.925-.789 1.235.824.526.894 1.3.871-1.072 1.157-.63-1.478-1.717.143-.671 1.559-.457 2.308.841 1.166-.396 2.488.675.23.984.615.131.86-.607.894.336-.116-1.105.874-.399 1.969.506.62 1.213 2.574-.418.196-.922-.666-.58-.593.312-1.317-1.097 1.232-1.258.09.954 1.912-.324-1.404-1.38.223-.77.795.11 2.039-1.612 1.745.458.774.895 1.087-.295 2.064 1.023 1.708.217-.27.585.664.726.831-.058-.313-1.001 1.836.302 1.692.71 1.089.378.958 1.138-.035.577 1.479.607 1.283-.809.938.404.12.814-2.466 1.142-1.902-.404-.613.542-.127 1.287-1.035-.22-.467.544.433.442.979.209 1.148 2.581.634-.508 1.994-.161 1.003-.868-.179-.535 1.39-.347-.65-1.482.755.16 1.207 1.893.865.329.726-.663-.441-.678.937-.415.759-.686.364.077.31-1.044-.052-.858.911-.158.615.686.974-.319.519.724-.034.986.744.626 1.956-1.221-.613-.831.223-.362 1.082-.413.796.52.862-.343.782.312.355-.567-.82-1.372.319-.4.052-.661-1.152-.771-.599-.623-.193.221-.023.521-.699-.148-.967-.819-.377.124-.019.639-1.141-.272-.571.347-.867-.739.562-.991.659-.211-1.176-2.587 1.14-.547-.815-1.809 1.039-2 .347-1.358 1.133-.928.51-1.849 1.442-1.009.263-1.375-.322-.273 1.36-.208-1.171-2.06 1.53-4.175 1.192-.652-.891-2.001.114-1.641-.708-.793.208-.57 1.27-.607.188-1.713.851-.286 1.806-1.896 1.413.505.841-.376.802.491.839-.785 2.263.363.292-.551.977-.056.501-1.12.532.113.509-.331 1.427.304.008 1.199.643-.272.452.213.407 1.664.475.101 1.281-1.072.215-1.561.859-.052.566-1.428.55.029.122 1.078 1.097 1.168-.231 1.499-.477.454.401.728.155 1.202-.996.694.482.482.091 1.364-.382.006-.202.951.257.58-.698.67-.464.398.261.698 1.277-.78.236.955 1.165.569-.239 2.229.717-.345.257-.939 1.306-.774.821.262.389.784-1.393 1.603.883 1.21.101 1.453 1.114-1.662 1.014-.369.188-.749.636-.654.715-3.091.996-.694-.701-.967 1.215-.765.292-.96-.383-.403.145-.407.519-.241.728-1.773-.567-.91 1.063-1.702 1.106-.525 1.762-.035.24 1.074.763.951.608-.66-.599-1.033.497-1.238-1.635-1.253-.081-2.647-.711-.648.059-.689-.963-1.11-.012-1.872.583-.402-.007-1.346-1.139-1.381.381-.971-.429-.734 1.95-1.193 1.305.19 1.392-1.048 1.555.388.571-.346 1.482 1.834 1.719.307.6.478 1.23.407.769-.041-1.729.568.624.775-1.354.18-1.328-.633-2.059 1.433-.335.893.345 1.68-.19 1.304.607.859v.964l1.039 1.857-.053.661.138.175-.414.438 1.174.805.027 1.525-.176.693-.635.508-.338 2.967.412.262.626-.743.43.179.433 1.406.315.856-1.12 1.691-.554 2.336.797.929.89-.337 1.112.412.206.54-.418.73-.721-.183-1.338.651-.385-.111-1.848 1.127-.39 1.144-1.583.57-.382.561-1.023.133-.389 1.145-.846.814.149 1.638.961-.117-.446 1.687-1.473 1.703.058.831.56.528-.978 2.539-.024 2.04-.806.763-1.511.234-.458 1.189.431.588-.813 2.311-.51.476.044 1.032.904 1.39-.946-.23-.831 1.985.271.788-.326 1.538-1.273.898.476 1.474-.566 2.393.302 2.431-2.681 3.258.733 1.645-1.104-.585-2.158-.166-.505 2.376.128 1.05-1.658 1.196-2.157-1.685-1.441.863-.1.884 1.595.339 1.64 3.708-.782 2.99-.692.641.522.988-1.057.155-.781 2.025-1.721 1.359-.821 2.484.578 2.373-.349 4.396 1.109 3.04-.457 2.153 1.38 6.721 1.89 7.209 2.251 6.058 1.193 2.094-.308 1.863 3.256 6.01 2.906 9.587 1.945 1.581 1.611.401 1.081-.267-.668.939-1.154.339-.878-.274 1.061 2.855 1.262 5.761-.184 2.24.884 2.174 2.347.791.185.916-.323 1.246.14.994-.503 1.266 1.915-2.544 1.214-2.547.411-.146.407-1.228 1.762-.999.518-1.059-.161-.619.723-.927.984-2.567-.462-1.267.526-1.787 1.203-.708-.87-1.412-.777.214-.741-.362.615-.833-.465-1.94.652.373.606-.514-.948-1.458.447-.723.62-1.271-1.333-.195-.591-.798.899-1.065.996 1.234 2.175-1.291.882.392 1.243-.759 1.335-.505.331.508 1.369.437-.64-1.392-1.572-1.269.41-1.52-1.483-1.279-.399-3.766 1.387-2.948-.782-1.277.944-.588.568-1.574 1.624-2.138-.373-.722.876.419 2.254-.836.143.703 3.935-.625.199-1.624 1.047-.8-1.233-1.08-1.475-3.381-.923-.196-2.115-5.328.304-1.017-.705-1.085.774-4.334.399-.5-.088-2.064 1.164-1.214.268-1.258-1.499.033-.175-.826 1.537-1.456 1.251.032.196-.923-.319-.564.944-.588.092 1.217-.466 1.508-.827 1.139-.234 1.791 1.726 1.097 1.317 1.507.911-.157.44-1.659.726-.664-.563-2.165-2.232-2.987.656-2.812-1.179-.922-.264-.407-.471.426-1.139.547-.081.655-.745.338-1.119-1.202.547-2.162-.61-1.532-.666-2.509 1.121-.872.525-.268-.122-1.078.971-.991-.588-1.089.463-.662.147-1.108-.772-.631-1.049-.019-1.766-2.011-1.269-.357-1.05.536-.1.885 1.17 2.06-.427 1.049-.593.312-1.362-1.02-1.188-2.531-.876-1.384-.815-.845.607-.514-.538-2.423.245-1.292.21-.714-.348-1.389.632-.772-.224-1.976.941-.851.12-1.115.661-1.32.273-1.286-.727.255-.924-1.57.269-.439.932-.124.959.993.191-.485-.735-.945-.795-1.075.57-.756.476.101-.058-.83-.716-1.174-1.204-.665-.129-.904.663-.093.001-1.519-.852-1.496.388-.999.617-.979.716-.344-.562-1.347.335-.747.901.162 1.083.961.747-.075.877-1.655.954.057.425 1.025.632.193.638 1.538 1.869-2.466-1.236-.789.479-1.154 1.11-.407 2.036-2.285.436-1.368.668 1.398.989.853-.201 1.359.646 4.257.575 1.145.723-.372 1.108-3.154.646-.973.017-1.457.919-.886-.567-1.874 1.067.899 1.005-.605 1.097-2.133 1.215.199 1.671-1.397 1.393-.085.536.64 2.322-.88 1.664.704 2.842 2.591-.002 1.11.894.336 1.11.002.545.466-.649.301 1.341 2.359.775-.478.837 1.288 1.503.085.908.544.164-1.046-1.315-2.763.637-.654-.204-.832-.724-.446.377-1.088.926-.914 1.087-2.779 1.291-1.946-.128-1.05 1.679-1.571-.298-.94.887-.455-.474-2.175-.739-.653.137-.643 1.764.229.873-1.217-1.641-1.225-.435-1.116.843-.113.507.78.881-.017.487-.919-.285-.996 1.467-.711.124-.996-.538-1.049 1.024-.28.679.524.701-.961.472-.572-.512-.751 1.094-.06 1.708-1.156-.37-1.014.492-1.21.539.903 1.514-.935-.409-1.927.374-1.761 1.024.276.124.377.848-.551 2.352-1.984-.724-.446.293-1.106 1.131.182 2.503-1.455-.777-.75.583-.402 1.527.383 2.214-.786-.364-1.041.443-.432.61.568-.002 1.11 1.042.601 1.015-.369 1.165 1.124 4.505.957.635.865.663-.093-.305-1.73-1.043-1.01.13-.615.899-.102.638-3.692-1.088-2.86-1.272-.621-1.12-2.575 1.064-.739-1.315-1.798-2.661-1.237-2.356-2.4-.65-2.037-.585 1.103-.818-.554-.525.268-.521 1.351-1.348.151-.309-.883.425-1.312 1.449-.628-.656-1.454.369-.36.783.167.745 1.035-1.643-4.381-1.477-1.717-.622 1.826-.051.515-.857-.095-1.776-2.656.39-1.144 1.161.451-.339-1.153-2.666-3.283-.53-.259.146.966-.724.927-1.754-.139-1.174-1.769-1.45-.746-1.034-2.703.166-.783-.647-.809-1.095.06-2.265 1.301-.148.699-1.004-.506-.946.325-.681 2.514.551.848-1.016-.859-.304-2.285.85-1.66-1.667-1.377-.272-1.752-.541-.203 1.149.098.89 1.592.323-1.247 1.411.242.915.925 1.86-.774-.378-1.249-2.983-2.065-1.078 1.085-1.695-.418-1.213-.9 1.337.313 1.434-1.244 1.123-.054.865.885 1.553.535 1.213 1.309 1.371 2.22 1.258.413.394 1.311.876.42 1.511-.644.521.988 3.278-1.525.234.547-.585 1.103 1.23-.557.315-1.482 1.964-1.949-.186-.916.412-1.665-.11-2.507 1.862-3.812.558-2.628-.856-1.613-.121-1.633-1.478-1.716-.391-2.012.575.181.805 1.719.258.026-.086-1.801-1.401-1.115-1.523.29-2.348-1.2-2.553-4.779-.722-.592.362-.741 1.843.275.754-1.213-.603-1.151-1.449-.337-.459-.594.914-.449-.361-1.742.282-.086 1.014 1.968 1.699 1.501.52-.796-.571-1.027.326-.982-.218-1.04.746-.484.511.897.242.928 1.058.663-.182 3.058-.403.937 2.535 2.935 1.261-.434 1.209.783-.414 2.22 1.142.272 2.909-2.683.751-1.331-.241-1.483.775-2.406-.087-1.246.389 1.339-.193 1.595.757.015 1.261-.842 2.217-.114.553-1.226 1.951 1.144-.403.382.262.553 2.503 2.81.383.403.177 1.645-.233.681.595.506 2.705-.068.404.436-.131.615.364.077 1.223-.938-.374-1.131.301-.316.75.189.058-1.653.888.364.298.939-.526.824 1.203.255 1.166-.395 2.807.83.676.67 1.003.096.229.574.598.215 1.113-.698-.162-2.402.36.369.922 2.27 1.901-.414.234-.827-.521-1.951zM840.21 414.079l-.641-.838-1.202-.401-.626-1.185-1.427-.712-.615.278.408 1.11 1.135.299 1.06 1.482 1.75.985.547.73 1.7-.019-.381-.548-1.708-1.181zm-56.447-101.571l-.377.534 1.026 1.503.595-.049.175-.547-.596-1.325-.823-.116zM320.156 135.197l.517-.095 1.356-.734.256-.793-.439-.824-1.132-.182-.33.865.048.741-.552.671.276.351zM46.934 287.433l-.938-1.368c-.056-.012-.68.995-.68.995l1.095.905.523-.532zm277.743-89.131l-.235-.955-.458-.185-.263 1.375.427.88.529-1.115zm-4.326-57.688l.895-.774-.986-.589-.775.069-.013.611-.488.51 1.367.173zm445.409 35.687l-1.128.081-.517.504.356.806.903-.538.386-.853zm-440.376-32.397l-.556-.965-.868-.594.177 1.645.545.466.702-.552zm-3.442 55.161l.937-.969.399-3.392-.485-1.71-.432-.034-.429 2.159.303 1.467-.59 1.949.297.53zM123.601 229.8l.053-.661-.505-.925-.64-.019-.164.637.651.927.605.041zm-36.568 11.077l-.776-.34-.962.672-.15.844.745 1.035.167.591.51.079.264-.557-.368-1.16.527-.414.043-.75zm92.281-24.72l.872.302.708-.58-.289-.704-.641.127-.65.855zm82.265 27.527l-.802-.492-.811-.173-.035.577.758.424-.077.773 1.159 1.152 1.349-.152.588-.43-.232-1.247-.92-.488-.977.056zm-16.612-34.412l.056-.952-.451-.768-.856.315-.125.587-.454.488c-.028-.006.167.59.167.59l.78.458.883-.718zm77.129-17.128l.236-.972-.611-.977-.518.094.315 1.411.578.444zM764.702 497.64l.54-.615-.604-.187.064.802zM181.793 215.778l-.069.599.291.559 1.111-.962.134-.907-.847-.004-.62.715zm-7.466-37.406l-1.276-.738-.08-.865-.716-.619-1.457-.164-1.017.661.025.706.744.626.664-.093.818.554-.154 1.136.96.437.622 1.476.428.325.233-.681-.427-.88.829-.875-.196-1.006zm11.229 30.843l-.54-.349-.947.325.091.399.721.183.675-.558zm-34.972-1.673l.457-.225.811.728-.542.761.923.196 1.102-.642 1.305.189 1.942-1.019 1.41-1.132.451-2.124.928-.651.222 1.158-.72 1.6 1.222-1.348.303-1.425-.862-1.586-4.029-2.784-1.966-.797-1.459.537-1.29 2.355-.703 3.036.464 1.53.031 1.643zm13.543 4.805l-.198.659.419.089.385-.298 1.431.012.738-.311-1.531-.5-1.244.349zm22.861-3.266l-1.048.391.758.424.413.672 1.087.523-.22-1.303-.99-.707zM13.73 333.467l-4.083-3.906-1.627 1.466-.45 3.907 2.202.234 2.018 2.474 1.448.483.059-2.617.433-2.041zm188.242-130.085l.364-.887-.538-.494-.377 1.498.551-.117zm1.426.449l-.411.555.976 1.464 1.684 1.848.067-1.418-1.745-1.422-.571-1.027zm2.96 5.888c-.044-.068.952-.762.952-.762l-1.015-.041.063.803zm-10.268 2.493l-.829.876.468.275.778-.361 1.854-.19.572-.492-1.054-.546-1.789.438zm-6.46-1.664l.389.784.777.194.299-.579-.822-.672-.643.273zm-24.791-42.577l-.543 1.317.07 1.183 1.36 1.721-.104.766 1.378 1.637 1.024.685.693-.233 1.038-.071 1.334-1.324-.041-1.732.507-1.149.993-.958-.862 1.307-.246.883.353.952.109 1.688.708.384.937-.414.178-.839.933-1.088.177.681-.281.495-.182 1.131.806 2.128 1.249 1.142.991.152.964-.409.522.433-.408.41-.672-.143-.552.671-1.098.352-.373.651.912 1.216-.106.912-.712-.092-.652-.372-.104.766.529.814 1.783.554 1.107.849 1.296-.046 1.408.942.154-1.137.652.373.231.838.12 1.778.785.985.823.116 1.054-.828-.013-1.317-1.447-1.038-.482-.482.597-.195.854.386 1.049.983.341 1.007.299 1.349.459.039.5-.975.517-.094.492 1.127 1.2.956.885.1.155-.726-.857-1.059.107-.503.551-.117 1.088.933.351.688.358.105.148 1.229.621.658.625-.189.432-.93-.28-1.024-.744-.216-.508-.634.313-.372.528.404.699.149 1.032-.862.468-.69.086-.682-1.107-1.258-.777.215-.92-.488-.557-1.784-1.231-.261-1.704-2.028-.438-1.378-1.315-.28-.947-2.976-1.568-3.08-.248-2.828-.731-2.201.557-3.037-.521-1.951.181-3.468-.108-.87.78-.915.02-.785-1.01-.477-1.018.251-.631-.748.363-.332 1.649.497 1.549-.548.723-2.301-.026-1.115-1.111-.003-1.184.07.56-.436 1.754-.27.456-.634-.363-.632-2.266-.481-2.871-1.078-.987-.998-.98-.208-2.485.962-2.071-.44-.886.455-1.838.807-.431 1.34-.564.728.052 1.267 1.034.366.353.542-.395.617-1.107-.293-1.37.118-1.382 1.547-.375 1.352.445.796 1.045-.1 1.717-.511.139.584-1.327.741-.438.959.672.142 1.019-.806.831-.057.167.591-1.169.686-.414.847.687 1.169 1.232.261-.783.243-.851-.122-.944.588-.15.845.41 1.373-.627.334-.55-.438-1.185.069-.754-.715-.83-.089-1.348 1.116-.205 1.242.037 1.615zm566.976 364.99l.518.314 1.246-.495.391-.881-1.006.195-1.149.867zm33.239-38.08l.094 1.072.56-.846-.11-.724-.544.498zm-1.986 3.844l.045.477.524.286.304-.607-.528-.404-.345.248zM210.102 202.421l.871-1.071.108-2.023-1.964-1.907-1.089-1.897-1.201-.401-1.052-1.655-1.139-.972-.214-.922-1.295-1.473-.828-.235-.784.389-.059.689-.987.52.485 1.155.972.382-.349.54-.663.092-.735-.945-.493-.017.234 1.102 1.621 2.828 1.061.926.574 1.291.57.209.375-1.352.812.581 1.093.086.263.553.071 1.593-.337.483.551.848 1.542.59.794-.708 1.192.721zm555.961 288.672l.363.632.553-.263-.476-.51-.44.141zm3.169-10.371l-.365.477.552.293.371-.097-.14-.439-.418-.234zm5.895-19.492l.402-.791-.996-1.234-.794.298-.292.961.431.588 1.249.178zm-22.849 48.088l-.849 1.105-.57.346-.602 1.041-.582.402-.379.679-1.103.789-.772 1.706.596.36 1.589-1.007 1.204-1.263.908-.421.317-1.218.649-1.265 1.622-1.437-.659.21-1.369-.027zm-22.849 17.117l-.624-.366-.491-.718-.459.37-.533 1.406-.581 1.221-.61 1.769-.871 1.071.092.809.846 1.524c-.026-.152.424-1.722.424-1.722l1.149-2.794.591-.167 1.814-1.105.537-1.288-.364-.077-.92.067zm-4.954-172.44l.24-.855-.791.007-.812.792-.286.933.548.174 1.101-1.051zm45.75 129.07l-.578 1.484.507-.184.572-.492.316-1.072-.291-.559-.526.823zm-59.006 22.264l.303-1.426-.94-1.222.043-1.715-.234-1.102-.991.257-.811-.172-1.453-1.419.134-1.87-.509-1.599-1.231-1.634-.876-.42-.724-1.41-.081-2.238-.585-1.79-.127-1.604.478-1.973.281-2.424-.494-1.391.719-2.009.149-1.254-.534-1.75.759-.685.42-.875.121-.705.605.041.664.316 1.498-.032 1.42.477 1.131 1.146.465 1.939 1.186.749.965.964.751 1.971.634.457-.255-1.691-.898-1.827-1.49-1.66-.623-1.886-.743-1.735.167-.783-.569-.764-.684-2.424-.229-1.539-.744-.625.087-1.238-1.356-2.567-1.037-3.376-.071-1.592-1.571-3.344-.668-2.362-.765-.805.274-1.286-.457-1.295-.746-.48-.168.519-.738-.244-.151-.529.466-.953-.174-.971-.999-.943-.812-1.546-.259-1.808-.42-1.053.111-1.35.516-.913.232.283.067-1.826.141-2.045-.016-1.435-1.119-.792-.984-1.7.032-.84-.529-.814.131-.615.561-.027.904 1.39.791 1.921-.205-1.65-.976-2.428-1.106-1.813-.532-.113-.138-1.139-2.069-2.514-.548-1.548.517-2.023-.527-.959-1.698-1.092-.472-1.911-.334-.626-.579.519.335.627-.134.906-.759.131-.765-.805-1.025-.13 1.239 2.016 1.865 1.682.408 1.109-.459 1.334.7-.406.718.065.129.904-.6.486-.917.185.058.83.911.252.047 1.296-1.104.379-.888-.364-.542-1.167-.943.588-1.022 1.507.858 1.468.055 1.531.91 1.771.648 2.183-.413 2.629.323.682-.164 2.011.166 3.074.564 2.164 1.167.979.015.617-.671.266 2.393 3.605.93.578.987 2.372-.041 2.124-.479 1.563.629 1.858-.261 1.23.859.913.874 1.529-.441.287-.056.952.913 2.444.017 1.435.26 1.808-.314 2.3.276.906-.423 1.166-.182 2.095.469 2.612-.442.841-.183 1.685.978 1.318 1.667 3.305-.256 1.202.567 1.873-.77 2.525-.126 2.106.604 2.115.034 1.351 1.2 2.476-.028.958-.779 1.879-.715 2.537.205 1.65 1.091 1.196.504 2.035 1.343 1.25.123-1.406.509-1.294-.288-1.259-.089-1.509.673-1.931 1.327-.741.529.404-.19.895.598.624 2.426.281.377-.533.617-.015.261.698-.403.382-.112.94.996 1.644-.069 1.153.539.904.234-.827-.109-.724.363-1.296zm50.217-3.328l-.836 1.459.384.256.618-.569.595-1.978-.402-.173-.359 1.005zm-17.474 13.701l-.831.058-1.63 1.202-.482.891-.767-.105-.992.403-.59-.388-.224-1.012-.31.081-.639.945.221.748-.648.71-.995 1.103-.525-.141-.065.717-.591 1.131-1.092.323-.289.669.457.74-.564.318-.426.903.023 1.407.641-.126.643-1.237.999-.577.165-1.601.706-.434.193-.631.689-.351.584.417 1.011-.633 1.31-1.621 1.512-1.198 1.401.152 1.076-.385.177-1.248-.148-1.23z" fill="#AFE6FF"/><path fill-rule="evenodd" clip-rule="evenodd" d="M378.82 440.532l1.461-2.056 1.238-.321 2.802.712.522-.532 1.307-.92 2.107-.283.351-1.24.709-1.135 1.756-.416.206-.833 1.243-.758 1.061-.038 1.095-1.024.632-.362-.537-.64.129-.879.504-.447 1.924.993.935-.269.954-1.463 1.062-.183 2.236.212 1.269-.052 1.019.158 1.409.387 1.042-.363.302.093.536 1.195-.037.723.567.909 1.305.19.692-.087 1.101.321 1.054-.419 1.988.277.184 1.061.01 1.054.192.888 2.632 2.342.945 1.194 2.025 1.482.878-.281 1.326-.186 1.545-.665 1.093.086 1.082.551.781.867 1.045-.099 2.652.592.928.724 1.177.104.318-.254 1.099.467 2.158.166 1.54-1.601-.512-.898-1.053-1.1.426-1.867.786-1.908-.058-.83-1.058-.663-.45-.913-1.711-.89-.133-1.577.697-3.007 1.534-1.164.196-.923.829-.875 1.085-.15.596.36.661-.911-.172-1.117.398-.909.904-.539 1.192.312.72.737 1.534.764 1.457 1.128.134.467 1.321.806 1.515.439 2.222.413.721.738.469.684 1.537.472.778.604 1.022.422 2.62.469.868.593.24 1.074-.166.782.437.97-.19.894.445.796.325 1.501-.26 1.084.597.77.744.216 1.022 1.386.199.714 1.706.918 1.695 1.382.855.24.515-.358 1.851.51.964-.408.912.252.702.412.837-.085 1.306-.921 1.882-.184 2.47.349 1.419-.487 1.613.255 1.628-.093 1.211 1.046 1.777.582 2.418.456.858 2.022 2.004 1.303 1.769.346 1.352-.034.497.69.256 2.1 1.053 1.1.66.608.776.34.82 1.372.911.252 2.858.315 2.28 1.244 3.677.722 1.587.104.744-.339 1.371.291 1.017.859.717.065 1.3-1.302 2.58-.854 1.415.359 1.223-.938 1.037.074 2.814.656 1.441-.862.647-1.119.113-.532 1.017-1.069 1.412-.314 1.091-.732.749-1.185 1.107-.67 1.064.225.348.425 1.92-.089 1.117.384 1.259 1.231.474 1.211.874.566 1.284-.4.509.634 1.103.176 1.537-.491.187-.603 2.12.07 2.146 1.186.517.87-3.368 9.248-.182 2.094-.878 1.654-.093 1.266-1.382 2.511.57 2.137 2.635 2.05 2.252-1.1 2.49.529 2.563 1.012.998 1.498 1.998-1.971.089-1.384.328-1.128 1.819-.169.729-.4 2.587 1.309 1.186 2.268 1.805 2.516 1.293 2.583 1.917 2.131-.17 1.074.269.934-.281 1.05-.596.604-.213.861-.658.62-.881-.392-.435-.706-1.323-.106-.835.349-1.546-1.117-1.111-.003-1.446 1.3-1.964.985-1.11.407-.947-1.048-.505.039-.272 1.14-.59.576-.869-.039-.642-.282-.636.653-1.407 1.396-.678 1.814-.189 1.303-.838.64-1.353.035-3.14 1.29-1.455-.309-1.446-.628-.812.382-1.664 2.188-1.325.595-1.585.716-1.03.716-.571.901-.639-.019-1.157-.888-1.446-.629-1.704-1.063-1.285-1.383-1.505-.349-2.48-.03-1.652.759-1.169 1.096-.66 2.693-.139 1.344-.262.821 2.356 2.4 2.186 2.1-.155.727-.865 1.043-1.061 1.002-3.327 2.449-2.147 2.261-1.329 1.85-1.008-.214-2.089.199-1.473-.225-1.888.768-1.94.873-1.759-.257-2.572-.283-1.831.224-2.134.132-4.697.638-3.714.409-2.144 1.56-3.11 1.56-1.293.719-1.461-.281-1.706-.918.143-.671-.028-.97-2.791.196-2.192-.144-1.967-1.616-1.727-.542-3.581-2.28-3.481-2.609-1.621-2.419-1.611-.401-4.348-1.42-3.711-.701-.932-.431-.767.304-.506.594-2.203.321-2.97-.339-5.003-1.501-3.769-.567-2.791-.768-2.516-.272-1.26-.121-.986-.59-.807-2.947-.253-1.426-.883-2.175-.79-1.512-.32-1.937.077-.773-.694-1.141-.852-.531-.592-.243-.109-.724.063-1.126-.384-.257-.589.021-1.729-.397-1.277-1.148-1.922-2.103-.748-.334-.537-.085-1.044-.455-.383-.812-1.642-1.634-3.967-1.836-.443.022-.627.335-1.687-.183-2.698-.515-5.742-2.564-1.177-1.068-.926-2.388-.022-.998.196-.923.528-.559 1.016-.515.624-1.007-.522-.987-.005-1.491.446-.724.207-1.387-.343-.862-.482-1.447-.801-.637-.813-.991-.194-1.151-.447-1.06-.099-1.189.034-.986-.463-1.121-.813-.991-.858-.504-.294-.822-.952-.611-.941-.112-.74.456-.731.137-.562-.383-.748-1.298-.195-.597-1.175-.249-1.328.331-.589.43-.372.652-.594-.097-1.037-1.038-.117-.96.061-.426-.642-1.246-1.065-1.045-.704-1.23-.634-.456-.519-.724-.141-.848.116-.823-.199-.714-.22.07-.133.352-.443.022-.276-.905-.286-.441.347-1.358-.014-.763z" fill="#9ED4F9"/><path fill-rule="evenodd" clip-rule="evenodd" d="M153.472 428.395l-1.353-1.34-1.708.193-1.946-1.991.354-.977 2.35.499-1.605-4.694-2.262-3.256-3.77-1.94-.671.821-1.631-2.099.594-.868-.701-1.931-2.311-1.513 1.375-1.929 1.339-3.689-.727-1.118.333-3.085 1.3-.337 2.079-1.663.332-1.565 1.139-.956 2.645 3.659.154 1.201 1.603 1.539 1.944.208.197-1.886.858-.461-.354-5.217 1.95.18 1.987.422.309-1.454-.658-1.308.716-1.309 2.063-.759.851.122.91-1.53 1.072-.503 1.21.637.433-1.077-.076-1.156.48-.745 1.593 1.449 1.324.924-.34.775-1.081.822.513.752 1.284-.4.51-.885.952-.352-.17 1.074.962-.673.328-.719 1.227.144 1.477-.621 1.131.182.293 1.786 1.176 1.214 2.387-.224 1.001.242.414 1.082.693.176.921 1.861 1.315.279.706 1.494 1.462 1.655.961.292.298.94-.219 1.443.652.372 1.067-1.029.187-1.568 1.357-.471.584 1.381 2.273.862.457 1.295.896.599 1.754-.825.627-2.262 1.289.127.355-1.122 1.017-.106.532 1.078.745-.894 1.447.074 1.446 2.001.193.743 1.771.201.097-1.558 1.044-.099 1.348.403.849-.696 1.283 1.12.8.637-.569.756-1.053.273.901 1.681 1.042.601.608-.25.739.653 1.865.309 1.927 1.666 1.43.011.889-1.155.333-1.156.741-.456 1.659 1.55 1.693.564 2.225-.287.802-.881.719-4.902-.498-.544-1.807-.443-.952-1.166-.081-.718-1.306-.599-.667-.989-1.455-.309.082-.801-.231-.838.299-.579 1.121.092.497-1.238 1.183-.889-.005-1.491-.922-.342.195-1.331 1.799-1.722 1.694-.955 2.634.267.93.578.806-.355.318-1.218-1.126-.619-.778-1.158-.957-.175-.88.427-1.147-.799-1.527-.382.027-.813.638-.39 1.657.323-.219-1.449-1.586-.104-1.054-.545.718-.49-.363-1.596.537-.325 1.361.202.776-.624.856.24.277.76 1.44.101.947 1.049.607-.514.16-.755 1.206-.445 1.107.294.468 1.239.754-.658.302-.871 2.269-.219 1.457.163 1.693-.4 1.681.211.421-.466 1.87-.683 1.517.293 1.094-.469.913.106.762.542.571-.346.245-1.292.831-.467 1.343.286.34-.775.92-.477.541.758.859.358 1.29-.428 1.466-.156 2.977-1.208.587.125.671-.267 1.515.03 1.071-.912.736.39 1.728-.013.134-.906-.364-1.042.743-.192 1.647.232.613-1.096 1.228-.412.725.301.989-.112 1.38.936 1.715.189 1.275 1.294 1.455.309 1.496-.296 1.235.379.183 1.617.421.498.18 1.353.614 1.241.717.62-.003.7-.539 1.025-.02 1.194-.151.435-1.011.078.316 1.265.615.686 1.515-.526.785.985.753-.103.474-1.127.854-.169.125 1.342.755.16.348-.949-.186-1.325.451-.196 1.772 1.983-.17 2.039.485 1.71.745.07 1.07-.766-.607-.45-.187-.77 1.403.005 2.084 1.612.784.166 1.084-.558.622.512-.787 1.089-.898.51-.339 1.594.58 1.262.852.123.883-.718 1.482-.094 2.332 1.138.533.522.868-.371.045-1.451 1.236-.176 1.873.135 1.313-.539.729-.955 1.084-.559.302-.871 1.656-1.05 1.057-.156 1.159-.776 1.386-.056 1.674-.17.611.567-.288 1.079-1.251.932-1.026.016.307 1.029 9.295 10.623 11.068 22.102 1.57.041 1.116-.435.434-.667-.254-.317.235-1.382 1.046-.245 1.613 1.219-.374.797-.067.863 1.316.688.706 1.085 1.085.26.958-.381 1.043.046 1.411 1.206 1.446-.336.988.444 1.298-.192.427-.494-.284-.732.361-.595 2.108.126 2.182.464 1.768.901 1.54 1.7.599 1.998.341 1.562.61.159 1.209.637 1.232 1.225.447.095.835.616-.093.711-.354.567-.18.984.163.882.463.712.215.367.537.085 1.124.765.829.644.454-.488 1.093-.323 2.951.422 1.426-.106.842-.932 1.345-.415.579.444-.853 1.397.15 1.084.848.414 1.116 1.493 1.688 1.001.307.621-1.347.97-1.092.323-1.991 1.389-.264.966.227.72-1.04 1.182-1.961.284-1.286.545-.527 1.378-.468 2.618.686 2.688.815 1.809-.346.803-1.901 1.379-1.45.217-1.325 1.005-.932.123-.541-.349-.159-.764-1.063-.226-2.519.02-1.594-.484-2.228-1.35-1.363-.465-.746-.071-1.125 2.683-.906 1.648-.375 1.352-1.314 3.432-.582 2.739-.503.857.586.68 1.297.918-.849 1.106-.348.948-.783-.166-.823.293-.951-.202-.597-.77-.861.197-1.526.026-2.833-.017-2.057.322-.868-.184-.672-.552-1.124.2-1.311.802-.213.861.864 1.031 1.73.25 1.392.471-.097.593-1.052.683.202 1.942-.112.94.359.924-.049 1.333.755 2.089.01 1.054 1.108 1.258-.037 2.651-.892.482-.629 1.035.78 1.422-.62.161-.316.663-1.347.561-.283 1.605-1.29.428-2.593-1.282-1.989-3.578-1.151.048-2.354-1.581-3.702-1.02-2.018.272-2.955-1.504-3.087.075-1.558-.098-1.305-.744-1.327.741-1.254.259-3.262-1.16-2.348-1.2-1.127-1.029-1.943-.354-.737.165-1.437-.393-1.128-.473-.782.243-.145 1.371.072 1.447-.316 1.628-1.968-.097-3.823-.725-4.438-1.41-.933-.841-1.989-.685-1.409.986.294.822-1.556.575-.308.49-.358-.105-1.598 1.326-1.152.193-2.99 2.374-1.196 1.499-.884.718-1.746 2.025-2.949 1.77-.549-.584-2.473-1.987-2.011-.719-1.902.005-3.079.865-1.263-.385-1.044-7.614-4.241-1.514 1.645-8.708-2.269.219-.777-4.051-2.635-3.014-10.107-2.118-9.358-.965-4.489-4.197-3.503-2.234-8.304-8.951-16.883-.373-1.231 30.3-.913-.106-2.603.002-2.994-5.457-3.836-3.415-3.843-1.459-3.248.42-4.502 2.608.199-1.623-.027-1.525 1.056-1.529.592-1.685.074-.627.285-.378-.388-.375-1.327-.223-.89-.628-1.06-.517-.985.229-.512-.342-.256-1.136-.402-.582-.324-1.091-.494-.427-.468.135-1.2.008-.526-.141.433-1.486.143-1.226-1.285-2.347-.148-.821-.468-.274-.168-1.409-.583-.562-.24-1.074-.98-.617-.967-.264-.566-1.055.209-.569.634-.508.602.332 1.821.241.444.386.739.099.445.386.784-.388.585-.139.952.611.401-.236-.177-.68-1.221-.172-.316-.301.19-.894-.906-1.654.019-.639.67-.266.236-.973-.077-.6.894-.629 1.426-.106 1.169-.131.828.643 1.274-.08 1.037.075.431.588.603-.223.867.185.748 1.298.98.208 1.423-.37.315-.517-.802-.492-1.122-.501-.467-1.794.487-1.328.889-.191.572-.492-.287-.441-.279-.614-.099-.635.967-1.109.308-.899-.749-1.153-.132-.758.664-.648.021-.375-.775-.34-.298-.94-.055-.567-2.075-.557-.754-.307-.859.052-.229.389-.742.193-.187.603-.659.211-.796-.52.023-.521-.734-.127-.502.303-.412-.818.252-.911-.214-.367-.559.291-.783-.167-.477-.51-1.595-.339-1.051.682-.47.836-.378.124-.342-.453-.588-.124-.907.829-.654-.226-.67.676-1.247.64-.542-.202-.344.657-.577.374-.319-.564-.525-.141-.529.56-.861-.213-.177-.68-.398-.055z" fill="#8BD0FF"/><path fill-rule="evenodd" clip-rule="evenodd" d="M259.046 522.813l1.267-3.763 1.929-2.746.736-.574.166-1.746-1.124-.765-.303-1.876.855-1.133-.017-1.436-1.747-.312-1.188.361-1.102-2.659.376-1.907 1.439-.717 2.653 1.002 1.184-.07.471-1.39 2.557-.333-.184-1.062-.431-.588 2.795-.078 2.255-.427.323-1.246-1.707-1.327.393-1.436 1.692-.254 1.872-.83 1.241.352 2.353-1.575 1.052 1.655.291.968 3.123.167 2.097.591 2.123-1.594-.047-1.296-2.495-2.984-.77-.368-.536 1.698-1.307.92-1.036-.629-.865-1.294-2.576-1.366-1.021-.976 1.278-1.336 2.572-2.609.189-1.303-.983-.326-1.598 1.326-1.152.193-2.99 2.374-1.196 1.499-.884.718-1.746 2.025-2.949 1.77-.549-.584-2.473-1.987-2.011-.719-1.902.005-3.079.865-1.264-.385-1.043-7.614-4.241-1.514 1.645-8.708-2.269.219-.777-4.051-2.635-3.014-10.107-2.118-9.358-.965-4.489-4.197-3.503-2.234-8.305-8.951-16.882-.373-1.231 30.3 2.885.321 2.48.994.918-1.295-.838-1.288.022-2.304 1.907-2.37 1.911.23 1.3-1.301 1.571-.514 1.339 1.132.794-.299-.742-1.735 2.794.885 3.736 2.927 3.102 2.879.151 1.493 4.061 3.463 3.239 2.646 1.116-.435 1.218.463 2.154 2.386.319 3.866 1.042 1.156.109 1.689.88 2.875 1.919 1.43 3.511 3.434 3.444 3.887 4.183 3.022 3.57 3.709 3.161 1.226.555.966 1.021.012 1.956 2.081-.422 1.575-.253 2.839 1.864-.1 1.185.894.518 1.279.827.234 1.209-.737 1.04.338.389.784z" fill="#96BEFB"/><path fill-rule="evenodd" clip-rule="evenodd" d="M252.016 520.121l.252-2.839.422-1.575-1.956-2.081-1.021-.013-.555-.965-3.161-1.226-3.569-3.71-4.184-3.021-3.444-3.887-3.511-3.434-1.918-1.43-.881-2.875-.109-1.689-1.042-1.156-.319-3.866-2.154-2.386-1.218-.463-1.116.435-3.239-2.646-4.061-3.463-.151-1.493-3.102-2.879-3.736-2.927-2.794-.885.742 1.735-.794.299-1.339-1.132-1.571.514-1.3 1.301-1.911-.23-1.907 2.37-.021 2.304.837 1.288-.918 1.295-2.48-.994-3.798-.427-2.603.002-2.994-5.457-3.836-3.415-3.843-1.46-3.248.421-4.502 2.608-.079.509.75 1.153.229.983.819.963.133 1.168.875 2.348-.638 1.764-1.028 1.125-.38 3.163.504 1.071.112.988 1.699 2.464.032-.84-.511-.898.447-.314 1.753.694.964-.409.381.549-.575 1.192.096 1.336.821-.147.558 1.228-.443.432-.97-.527-.735.019-.43-.588-1.344.679-.147 1.108.452 1.177.163-1.456.735-.019.448.504.922.342.4 1.283 1.473 1.189.13 1.314-.408 1.783-.034.986-.755 3.141.102 2.272.5 3.291 1.414-.46 3.058.474.882-1.536.997-.84 1.053.136 3.037-1.634 2.704.078 2.193.963.757-1.359 1.296-.046 1.102.731 1.377.263 1.837 2.231 1.79.935 3.128 3.032.964.146 1.122-.463 2.27 1.563 1.24.497-.05 1.889.498.544 1.353-.034 2.181 1.018 1.754 3.996 2.639.794 1.43.976.611 1.941-.643.828.211 1.622-.252.911.296 1.085.663-.093 1.293.655.819.963 1.008.214.972-.582 1.063.225 1.157 1.298.146.966.431.588.752-.512 1.85.101 1.081-.822.368-.769.932-.533-.129-.904 2.122-.63 2.507.036.355-.568 1.084-.558 1.027-.016.736-1.538.36-1.56 1.748-1.206.273-1.286-.47-.538.25-.765.675-.149.772-.333 1.684-.08.498.135 2.138-.978 1.544-.11 1.071 1.016 1.408-.022.331.509.264-.003z" fill="#91D1FA"/><path fill-rule="evenodd" clip-rule="evenodd" d="M12.469 341.468l1.573-.659 2.359-.23 1.429 1.122 1.76-.444 1.082.142-.236-1.92 1.781.291.982-1.457 1.14-.138.266.816 1.343.286.285-1.342-1.423-1.15.756-1.767.903.016 1.609-1.791 2.334-.527.268-1.258-.89-.627 1.824-1.57 2.12-.485 2.646.212.619-1.534 1.176-.305.715-1.163 1.588-.043.909.953 1.487-.531.816 2.218 1.66-.378 1.307.453.713 2.285 1.857-.892 1.903-.15.516 1.015.895.19 2.45 1.543.033 1.497-.758 1.505.802 1.456-.398 1.873 1.079 1.806.37 1.832 1.127 2.548 1.04 1.156.099 2.153 1.93.965 1.86 2.529-.047 1.187 1.37 1.402-.83.466-1.694 1.773-3.284-.23-1.054-1.51-.768.86-.203 1.505.816 2.219-.524 1.642 1.06 1.89-.332 1.566-.134-.058-2.767.084-1.86-.19-1.367 2.164-.579 2.039-1.379-.118-.867-1.148-1.876.156-.892-.891-1.3-.217-1.416 1.16-.964-.555-.002-1.228-1.631-.58-2.153.77-.756-.57-1.815-.678-.645.418-.851-.122-.811-1.137-2.305.387-.126-.786-1.356-1.048-3.413-1.28-1.327-1.187-.75-.189-1.512.789-1.977-.332-4.412-.295-1.188.362-1.767-1.457-1.009-.068.159-.609-.81-2.247-.09-1.918 1.245-1.313 1.326-.186.792-3.864-.597-.769.063-1.536-.567-1.464-.317-3.047-.213-.513z" fill="#72C3FA"/><path d="M100.518 402.069l-1.502-1.604.956-2.573 1.34.022 1.327-1.15.294-1.661-.738-.654-.229-1.538-1.119.726-1.776-.728-1.415-1.323-1.363-.056-.993-.97-1.644-.379-2.104-.973-1.018.661-.31-1.293-1.675-1.612-.73-3.311-.981-.062-2.437 1.147-1.262-.531-1.51.089-1.539-1.291-1.352.998-2.222-3.306-.25-2.128.356-1.677-1.112-.412.106-1.321-1.034-1.33-3.487-.244-1.237-2.571 1.018-1.215-1.061-1.336-.324-3.02-1.41-.387-1.716.512-3.162-.672-2.83-1.682-1.102.643-.161 1.309-1.465.011-1.093-.496-2.767.085-1.86-.191-1.367 2.164-.58 2.039-1.378-.118-.867-1.148-1.876.157-.893-.891-1.299-.218-1.416 1.16-.964-.555-.002-1.228-1.632-.58-2.152.77-.756-.57-1.816-.678-.644.419-.851-.123-.812-1.136-2.304.387-.126-.787-1.357-1.048-3.412-1.28-1.327-1.187-.75-.189-1.513.789-1.976-.332-4.412-.294-1.188.361-1.767-1.457-1.009-.068-.303 1.017-.538 2.807.61.977.32 1.938 1.281 1.266-.674.558-.006.992.287.85-.755 1.767-1.013-.186-1.132.783-.93 1.76-4.667 3.391-.077 1.736-.482 1.856-1.157-.334-1.83 2.416-.719 2.01-.293.142 1.164 1.679 1.325 1.333.182 1.207 1.243.206.944-.588 1.203.255 1.938 1.756 1.723.424 1.462 1.1.38 1.103 1.156.889 2.062-.205 1.31.161 1.286-.954 4.267.147 1.611-.564 1.453.046.103-1.585.372-.651.098-1.703.89.627.342-.366 1.048.983.523-.532 1.343.285.582-.402.593 1.616 1.595.339 1.534 2.137 1.946.618.456-.633.588.124 1.498 2.305 1.367 1.138-.065 2.236-.427 1.458 1.223.99.053.713 1.22 1.69 1.565 1.443-.008 1.138-.5.975.53 1.223-.36.595-1.83-.33-.808-1.019-1.707.192-1.188-.194-.664 2.167-.265 1.522-.598-.215-1.599 1.881-.287 1.078-.942-.521-1.038.481.617 1.913 1.602.72 2.26.51 1.162-.513 1.938.236.858 1.059.028.006.455-1.043-.433-.852.3-.725.212-.86.337.889.812.173 2.916-2.303-.225-.866.671.143 1.604-1.354.327-1.537 1.015-.515 1.473.225 1.53-1.282.563.792-.127.323 1.12.238.651-.592.71-.725.243.782.637.719.88.538 1.948-.083-1.482.503-.872.253-1.048-.573-2.186-.172-1.371-.292.4.874 2.21.47 1.694.973-.381.416-.76.277.756.979.822.262.983.88 1.457-.391 1.537.063 1.246.879.86.767.66-.766.507.371-.01.319.837-.085.309-.49 1.29.537.876-.544.758.833 1.288.274.35-.686 1.16.042 2.263-1.564.4-.646.555.557.089.544-1.54 1.192-.507.185.16.618.817-.264 1.713-1.594.447-.723-.516-1.016-.203-.832.571.063.493 1.537.754.306 1.43-.543 1.54.736 1.208-.591 1.261.122.446.241 1.612-1.119.84-.786 1.36.202.73-.956.942-.442 1.481.461 1.676-.317.626.221.003.673 1.258-.142.976-2.802.86-.197 1.767-1.845 3.002.462 1.297-.601.103-1.585 1.236-2.104.101-1.849z" fill="#91D1FA"/><path fill-rule="evenodd" clip-rule="evenodd" d="M24.108 392.675l.103-1.585.372-.651.099-1.703.89.627.34-.366 1.05.983.522-.532 1.343.285.583-.402.592 1.616 1.595.339 1.535 2.137 1.945.618.456-.633.588.124 1.498 2.306 1.367 1.137-.065 2.236-.427 1.458 1.223.99.053.713 1.22 1.69 1.565 1.443-.008 1.138-.5.975.53 1.223-.36.595-1.83-.33-.808-1.019-1.707.192-1.187-.193-.665 2.166-.265 1.522-.598-.215-1.598 1.881-.288 1.079-.942-.522-1.038.481-.048-.186-.427-1.844 1.475-5.705-.69-1.987-.085-1.8-2.727-3.268-.019-1.289-1.993-2.732-.146-2.894-2.523-.098z" fill="#96BEFB"/><path fill-rule="evenodd" clip-rule="evenodd" d="M124.982 466.958l.331-1.011 2.485-.407 3.054 2.694 2.276.571 1.968 1.616.832-2.131-.634-1.42-1.387-1.318 1.085-2.077 1.727.542 2.389 2.932.491 1.682 2.767.88.757-.949 1.971-.604 2.679-2.148 1.091 1.196 1.374 2.892-.171 1.22.415 1.9 1.762 1.893.016 1.026 1.101 1.286 1.663.295 1.452 1.009.623 1.477-.894-.336-.97.436-1.641-.261-2.201 1.14-.199 1.623-.049 1.333-.748.63-.378 1.089.25.754-.191.895-.7.406-.451 2.125-.53.705-.244-.782.677-1.259-.649-1.072-.571.346-.572.901.11 1.688-.348.949.195.597-.521 2.314-.603.223-.96-.438-.243-.782-.906-.689-1.568-2.671 2.272-.92-1.237-1.197-.205-.687.886-.454-.639-.983-.336-1.036-.558-.264-.035-.387-.637-.165-1.332.623-.931-.023-1.003.868-.793.153-1.344 1.234-.649-.109-.545.498-.344.657-1.192.244-.803-.492.056.012.285-1.342.561-.436-.557-1.784 1.588-.042-1.142-1.645-1.745-.459-2.421-2.092-.414-2.045 1.002-.722.177-1.248-2.057-2.57.178-1.248.75-1.33-.998-1.498-2.157-.721-.893-1.3zm6.413 20.47l-1.857-4.748-1.416-.768-.564-2.165-1.063-.226-.83.467-1.275-1.849-1.092.323-1.069-.198.163.473.251.054.654 1.19.795.111.217 1.185-.274.877 2.377 2.024-.054 1.216 1.423 1.15 1.611.4 1.527 1.347.476-.863z" fill="#9ED4F9"/><path fill-rule="evenodd" clip-rule="evenodd" d="M115.536 465.856l2.067-.233 2.873-.032.747.334 3.488.653 1.208 1.747 2.157.721.992 1.526-.745 1.302-.183 1.276 2.057 2.57-.177 1.248-1.002.722.42 2.017 2.421 2.092 1.745.459 1.142 1.645-1.588.042.557 1.784-.561.436-.279 1.314-1.486-.024-1.858-4.748-1.415-.768-.564-2.165-1.063-.226-.831.467-1.274-1.849-1.092.324-1.075-.17-.316-.856-.837-1.289-1.193-.165-1.885-.488-1.565-1.443.432-2.45.796-1.818-.37-1.422-1.066-.49.076-.772-.753-1.271z" fill="#96BEFB"/><path d="M135.953 468.324l-.832 2.131-1.968-1.616-1.667-.412-.028-.006-.609-.159-.466-.421-2.56-2.267-2.513.401-.325.983-.271-.379-3.459-.647-.776-.34-2.873.032-1.23.148-.815.119-.088-.136-1.032-.511-2.051-2.598-.066-.102-.976-.499-.661.356-.367.214-.785-.02-.974-.645-.491-.309-.175.138-.572.492-.652-.372-.017-.471-.005-.118.007-.583-.765-.25.005-.028.222-.216-.054-1.122.568-.61-.648-2.183.205-2.615-.532-1.077-.881-2.32-1.442-.511.083-.8-1.31-1.681-.733.283-.544-.467-1.162-.451-.622-1.476-.054-.158-.14-.029c-.022-.034-.078-.046-.1-.08 1.138-.401 2.616-.613 2.616-.613l2.938 1.588 7.339 2.757 4.797 1.925 3.708 1.956 3.332 1.935-.884.718 1.475 1.044 2.678-.22 2.086.092.414 1.082.629-1.035.695.031 3.066 1.673.712 2.021-1.064.739.878 1.238s.828 1.608.856 1.613l-1.091 2.106 1.387 1.317.634 1.421z" fill="#72C3FA"/></g></svg>