<svg width="38" height="51" fill="none" xmlns="http://www.w3.org/2000/svg"><g filter="url(#filter0_d)"><path d="M18.904 3.078C11.237 3.078 5 9.316 5 16.982c0 9.636 13.918 26.096 13.918 26.096s13.89-16.934 13.89-26.096c0-7.666-6.237-13.904-13.904-13.904zm4.195 17.975a5.915 5.915 0 01-4.195 1.735 5.914 5.914 0 01-4.195-1.735 5.94 5.94 0 010-8.39 5.892 5.892 0 014.195-1.738c1.584 0 3.074.618 4.195 1.738a5.94 5.94 0 010 8.39z" fill="#0098D6"/></g><defs><filter id="filter0_d" x="0" y=".078" width="37.808" height="50" filterUnits="userSpaceOnUse" color-interpolation-filters="sRGB"><feFlood flood-opacity="0" result="BackgroundImageFix"/><feColorMatrix in="SourceAlpha" values="0 0 0 0 0 0 0 0 0 0 0 0 0 0 0 0 0 0 127 0" result="hardAlpha"/><feOffset dy="2"/><feGaussianBlur stdDeviation="2.5"/><feColorMatrix values="0 0 0 0 0.21276 0 0 0 0 0.381625 0 0 0 0 0.5375 0 0 0 0.4 0"/><feBlend in2="BackgroundImageFix" result="effect1_dropShadow"/><feBlend in="SourceGraphic" in2="effect1_dropShadow" result="shape"/></filter></defs></svg>