<svg width="24" height="24" fill="none" xmlns="http://www.w3.org/2000/svg"><path opacity=".8" fill-rule="evenodd" clip-rule="evenodd" d="M7.711 7.154C7.711 4.863 9.635 3 12 3c2.365 0 4.288 1.863 4.288 4.154 0 2.29-1.923 4.154-4.288 4.154S7.71 9.445 7.71 7.154zm2.145 0c0 1.145.961 2.077 2.144 2.077 1.182 0 2.144-.932 2.144-2.077 0-1.146-.962-2.077-2.144-2.077-1.183 0-2.144.931-2.144 2.077zm6.315 4.038a1.096 1.096 0 011.515 0 1.016 1.016 0 010 1.47 8.1 8.1 0 01-4.768 2.22l3.056 2.96c.42.407.42 1.063 0 1.469a1.087 1.087 0 01-.758.304 1.09 1.09 0 01-.758-.304L12 16.93l-2.458 2.38a1.096 1.096 0 01-1.516 0 1.014 1.014 0 010-1.467l3.056-2.961a8.1 8.1 0 01-4.768-2.22 1.016 1.016 0 010-1.47 1.096 1.096 0 011.516 0c2.3 2.227 6.042 2.227 8.34 0z" fill="#0098D6"/></svg>