<svg width="41" height="40" fill="none" xmlns="http://www.w3.org/2000/svg"><rect x=".5" width="40" height="40" rx="20" fill="#33ADDE"/><path fill-rule="evenodd" clip-rule="evenodd" d="M16.21 16.154c0-2.291 1.924-4.154 4.29-4.154 2.365 0 4.288 1.863 4.288 4.154 0 2.29-1.923 4.154-4.289 4.154-2.365 0-4.288-1.863-4.288-4.154zm2.145 0c0 1.145.962 2.077 2.144 2.077 1.183 0 2.145-.932 2.145-2.077 0-1.146-.962-2.077-2.145-2.077-1.182 0-2.144.931-2.144 2.077zm6.315 4.038a1.096 1.096 0 011.516 0 1.016 1.016 0 01-.001 1.47 8.1 8.1 0 01-4.768 2.22l3.057 2.96c.42.407.42 1.063 0 1.469a1.087 1.087 0 01-.758.304c-.275 0-.55-.102-.758-.304l-2.459-2.381-2.458 2.38a1.096 1.096 0 01-1.516 0 1.014 1.014 0 010-1.467l3.057-2.961a8.1 8.1 0 01-4.768-2.22 1.016 1.016 0 010-1.47 1.096 1.096 0 011.516 0c2.3 2.227 6.041 2.227 8.34 0z" fill="#fff"/></svg>