<svg width="24" height="24" fill="none" xmlns="http://www.w3.org/2000/svg"><path d="M14.613 15.383c-.69-.39-2.01-1.233-3.447-2.671-1.437-1.44-2.289-2.772-2.684-3.469l2.317-2.35L4.95 1 2.067 3.867a3.634 3.634 0 00-.706 4.15c1.026 2.115 2.919 5.307 6.11 8.503 3.192 3.196 6.38 5.091 8.491 6.118a3.58 3.58 0 001.572.362c.942 0 1.873-.369 2.572-1.069l2.869-2.882-5.969-5.987-2.393 2.32zm4.28 5.335a1.907 1.907 0 01-2.181.375c-1.994-.97-5.005-2.76-8.028-5.788-3.023-3.027-4.811-6.042-5.78-8.039a1.913 1.913 0 01.374-2.182L4.94 3.429l3.444 3.469L6.41 8.9l.238.535c.039.087.975 2.159 3.304 4.491 2.33 2.334 4.382 3.252 4.468 3.29l.528.232 2.037-1.975 3.566 3.577-1.66 1.668zM16.86 9.092l-4.037-4.043 4.037-4.043 1.213 1.215-1.924 1.926h4.267a2.58 2.58 0 012.578 2.577L23 11.232l-1.715.002-.006-4.51a.862.862 0 00-.863-.859h-4.351l2.01 2.012-1.214 1.215z" fill="#0098D6"/></svg>