<svg width="30" height="30" fill="none" xmlns="http://www.w3.org/2000/svg"><path fill-rule="evenodd" clip-rule="evenodd" d="M10.078 10.653L4.963 9.192c-.678-.194-.677-1.159 0-1.352l9.844-2.813a.703.703 0 01.386 0l9.844 2.813c.678.193.677 1.158 0 1.352l-2.303.658v5.697a.703.703 0 01-1.406 0V10.25l-1.406.402v3.488c0 .266-.15.51-.389.629l-3.11 1.554c-.344.173-.66.395-.937.66-.272.26-.7.26-.972 0a3.842 3.842 0 00-.938-.66l-3.11-1.554a.703.703 0 01-.388-.63v-3.487zm5.717 4.413l2.72-1.36v-2.651l-3.322.95a.703.703 0 01-.386 0l-3.323-.95v2.651l2.721 1.36c.28.14.546.304.795.49.25-.186.515-.35.795-.49zm6.49-6.55L15 6.434 7.716 8.516 15 10.596l7.284-2.08zm3.262 13.359h.75a.703.703 0 010 1.406H19.65c-1.431 0-2.552.317-3.331.943a2.11 2.11 0 01-2.64 0c-.779-.626-1.9-.943-3.33-.943H3.702a.703.703 0 010-1.406h.75v-2.11c0-.388.315-.703.703-.703h7.032a3.51 3.51 0 012.812 1.41 3.513 3.513 0 012.813-1.41h7.03c.39 0 .704.315.704.704v2.109zm-19.688 0h4.49c1.615 0 2.94.356 3.948 1.057v-.354c0-1.163-.946-2.11-2.11-2.11H5.86v1.407zm9.844.703v.354c1.008-.701 2.333-1.057 3.948-1.057h4.49v-1.406h-6.328c-1.164 0-2.11.946-2.11 2.11z" fill="#fff"/></svg>