<svg width="41" height="40" fill="none" xmlns="http://www.w3.org/2000/svg"><rect x=".5" width="40" height="40" rx="20" fill="#33ADDE"/><path d="M26.991 21.043c.597.634 1.227 1.23 1.763 1.928.236.31.46.63.632.99.242.512.023 1.075-.4 1.106l-2.622-.002c-.676.061-1.215-.235-1.67-.738-.362-.402-.698-.83-1.047-1.245a2.57 2.57 0 00-.472-.457c-.358-.252-.669-.175-.874.231-.208.413-.255.87-.276 1.33-.028.672-.214.849-.835.88-1.325.067-2.583-.15-3.752-.878-1.03-.641-1.83-1.546-2.525-2.57-1.354-1.996-2.39-4.188-3.323-6.441-.21-.508-.056-.78.46-.79.855-.018 1.71-.017 2.566-.002.348.006.578.223.713.58.462 1.238 1.029 2.415 1.74 3.506.189.29.382.581.657.786.304.226.536.151.679-.217.09-.234.13-.485.15-.735.068-.861.077-1.72-.042-2.578-.073-.535-.35-.882-.841-.983-.25-.052-.213-.153-.092-.309.21-.268.41-.435.804-.435h2.964c.466.1.57.328.634.839l.002 3.58c-.005.197.091.783.418.914.262.093.435-.135.592-.315.71-.82 1.216-1.787 1.669-2.79.2-.44.373-.898.54-1.355.125-.339.319-.506.67-.499l2.853.003c.084 0 .17.002.252.017.48.089.612.314.464.824-.234.8-.69 1.468-1.134 2.139-.476.715-.985 1.406-1.456 2.126-.434.658-.4.99.14 1.56z" fill="#fff"/></svg>