<svg width="40" height="40" fill="none" xmlns="http://www.w3.org/2000/svg"><rect width="40" height="40" rx="20" fill="#80D1F4"/><path d="M25.492 21.043c.597.634 1.227 1.23 1.762 1.928.237.31.46.63.632.99.243.512.023 1.075-.399 1.106l-2.622-.002c-.676.061-1.216-.235-1.67-.738-.363-.402-.699-.83-1.048-1.245a2.57 2.57 0 00-.472-.457c-.358-.252-.669-.175-.873.231-.209.413-.256.87-.276 1.33-.028.672-.215.849-.835.88-1.326.067-2.584-.15-3.752-.878-1.03-.641-1.83-1.546-2.525-2.57-1.354-1.996-2.391-4.188-3.323-6.441-.21-.508-.056-.78.459-.79.855-.018 1.71-.017 2.567-.002.348.006.578.223.712.58.463 1.238 1.03 2.415 1.74 3.506.19.29.382.581.657.786.305.226.536.151.68-.217.09-.234.13-.485.15-.735.068-.861.077-1.72-.042-2.578-.073-.535-.35-.882-.841-.983-.251-.052-.214-.153-.092-.309.21-.268.409-.435.804-.435h2.963c.467.1.57.328.634.839l.003 3.58c-.005.197.09.783.418.914.262.093.435-.135.592-.315.71-.82 1.216-1.787 1.668-2.79.201-.44.374-.898.541-1.355.124-.339.319-.506.67-.499l2.852.003c.085 0 .17.002.252.017.481.089.613.314.464.824-.234.8-.689 1.468-1.134 2.139-.475.715-.984 1.406-1.456 2.126-.433.658-.399.99.14 1.56z" fill="#fff"/></svg>