<svg width="24" height="24" fill="none" xmlns="http://www.w3.org/2000/svg"><path opacity=".8" d="M18.492 13.043c.597.634 1.227 1.23 1.762 1.929.237.31.46.63.632.99.243.511.023 1.074-.399 1.105l-2.622-.002c-.676.061-1.216-.235-1.67-.738-.363-.402-.699-.83-1.048-1.245a2.57 2.57 0 00-.472-.457c-.358-.252-.668-.175-.873.231-.208.413-.256.87-.276 1.33-.028.672-.215.849-.835.88-1.326.067-2.584-.15-3.752-.878-1.03-.641-1.83-1.546-2.525-2.57C5.06 11.621 4.023 9.43 3.09 7.176c-.21-.508-.056-.78.459-.79a65.47 65.47 0 012.567-.002c.348.006.578.223.712.58.463 1.237 1.03 2.415 1.74 3.506.19.29.382.581.657.786.304.226.536.151.68-.217.09-.234.13-.485.15-.735.068-.861.077-1.72-.042-2.578-.073-.535-.35-.882-.841-.983-.251-.052-.214-.153-.092-.309.21-.268.409-.435.804-.435h2.963c.467.1.57.328.634.839l.003 3.58c-.005.197.09.783.418.914.262.093.435-.135.592-.315.71-.82 1.216-1.787 1.668-2.79.201-.44.374-.897.541-1.355.124-.339.319-.506.67-.499l2.852.003c.085 0 .17.002.252.017.481.089.613.314.464.824-.234.8-.689 1.468-1.134 2.138-.475.716-.984 1.407-1.456 2.127-.433.658-.399.99.14 1.56z" fill="#0098D6"/></svg>